<svg xmlns="http://www.w3.org/2000/svg" viewBox="0 0 168.35 114.64"><title>Asset 5</title><g id="Layer_2" data-name="Layer 2"><g id="Style_Guide" data-name="Style Guide"><path d="M141.09,5.69a4.74,4.74,0,0,0-4.74,4.74c0,23.94-14.86,27.51-23.71,27.51a9.44,9.44,0,0,1-3.09-.53,15.56,15.56,0,0,1-7.4-6.24,26.74,26.74,0,0,1-4.59-14.05,10.08,10.08,0,0,1,1.5-5.91c.56-.74,1.59-1.73,4.09-1.73,1.54,0,1.92.55,2.13.85.37.52,1,1.82,1,4.62A35.44,35.44,0,0,1,104,26.78c1.78,3.47,4.36,6.36,7.21,7.14,2.88-6.58,4.57-13.39,4.57-19,0-4.13-.91-7.52-2.71-10.08A11.69,11.69,0,0,0,103.15,0,13.91,13.91,0,0,0,91.46,5.52a19.15,19.15,0,0,0-3.4,11.6,36,36,0,0,0,8.86,22.76c-4.18,5.6-9,9.45-12.75,9.45s-8.57-3.84-12.75-9.45h0a52,52,0,0,1-5.22-8.7h0A39.15,39.15,0,0,1,62.09,15c0-2.81.62-4.1,1-4.62.21-.3.6-.85,2.13-.85,2.51,0,3.54,1,4.09,1.73a10.08,10.08,0,0,1,1.5,5.91A25.36,25.36,0,0,1,68.5,27a48.94,48.94,0,0,0,5.37,9.76,36.15,36.15,0,0,0,6.42-19.63,19.15,19.15,0,0,0-3.4-11.6A13.91,13.91,0,0,0,65.2,0a11.69,11.69,0,0,0-9.89,4.88C53.51,7.43,52.6,10.83,52.6,15c0,6.57,2.34,14.86,6.21,22.46a9.44,9.44,0,0,1-3.09.53C46.86,37.94,32,34.37,32,10.43a4.74,4.74,0,1,0-9.49,0c0,22.82,12.72,37,33.2,37a19.11,19.11,0,0,0,8.12-1.8c5.58,7.62,12.75,13.19,20.34,13.19s14.75-5.56,20.34-13.19a19.11,19.11,0,0,0,8.12,1.8c20.48,0,33.2-14.18,33.2-37A4.74,4.74,0,0,0,141.09,5.69Z" style="fill:#fff"/><path d="M7.82,101.9.15,80.73c-.44-1.28.15-2,1.43-2H3.15a1.87,1.87,0,0,1,2.07,1.36l5.71,16.4,5-15.43a1.77,1.77,0,0,1,2-1.31H19a1.73,1.73,0,0,1,2,1.29L26,96.61l5.66-16.43a1.92,1.92,0,0,1,2.07-1.42h1.58c1.33,0,1.87.67,1.43,1.95l-7.63,21.22a2,2,0,0,1-2.07,1.44H25.44a2,2,0,0,1-2-1.52l-5-15.38-5,15.39a2,2,0,0,1-2,1.51H9.84A2,2,0,0,1,7.82,101.9Z" style="fill:#fff"/><path d="M38.48,90.93a13,13,0,1,1,13,12.89A12.92,12.92,0,0,1,38.48,90.93Zm21,0a8,8,0,1,0-8,8.42A8.22,8.22,0,0,0,59.49,91Z" style="fill:#fff"/><path d="M68.76,101.51V80.4c0-1.13.82-1.63,2-1.63h1.48c1.13,0,1.7.5,1.7,1.63v3.74c1-3.94,3.68-6.05,6.63-6.05l1.25,0c1,.15,1.35,1,1.35,2v1.43c0,1.23-.64,1.72-1.48,1.53a7.1,7.1,0,0,0-1.44-.15c-1.77,0-6.31.89-6.31,11v7.63c0,1.13-.56,1.86-1.7,1.86H70.71A1.81,1.81,0,0,1,68.76,101.51Z" style="fill:#fff"/><path d="M91.31,99.39v2.12a2,2,0,0,1-2.15,1.86H87.69c-1.13,0-1.5-.73-1.5-1.86v-32c0-1.13.37-2,1.5-2h1.48a2.08,2.08,0,0,1,2.15,2v13c2.05-3.3,5.37-4.43,8.67-4.43,7.33,0,12.11,5.76,12.11,12.85s-4.73,12.89-12.06,12.89C96.73,103.82,93.36,102.69,91.31,99.39Zm15.62-8.46c0-4.58-2.85-8.46-7.87-8.46-4.82,0-8.17,3.59-8.22,8.46s3.4,8.46,8.22,8.46C104.08,99.39,106.93,95.55,106.93,90.93Z" style="fill:#fff"/><path d="M121,99.39v2.12c0,1.13-.19,1.86-1.32,1.86h-1.48c-1.13,0-2.33-.73-2.33-1.86v-32a2.26,2.26,0,0,1,2.33-2h1.48c1.13,0,1.32.85,1.32,2v13c3.08-3.3,5.79-4.43,9.08-4.43,7.33,0,12.32,5.76,12.32,12.85s-5,12.89-12.37,12.89C126.77,103.82,124.12,102.69,121,99.39Zm16.45-8.46c0-4.58-2.85-8.46-7.87-8.46-4.82,0-8.17,3.59-8.22,8.46s3.39,8.46,8.22,8.46C134.64,99.39,137.49,95.55,137.49,90.93Z" style="fill:#fff"/><path d="M149.79,112.41l3.79-10L144.13,80.8c-.54-1.23,0-2,1.38-2h2a1.88,1.88,0,0,1,2,1.31l6.84,16.65,6.3-16.58a2,2,0,0,1,2.12-1.38h2c1.33,0,1.92.72,1.38,2l-13.73,32.37a2.08,2.08,0,0,1-2.07,1.51h-1.18C149.84,114.64,149.3,113.64,149.79,112.41Z" style="fill:#fff"/></g></g></svg>