<?xml version="1.0" encoding="UTF-8"?>
<svg width="73px" height="35px" viewBox="0 0 73 35" version="1.1" xmlns="http://www.w3.org/2000/svg" xmlns:xlink="http://www.w3.org/1999/xlink">
    <!-- Generator: Sketch 41.2 (35397) - http://www.bohemiancoding.com/sketch -->
    <title>icon-insurance@1.5x</title>
    <desc>Created with Sketch.</desc>
    <defs>
        <path d="M42,23.5992455 L64.2833136,1.31593185 C66.0354538,-0.436208353 68.8682133,-0.444229413 70.6378246,1.32538189 C72.395184,3.0827412 72.3966425,5.93052507 70.6472747,7.67989288 L48.363961,29.9632065 L42,23.5992455 Z" id="path-1"></path>
        <mask id="mask-2" maskContentUnits="userSpaceOnUse" maskUnits="objectBoundingBox" x="0" y="0" width="29.9575755" height="29.9632065" fill="white">
            <use xlink:href="#path-1"></use>
        </mask>
        <polygon id="path-3" points="44.8336309 32.7803301 36.3483496 34.9016504 38.4696699 26.4163691"></polygon>
        <mask id="mask-4" maskContentUnits="userSpaceOnUse" maskUnits="objectBoundingBox" x="0" y="0" width="8.48528137" height="8.48528137" fill="white">
            <use xlink:href="#path-3"></use>
        </mask>
    </defs>
    <g id="Desktop" stroke="none" stroke-width="1" fill="none" fill-rule="evenodd">
        <g id="Desktop-Home" transform="translate(-1007.000000, -3122.000000)" stroke="#FFFFFF">
            <g id="icon-endorsement-copy-3" transform="translate(1005.000000, 3122.000000)">
                <g id="icon-insurance" transform="translate(3.000000, 0.000000)">
                    <use id="Rectangle-3" mask="url(#mask-2)" stroke-width="4" xlink:href="#path-1"></use>
                    <path d="M0,24 C0,24 13.5,37.5 13.5,31.5 C13.5,19.5 27,31.5 27,31.5" id="Path-2" stroke-width="2" stroke-linecap="round" transform="translate(13.500000, 28.518595) scale(-1, 1) translate(-13.500000, -28.518595) "></path>
                    <path d="M0,7.5 L42,7.5" id="Path-2" stroke-width="2" stroke-linecap="round"></path>
                    <path d="M0,15 L34.5,15" id="Path-2" stroke-width="2" stroke-linecap="round"></path>
                    <use id="Rectangle" mask="url(#mask-4)" stroke-width="4" xlink:href="#path-3"></use>
                </g>
            </g>
        </g>
    </g>
</svg>