<?xml version="1.0" encoding="UTF-8"?>
<svg width="20px" height="20px" viewBox="0 0 20 20" version="1.1" xmlns="http://www.w3.org/2000/svg" xmlns:xlink="http://www.w3.org/1999/xlink">
    <!-- Generator: Sketch 45.1 (43504) - http://www.bohemiancoding.com/sketch -->
    <title>icon-filter-close-black</title>
    <desc>Created with Sketch.</desc>
    <defs></defs>
    <g id="Edit-profile" stroke="none" stroke-width="1" fill="none" fill-rule="evenodd">
        <g id="Menu-Logged-In" transform="translate(-335.000000, -25.000000)" fill="#1E2225">
            <g id="icon-filter-close-black" transform="translate(335.000000, 25.000000)">
                <path d="M8.09390274,9.99823401 L0.461701688,17.6304351 C-0.0496065502,18.1417433 -0.0568405001,19.0023661 0.469513723,19.5287203 C0.999537591,20.0587442 1.84575919,20.0585721 2.36779894,19.5365323 L10,11.9043313 L17.8419043,19.7462356 C18.2465988,20.15093 19.0041321,20.0550745 19.5304863,19.5287203 C20.0605101,18.9986964 20.1542254,18.2463622 19.7480016,17.8401383 L11.9060973,9.99823401 L19.5382983,2.36603295 C20.0496066,1.85472471 20.0568405,0.994101955 19.5304863,0.467747732 C19.0004624,-0.0622761359 18.1542408,-0.0621040582 17.6322011,0.459935697 L10,8.09213675 L2.15809569,0.250232443 C1.75340122,-0.154462024 0.995867946,-0.058606491 0.469513723,0.467747732 C-0.060510145,0.9977716 -0.154225412,1.75010585 0.251998434,2.1563297 L8.09390274,9.99823401 Z"></path>
            </g>
        </g>
    </g>
</svg>