<svg xmlns="http://www.w3.org/2000/svg" width="65" height="65"><defs><linearGradient id="a" x1="0%" x2="99.9875%" y1="49.9979%" y2="49.9979%"><stop stop-color="#FFB247" offset="0%"/><stop stop-color="#FFCB33" offset="100%"/></linearGradient></defs><g fill="none" fill-rule="evenodd"><path fill="url(#a)" d="M37.9167 54.1667C52.8743 54.1667 65 42.041 65 27.0833 65 12.1257 52.8743 0 37.9167 0 22.959 0 10.8333 12.1258 10.8333 27.0833c0 14.9576 12.1258 27.0834 27.0834 27.0834"/><path fill="#1E2225" d="M35.568 33.615c1.286.468 2.7213-.2025 3.1883-1.4873.468-1.285-.2016-2.7203-1.4864-3.1872-1.285-.469-2.7203.2015-3.1883 1.4863-.468 1.285.2015 2.7203 1.4863 3.1883zM15.51 32.1353c-.3693 1.0162.1604 2.1515 1.1755 2.521 1.0162.3705 2.1515-.1593 2.521-1.1755.3704-1.016-.1637-2.1385-1.1798-2.508-1.015-.3693-2.1342.1518-2.5166 1.1625zm-3.316-1.2068c1.0335-2.8394 4.1882-4.3106 7.0395-3.2717 2.8524 1.038 4.3236 4.1925 3.29 7.032-1.0388 2.8513-4.1935 4.3225-7.0448 3.2846-2.8394-1.0335-4.3106-4.188-3.2847-7.045zM60.9137 54.649c1.4787-4.0635.026-6.3938-2.9467-8.5853-1.4614 1.0064-4.2748 3.2543-5.9627 6.3678l8.5183 3.1005c.1473-.2925.272-.5937.391-.883zm-1.9002 4.0756l-54.144-19.707-.8287 2.2772 54.107 19.693.8657-2.2632zM8.6352 28.4833c-.899 2.431-1.4256 4.9834-1.575 7.604l41.574 15.132c1.6823-3.366 4.3798-5.863 6.281-7.319-3.3214-2.5264-8.1867-6.7915-15.0084-13.142-2.0692-1.9305-3.4537-3.9173-4.6573-5.6723-1.5903-2.2978-2.731-3.9596-4.7753-4.7038-.5135-.1875-1.7355-.5623-1.9674.0736-.066.183.1896.9284.3467 1.3737.4008 1.144.9512 2.716.3272 4.4297-.6815 1.872-2.926 3.2035-6.3895 1.9425-4.4666-1.625-8.7934-4.3225-10.934-5.7536-.8603 1.1842-2.1733 3.2284-3.222 6.0353zm55.574 27.351c-.338.9305-.7735 1.7842-1.3065 2.601l-2.0887 5.435c-.3543.897-1.351 1.352-2.2577 1.0228L1.157 44.001c-.9057-.3293-1.3845-1.3358-1.0508-2.2533l2.0366-5.5933c.235-.649.8147-1.0617 1.4517-1.1342.2253-2.676.8038-5.2932 1.73-7.798 1.961-5.2735 4.8068-8.257 4.9206-8.3816.6198-.6338 1.6067-.7183 2.3173-.196.0694.039 5.758 4.174 11.4487 6.2453 1.2718.4636 1.8146.2307 1.8655.1667.1788-.4896-.0108-1.1125-.3434-2.066-.3618-1.0605-.8243-2.379-.325-3.7504.6718-1.847 2.7702-3.537 6.4903-2.183 3.0973 1.1268 4.7374 3.5123 6.473 6.016 1.1613 1.6834 2.3584 3.422 4.1632 5.0904 8.1727 7.59 13.6186 12.2753 16.654 14.2946 2.221 1.4734 8.1337 5.4134 5.2207 13.376zM47.8227 45.3377c1.2848.468 2.7202-.2015 3.1882-1.4863.468-1.286-.2016-2.7213-1.4875-3.1893-1.2848-.467-2.7203.2015-3.1882 1.4874-.467 1.2848.2015 2.7202 1.4874 3.1882zm-8.229-7.6656c1.2848.468 2.7213-.2015 3.1882-1.4864.468-1.286-.2016-2.7213-1.4864-3.1893-1.2848-.467-2.7214.2026-3.1883 1.4874-.4604 1.301.2015 2.7202 1.4864 3.1882zm2.6455.6153c.467-1.2848 1.9034-1.9543 3.1882-1.4863 1.2968.4723 1.9543 1.9034 1.4864 3.1882-.467 1.286-1.9035 1.9543-3.1883 1.4874-1.2967-.4723-1.9587-1.8915-1.4863-3.1893z"/></g></svg>