<?xml version="1.0" encoding="UTF-8"?>
<svg height="24px" viewBox="0 0 20 13" preserveAspectRatio="xMidYMid meet" version="1.1" xmlns="http://www.w3.org/2000/svg" xmlns:xlink="http://www.w3.org/1999/xlink">
    <!-- Generator: Sketch 42 (36781) - http://www.bohemiancoding.com/sketch -->
    <title>icon-map-inactive copy 2</title>
    <desc>Created with Sketch.</desc>
    <defs></defs>
    <g id="Edit-profile" stroke="none" stroke-width="1" fill="none" fill-rule="evenodd">
        <g id="Search-Results" transform="translate(-140.000000, -311.000000)" fill="#FFCB33">
            <g id="Group-8" transform="translate(10.000000, 301.000000)">
                <g id="icon-map-inactive" transform="translate(130.000000, 10.000000)">
                    <path d="M0,0.790347451 C0,0.233525661 0.393676758,-0.0262249545 0.898260623,0.21940748 L5.10173938,2.26566934 C5.59783502,2.50716969 6,3.15475751 6,3.71115945 L6,12.2096525 C6,12.7664743 5.60632324,13.026225 5.10173938,12.7805925 L0.898260623,10.7343307 C0.40216498,10.4928303 0,9.84524249 0,9.28884055 L0,0.790347451 Z M7.33333333,3.71115945 C7.33333333,3.15433766 7.73420016,2.48340879 8.21402486,2.22063171 L11.7859751,0.264445109 C12.2723676,-0.00192883773 12.6666667,0.233945518 12.6666667,0.790347451 L12.6666667,9.28884055 C12.6666667,9.84566234 12.2657998,10.5165912 11.7859751,10.7793683 L8.21402486,12.7355549 C7.72763236,13.0019288 7.33333333,12.7660545 7.33333333,12.2096525 L7.33333333,3.71115945 Z M14,0.790347451 C14,0.233525661 14.3936768,-0.0262249545 14.8982606,0.21940748 L19.1017394,2.26566934 C19.597835,2.50716969 20,3.15475751 20,3.71115945 L20,12.2096525 C20,12.7664743 19.6063232,13.026225 19.1017394,12.7805925 L14.8982606,10.7343307 C14.402165,10.4928303 14,9.84524249 14,9.28884055 L14,0.790347451 Z" id="icon-map-inactive-copy-2"></path>
                </g>
            </g>
        </g>
    </g>
</svg>