<svg xmlns="http://www.w3.org/2000/svg" width="45" height="45"><defs><linearGradient id="a" x1="0%" x2="99.9875%" y1="49.9979%" y2="49.9979%"><stop stop-color="#FFB247" offset="0%"/><stop stop-color="#FFCB33" offset="100%"/></linearGradient></defs><g fill="none" fill-rule="evenodd"><path fill="url(#a)" d="M26.25 37.5C36.6052 37.5 45 29.1053 45 18.75 45 8.3948 36.6052 0 26.25 0S7.5 8.3948 7.5 18.75c0 10.3553 8.3948 18.75 18.75 18.75"/><path fill="#1E2225" d="M16.5442 33.2872c-.237-.237-.5482-.3555-.8602-.3555-.312 0-.624.1185-.861.3555-.4748.4748-.4748 1.2473 0 1.722.4732.474 1.2457.4748 1.7212 0 .4748-.4747.4748-1.2472 0-1.722zm13.6643 2.7975c-.8873 3.3173-3.18 6.0353-6.4538 7.6545-1.6612.8205-3.4837 1.2098-5.3092 1.2098-4.1213 0-8.2575-1.983-10.5803-5.4608-1.3747-2.0595-1.8-4.4355-1.1962-6.6922.6037-2.256 2.1585-4.1025 4.3777-5.199 3.6675-1.8128 8.5005-.5205 10.7715 2.8815.9563 1.4325 1.251 3.09.8288 4.6672-.4215 1.5765-1.5045 2.8658-3.0488 3.6293-2.595 1.2825-5.8882.402-7.4955-2.0055-.6892-1.0313-.9-2.229-.594-3.3713.3053-1.1422 1.086-2.0745 2.1975-2.625 1.869-.9232 4.242-.2895 5.4 1.4453.51.7635.672 1.6897.444 2.5417-.18.6743-.5962 1.2675-1.1692 1.6875.018-.0082.036-.0172.054-.0262.8572-.4238 1.4527-1.1183 1.6762-1.9545.2243-.837.0548-1.7355-.4755-2.5305-1.5667-2.346-4.8967-3.237-7.4257-1.9868-1.5323.7575-2.5995 2.0093-3.0053 3.525-.405 1.5158-.1057 3.1343.8438 4.5555 2.6452 3.9608 8.2717 5.4683 12.543 3.3555 2.5875-1.2787 4.3912-3.4027 5.0812-5.979.6893-2.577.186-5.3182-1.4167-7.7182-.4028-.603-.2408-1.4175.363-1.8203.6022-.4027 1.4175-.24 1.8195.3623 2.0287 3.0375 2.6572 6.5377 1.77 9.8542zM7.4655 27.273l-5.007-8.9648c-.3533-.6337-1.1543-.8602-1.7858-.5062-.633.3532-.8595 1.1527-.5055 1.7857l5.0063 8.9648c.24.4305.687.6727 1.1467.6727.2168 0 .4365-.0532.639-.1665.633-.3532.8595-1.1527.5063-1.7857zm1.344-2.3115c.1852.5467.696.8917 1.2435.8917.1395 0 .2812-.0225.4207-.0697.6863-.2325 1.0553-.978.822-1.6643L6.9592 11.313c-.2325-.6863-.9772-1.0553-1.665-.8228-.6862.2333-1.0545.978-.822 1.665l4.3373 12.8063zm4.2885-1.3853c.1177.6315.669 1.0718 1.2892 1.0718.0795 0 .1605-.0068.2415-.0225.7125-.1328 1.1828-.8183 1.05-1.5308l-3.1732-17.022c-.1328-.7125-.819-1.1857-1.5308-1.0492-.7125.1327-1.1827.8182-1.05 1.5307l3.1733 17.022zm4.9155.7418l-.255-17.6243c-.0105-.7252.5685-1.3215 1.2937-1.332.708 0 1.32.5685 1.3313 1.2938l.255 17.6242c.0105.7245-.5685 1.3208-1.293 1.3313h-.0195c-.7163 0-1.3013-.5753-1.3125-1.293z"/></g></svg>