<svg xmlns="http://www.w3.org/2000/svg" width="150" height="150" xmlns:xlink="http://www.w3.org/1999/xlink"><defs><path id="a" d="M80.1776 71.4323c-1.2234.4893-3.0803.7865-5.0526.7865-1.9723 0-3.8292-.2972-5.0526-.7865-.2694-.1078-.4784-.213-.623-.3006C69.1543 69.3547 67.6103 68 65.75 68 63.679 68 62 69.679 62 71.75c0 10.625 26.25 10.625 26.25 0 0-2.071-1.679-3.75-3.75-3.75-1.8605 0-3.4045 1.3548-3.6993 3.1317-.1447.0877-.3537.1928-.623.3006z"/><mask id="b" width="26.25" height="11.7188" x="0" y="0" fill="#fff"><use xlink:href="#a"/></mask><path id="c" d="M5.3767 7.622V.5626H.3127V7.622z"/><linearGradient id="e" x1="0%" x2="99.9875%" y1="49.9979%" y2="49.9979%"><stop stop-color="#FFB247" offset="0%"/><stop stop-color="#FFCB33" offset="100%"/></linearGradient></defs><g fill="none" fill-rule="evenodd"><ellipse cx="100" cy="100" fill="#F3F3F5" rx="50" ry="50"/><path fill="#FFB247" d="M90.5548 117.5387c-.0662.24-2.019 6.1203-15.5228 6.1203-13.636 0-15.7875-6.6303-15.953-7.1403l-4.5343-13.3806c1.721-2.46 3.376-5.85 4.1703-10.2903 4.3358 2.13 9.6314 3.5402 16.1185 3.5402 6.6195 0 11.9813-1.4402 16.3832-3.6603.7944 4.5002 2.4823 7.9503 4.2034 10.4404l-4.8652 14.3707zm-42.431-99.454c3.6407-5.13 10.227-6.1202 20.355-6.1202l5.461.03c15.3242 0 25.0217-1.68 29.9533-2.88 1.5557 3.39 3.078 10.2003-2.9125 19.3507-1.357 1.74-8.7047 4.4702-20.057 4.7102-7.9435.18-14.894-.96-18.601-3.0602-1.059-.6-2.3498-.78-3.5413-.51s-2.2507.99-2.8464 1.98c-.033.06-2.8464 4.1703-9.0687 5.4303-1.1252-5.5202-1.9527-14.4306 1.2578-18.9307zm26.776 70.0228c-17.939 0-23.698-14.3105-25.3528-20.4608-1.8204-6.7502-2.019-16.9206-1.9528-22.3208 6.5864-.9902 11.0546-4.0803 13.603-6.5104 5.1964 1.89 12.2462 2.85 19.958 2.64 6.851-.15 14.662-1.23 20.454-3.6.1987 1.23.4304 2.49.5628 3.75 0 .15.662 16.4708-1.8866 26.041-1.688 6.1204-7.48 20.461-25.3857 20.461zM63.5 58c2.4853 0 4.5-2.0147 4.5-4.5S65.9853 49 63.5 49 59 51.0147 59 53.5s2.0147 4.5 4.5 4.5zm23 0c2.4853 0 4.5-2.0147 4.5-4.5S88.9853 49 86.5 49 82 51.0147 82 53.5s2.0147 4.5 4.5 4.5zm13.4214 29.3575c0-.33-.1324-.6-.1986-.9 5.9575-6.1503 8.506-13.5306 9.3997-16.8607 2.8795-10.6804 2.1844-27.601 2.1182-28.561-.364-3.3603-.9267-6.5704-1.688-9.5105 10.6905-17.4907.4634-29.4612.033-29.9712-1.2576-1.44-3.475-1.95-5.3286-1.23-.099.03-9.3003 3.3902-30.3172 3.3902l-5.461-.03c-10.161 0-21.5465.78-28.0667 9.9304-6.2223 8.7603-3.045 23.701-1.9527 27.961-.0993 2.4002-.5296 17.9708 2.1513 28.0212.9268 3.39 3.5415 10.8904 9.6645 17.1007-.033.21-.1323.42-.1323.66 0 9.5704-5.1963 13.8006-5.8582 14.3106C1.2577 124.709 0 143.76 0 145.86c0 2.25 1.986 4.0502 4.4682 4.1102 2.5485 0 4.5674-1.8 4.6667-4.0202 0-.15 1.2245-15.9306 38.062-36.2114l3.012 8.9104c.1323.54 3.5083 13.3205 24.79 13.3205 19.6268 0 23.731-10.2604 24.3597-12.3005l3.409-9.9604c36.5066 20.0408 38.0622 35.7614 38.0953 36.2114.0662 2.25 2.085 4.0802 4.5674 4.0802 2.5155 0 4.5675-1.86 4.5675-4.1402.066-2.1-1.1585-21.0308-44.119-44.1617-.5958-.42-5.9576-4.62-5.9576-14.3405z"/><use fill="#FFB247" stroke="#F3F3F5" stroke-width="4" mask="url(#b)" xlink:href="#a"/><path fill="#1E2225" d="M92.196 145.0425l-1.5925-4.1968c-.0916-.2527.0307-.3993.2962-.3993h.3264c.2146 0 .3572.078.429.2826l1.184 3.2523 1.041-3.0963c.0615-.1947.204-.302.408-.302h.225c.2146 0 .3467.1073.4082.302l1.0516 3.0963 1.1733-3.2523c.072-.2046.2146-.2826.429-.2826h.3265c.276 0 .3884.1466.2962.3993l-1.582 4.1968c-.0817.2046-.2145.282-.429.282H95.85c-.214 0-.3474-.0973-.4187-.292l-1.0307-3.0376-1.0307 3.0376c-.0616.1946-.2042.292-.4187.292h-.3368c-.2145 0-.3472-.0874-.4185-.282M102.9137 142.8905c0-.9252-.735-1.6745-1.6638-1.6745-.9085 0-1.6535.7493-1.6535 1.6745 0 .9252.745 1.665 1.6534 1.665.9286 0 1.6637-.7398 1.6637-1.665m-4.3583-.01c0-1.4018 1.204-2.541 2.6945-2.541 1.5002 0 2.7147 1.149 2.7147 2.541 0 1.4125-1.2145 2.5517-2.7148 2.5517-1.4906 0-2.6946-1.1298-2.6946-2.5517M104.8635 144.9744v-4.1775c0-.2235.1426-.3507.3773-.3507h.306c.235 0 .3677.1272.3677.3506v.7404c.174-.7792.7553-1.1978 1.368-1.1978l.2245.0094c.2145.0293.2452.1946.2452.39v.282c0 .2432-.102.3405-.276.3018-.0916-.0193-.1838-.0293-.2753-.0293-.3677 0-1.2865.1753-1.2865 2.1717v1.5092c0 .224-.1328.3506-.3676.3506h-.3062c-.2347 0-.3773-.1266-.3773-.3506M112.7536 142.8808c0-.9053-.592-1.6745-1.633-1.6745-1.0007 0-1.6946.7106-1.705 1.6745.0104.964.7043 1.6745 1.705 1.6745 1.041 0 1.633-.7593 1.633-1.6745m-3.317 1.6745v.4192c0 .224-.133.35-.3683.35h-.306c-.2342 0-.3774-.126-.3774-.35v-6.3392c0-.224.143-.35.3772-.35h.306c.2355 0 .3683.126.3683.35v2.581c.4794-.6532 1.153-.8766 1.837-.8766 1.5207 0 2.531 1.1386 2.531 2.541 0 1.4025-1.0103 2.5517-2.531 2.5517-.684 0-1.3576-.2245-1.837-.877M119.0925 142.8808c0-.9053-.592-1.6745-1.633-1.6745-1.0007 0-1.6946.7106-1.705 1.6745.0104.964.7043 1.6745 1.705 1.6745 1.041 0 1.633-.7593 1.633-1.6745m-3.317 1.6745v.4192c0 .224-.133.35-.3683.35h-.306c-.2342 0-.3774-.126-.3774-.35v-6.3392c0-.224.1432-.35.3773-.35h.3062c.2354 0 .3682.126.3682.35v2.581c.4794-.6532 1.153-.8766 1.837-.8766 1.5206 0 2.531 1.1386 2.531 2.541 0 1.4025-1.0104 2.5517-2.531 2.5517-.684 0-1.3576-.2245-1.837-.877"/><g transform="translate(120.116 139.884)"><mask id="d" fill="#fff"><use xlink:href="#c"/></mask><path fill="#1E2225" d="M1.5282 7.2133l.786-1.9572L.3543.9714C.242.728.3643.5627.6403.5627h.408c.2145 0 .3472.088.4185.2726l1.4186 3.301L4.192.8453c.072-.1947.225-.2826.4388-.2826h.4185c.276 0 .3983.156.2858.4086l-2.8474 6.378c-.0817.1946-.2145.2726-.429.2726H1.814c-.2754 0-.3878-.1654-.2858-.4087" mask="url(#d)"/></g><path fill="url(#e)" d="M9.0928.7044c-.2884.379-.4403.891-.4403 1.4804 0 .9423.412 2.1026 1.1458 2.905-.54.7142-1.274 1.205-1.7598 1.205-.485 0-.215-.4908-1.7592-1.205v-.0683c-.7718-.3312-.276-.3423-.4692-1.1038h-.3025v.06c0-.6687-.3735-1.4-.3735-2.0687 0-.3586.1596-.5236.207-.59.027-.038.117-.108.3154-.108.324 0 .478.1254.5496.22.1253.165.2045.4325.2045.7538 0 .386-.104.838-.2925 1.26.1843.4502.4355.8822.696 1.245.5337-.7598.8315-1.709.8315-2.505 0-.5895-.1506-1.1014-.439-1.4804C6.9625.383 6.502 0 5.696 0c-.5395 0-.9928.221-1.2794.6227-.2322.326-.3504.7586-.3504 1.2863 0 .839.3026 1.8962.803 2.8658-.1276.0432-.2617.0677-.3994.0677-1.1458 0-3.0676-.456-3.0676-3.5107 0-.3347-.2742-.6053-.6128-.6053-.3392 0-.6134.2706-.6134.6053 0 2.912 1.6452 4.7206 4.2938 4.7206.3788 0 .7298-.084 1.0495-.2298.7222.9726 1.6494 1.6822 2.631 1.6822.981 0 1.9075-.7096 2.6296-1.6822.3196.1458.6712.2298 1.05.2298 2.6486 0 4.2938-1.8087 4.2938-4.7206 0-.3347-.2742-.6053-.6134-.6053-.3386 0-.6134.2706-.6134.6053 0 3.0547-1.9212 3.5107-3.067 3.5107-.1383 0-.2718-.0245-.4-.0677-.3753-.1276-.701-.425-.9568-.797-.3723-.54-.594-1.2362-.594-1.793 0-.3213.0692-.589.195-.754.0716-.0944.2046-.2197.529-.2197.1992 0 .2488.07.276.108.0473.0664.127.2314.127.59 0 .4863-.1122 1.0047-.2978 1.509.231.4426.565.8117.933.9114.3724-.8397.5922-1.7085.5922-2.4204 0-.5277-.1182-.9603-.3504-1.2863C11.5966.221 11.1422 0 10.6032 0c-.8054 0-1.2664.383-1.5104.7044" transform="translate(72 138.125)"/></g></svg>