<svg xmlns="http://www.w3.org/2000/svg" width="50" height="24" xmlns:xlink="http://www.w3.org/1999/xlink"><defs><rect id="a" width="50" height="24" rx="2"/><mask id="c" width="50" height="24" x="0" y="0" fill="#fff"><use xlink:href="#a"/></mask><ellipse id="b" cx="25" cy="12" rx="12" ry="12"/><mask id="d" width="24" height="24" x="0" y="0" fill="#fff"><use xlink:href="#b"/></mask></defs><g fill="none" fill-rule="evenodd"><use stroke="#FFCB33" stroke-width="4" mask="url(#c)" xlink:href="#a"/><use stroke="#FFCB33" stroke-width="4" mask="url(#d)" xlink:href="#b"/><path fill="#FFCB33" d="M25.019 18h.2614c.1998 0 .3074-.097.3074-.277v-.9147C27.509 16.656 29 15.6998 29 14.023c-.0307-1.1777-.8146-2.134-2.8435-2.7436l-.5687-.18V9.0068c.4764.097.7992.3463.9837.7482.1076.2078.2613.277.4918.2217l1.2297-.3327c.246-.0692.3535-.2217.246-.4434-.4766-1.1086-1.491-1.8292-2.9512-1.954v-.97c0-.18-.1076-.277-.3074-.277h-.2613c-.1998 0-.3073.097-.3073.277v.9563c-1.8752.1247-3.32 1.164-3.32 2.7713.0153 1.455 1.583 2.3002 2.782 2.6467l.538.18v2.2588c-.83-.0692-1.3988-.4572-1.66-1.0115-.1076-.2078-.2614-.3048-.492-.2633l-1.245.2772c-.2458.0554-.3688.2078-.292.4295.415 1.344 1.7676 2.217 3.689 2.3002v.9007c0 .18.1075.277.3074.277zm-.3073-7.1917l-.0923-.0416c-.753-.277-.8607-.6097-.8607-.9006 0-.4988.415-.7898.953-.8868v1.829zm.876 4.254v-1.94l.0923.0417c.6302.2217.953.5265.953.9422 0 .499-.3843.8314-1.0452.9562z"/></g></svg>