<svg xmlns="http://www.w3.org/2000/svg" width="79" height="80"><defs><linearGradient id="a" x1="0%" x2="99.9875%" y1="49.9979%" y2="49.9979%"><stop stop-color="#FFB247" offset="0%"/><stop stop-color="#FFCB33" offset="100%"/></linearGradient></defs><g fill="none" fill-rule="evenodd"><path fill="url(#a)" d="M12.962 33.464c0 18.0484 14.6224 32.6798 32.6598 32.6798 18.0373 0 32.6597-14.6314 32.6597-32.6797C78.2815 15.4158 63.659.7844 45.6218.7844 27.5844.7843 12.962 15.4157 12.962 33.464"/><path fill="#1E2225" d="M49.4403 65.4876c0-2.2615-1.731-3.5124-4.2314-4.4275l-.2418-.0953v8.902c2.8375-.481 4.473-2.1177 4.473-4.379zm-7.3105-18.864c-2.26.3856-4.0394 1.7816-4.0394 4.187 0 1.2508.2887 2.9358 3.799 4.2352l.2404.0954v-8.5177zm0 31.5672v-3.9934c-5.193-.289-8.8012-3.1752-10.0514-6.8327-.2404-.626.0967-1.06.674-1.204l2.4535-.673c.576-.144.9614.0966 1.2005.7215.8178 1.9254 2.934 3.417 5.7233 3.7045V59.953l-1.4906-.5282c-5.9154-1.877-7.4543-5.583-7.4543-8.4692 0-5.0053 4.0876-8.1804 8.9448-8.6628V37.962c0-.6247.337-.962.9628-.962h.913c.6246 0 .9616.3373.9616.962v4.3792c4.2314.4823 7.214 2.936 8.3204 6.3516.192.6262-.0966 1.0588-.674 1.251l-2.307.723c-.5776.192-.963-.0485-1.2033-.6263-.7695-1.9725-2.1634-3.0313-4.136-3.3686V56.2l1.6355.626c5.146 1.587 7.7417 5.004 7.7417 8.421 0 5.0523-3.846 8.3726-9.3773 8.9504v3.9934c0 .6262-.337.9634-.9615.9634h-.913c-.626 0-.963-.3372-.963-.9634zM13.1762 57.987c3.7037 0 5.9637-2.647 5.9637-6.3517 0-3.8026-2.3085-6.4484-5.9638-6.4484h-8.08v12.8h8.08zm-1.4422 4.0418H5.0962v10.924c0 1.106-.6244 1.7322-1.7296 1.7322H1.731C.6245 74.685 0 74.0588 0 72.953V42.7332C0 41.6248.6245 41 1.731 41h12.455c6.4928 0 10.2435 4.9085 10.2435 10.6353 0 5.004-2.8858 9.1908-7.8867 10.153.337 3.6575 2.597 9.1437 6.2524 9.1437.9615 0 1.7793-.1934 2.452-.579 1.0583-.481 1.7794-.383 2.3085.626l.2403.4328c.4325.9634.384 1.8287-.529 2.4065-1.4423.962-3.125 1.396-4.8572 1.396-7.935 0-10.3388-9.1437-10.6758-13.1855z"/></g></svg>