<?xml version="1.0" encoding="UTF-8"?>
<svg width="45px" height="45px" viewBox="0 0 45 45" version="1.1" xmlns="http://www.w3.org/2000/svg" xmlns:xlink="http://www.w3.org/1999/xlink">
    <!-- Generator: Sketch 42 (36781) - http://www.bohemiancoding.com/sketch -->
    <title>icon-health</title>
    <desc>Created with Sketch.</desc>
    <defs>
        <linearGradient x1="0%" y1="49.9979293%" x2="99.9874969%" y2="49.9979293%" id="linearGradient-1">
            <stop stop-color="#FFB247" offset="0%"></stop>
            <stop stop-color="#FFCB33" offset="100%"></stop>
        </linearGradient>
    </defs>
    <g id="Desktop" stroke="none" stroke-width="1" fill="none" fill-rule="evenodd">
        <g id="Desktop-How-Does-it-Work" transform="translate(-645.000000, -692.000000)">
            <g id="photo-step1" transform="translate(225.000000, 370.000000)">
                <g id="icon-health" transform="translate(420.000000, 322.000000)">
                    <g>
                        <path d="M18.75,45 C29.10525,45 37.5,36.60525 37.5,26.25 C37.5,15.89475 29.10525,7.5 18.75,7.5 C8.39475,7.5 0,15.89475 0,26.25 C0,36.60525 8.39475,45 18.75,45" id="Fill-1" fill="url(#linearGradient-1)"></path>
                        <path d="M22.5,2.40015 C24.48825,2.40015 26.106,4.0149 26.106,6.00015 C26.106,7.9854 24.48825,9.60015 22.5,9.60015 C20.51175,9.60015 18.894,7.9854 18.894,6.00015 C18.894,4.0149 20.51175,2.40015 22.5,2.40015 M22.5,12.00015 C25.8135,12.00015 28.50975,9.3084 28.50975,6.00015 C28.50975,2.6919 25.8135,0.00015 22.5,0.00015 C19.1865,0.00015 16.49025,2.6919 16.49025,6.00015 C16.49025,9.3084 19.1865,12.00015 22.5,12.00015 M42.189,15.9099 C42.015,16.20315 41.7375,16.41015 41.4075,16.49415 C36.99975,17.6139 32.44425,18.30315 27.8685,18.5424 C27.17025,18.57915 26.62275,19.15515 26.62275,19.8534 L26.62275,28.4049 C26.62275,28.58265 26.6685,28.74915 26.7345,28.9059 L18.2655,28.9059 C18.33075,28.74915 18.3765,28.58265 18.3765,28.4049 L18.3765,19.8534 C18.3765,19.15515 17.829,18.57915 17.1315,18.5424 C12.55425,18.30315 7.99875,17.6139 3.591,16.49415 C3.2625,16.4109 2.985,16.20315 2.811,15.9099 C2.637,15.6174 2.586,15.2754 2.67075,14.9469 C2.75475,14.61315 2.9565,14.34315 3.25275,14.1669 C3.453,14.04915 3.67575,13.9884 3.903,13.9884 C4.00875,13.9884 4.11525,14.00115 4.221,14.02815 C9.27075,15.3099 14.47125,16.00365 19.69875,16.08915 L25.32225,16.08915 C30.528,16.00365 35.72925,15.3099 40.7805,14.02815 C41.11575,13.94265 41.4495,13.9914 41.745,14.16615 C42.03825,14.3409 42.246,14.6184 42.32925,14.9469 C42.32925,14.94765 42.33,14.94765 42.33,14.94765 C42.414,15.27615 42.36375,15.61815 42.189,15.9099 M32.7855,32.5389 C32.7855,33.43065 32.05875,34.1559 31.16475,34.1559 L25.1295,34.1559 C24.405,34.1559 23.81475,33.56715 23.81475,32.8434 C23.81475,32.11965 24.405,31.5309 25.1295,31.5309 L29.26125,31.5309 C29.85525,31.5309 30.35175,31.1349 30.5145,30.59415 C30.92625,30.73665 31.347,30.8769 31.74075,31.02615 C32.3655,31.2654 32.7855,31.8729 32.7855,32.5389 M12.321,33.11415 C12.1665,32.7114 12.17925,32.2719 12.3555,31.87815 C12.5325,31.4829 12.85275,31.1814 13.25625,31.0269 C13.6515,30.8769 14.07225,30.7374 14.4855,30.59415 C14.64825,31.1349 15.14475,31.5309 15.73875,31.5309 L21.4275,31.5309 C21.2805,31.94415 21.18525,32.3814 21.18525,32.8434 C21.18525,33.30615 21.2805,33.7434 21.4275,34.1559 L13.8345,34.1559 C13.16775,34.1559 12.5595,33.7374 12.321,33.11415 M44.8785,14.30115 C44.622,13.2924 43.98675,12.4434 43.08825,11.91015 C42.19275,11.37915 41.14275,11.2284 40.1325,11.48415 C35.27925,12.71565 30.28125,13.3824 25.3005,13.46415 L19.7205,13.46415 C14.71875,13.3824 9.72075,12.71565 4.869,11.48415 C3.858,11.22765 2.808,11.37765 1.91025,11.9109 C1.0125,12.4434 0.37725,13.2924 0.12225,14.3004 C-0.135,15.30765 0.01725,16.35615 0.5505,17.2524 C1.0845,18.14715 1.93425,18.78165 2.94375,19.03815 C7.11675,20.09865 11.418,20.7864 15.74775,21.0879 L15.74775,27.4179 C14.5515,27.7749 13.4025,28.16265 12.3195,28.5744 C11.25975,28.97865 10.4205,29.77065 9.95625,30.8049 C9.492,31.83915 9.45975,32.99265 9.86475,34.0509 C10.4895,35.68365 12.08475,36.7809 13.8345,36.7809 L31.16475,36.7809 C33.5085,36.7809 35.415,34.87815 35.415,32.5389 C35.415,30.7929 34.31625,29.1999 32.679,28.5744 C31.59525,28.1619 30.44625,27.77415 29.2515,27.4179 L29.2515,21.0879 C33.57975,20.7864 37.88175,20.09865 42.057,19.03815 C43.0665,18.78165 43.91625,18.14715 44.4495,17.2524 C44.98275,16.3569 45.135,15.3084 44.8785,14.30115" id="Fill-3" fill="#1E2225"></path>
                    </g>
                </g>
            </g>
        </g>
    </g>
</svg>