<?xml version="1.0" encoding="UTF-8"?>
<svg width="60px" height="60px" viewBox="0 0 60 60" version="1.1" xmlns="http://www.w3.org/2000/svg" xmlns:xlink="http://www.w3.org/1999/xlink">
    <!-- Generator: Sketch 42 (36781) - http://www.bohemiancoding.com/sketch -->
    <title>icon-business</title>
    <desc>Created with Sketch.</desc>
    <defs>
        <linearGradient x1="0%" y1="49.9979293%" x2="99.9874969%" y2="49.9979293%" id="linearGradient-1">
            <stop stop-color="#FFB247" offset="0%"></stop>
            <stop stop-color="#FFCB33" offset="100%"></stop>
        </linearGradient>
    </defs>
    <g id="Desktop" stroke="none" stroke-width="1" fill="none" fill-rule="evenodd">
        <g id="main-interests-mega-drop" transform="translate(-390.000000, -97.000000)">
            <g id="Group-18">
                <g id="Group-Copy-2" transform="translate(30.000000, 77.000000)">
                    <g id="Group-2-Copy-2" transform="translate(270.000000, 0.000000)">
                        <g id="icon-cook" transform="translate(90.000000, 20.000000)">
                            <g id="icon-business">
                                <path d="M35,50 C48.807,50 60,38.807 60,25 C60,11.193 48.807,0 35,0 C21.193,0 10,11.193 10,25 C10,38.807 21.193,50 35,50" id="Fill-1" fill="url(#linearGradient-1)"></path>
                                <path d="M38.248,20.0493 C38.834,20.6773 38.8,21.6623 38.172,22.2483 L24.839,34.6923 C24.55,34.9623 24.17,35.1113 23.778,35.1113 C23.726,35.1113 23.674,35.1083 23.623,35.1033 C23.177,35.0583 22.772,34.8233 22.512,34.4593 L19.135,29.7313 L14.211,34.6543 C13.603,35.2623 12.619,35.2623 12.011,34.6543 C11.404,34.0483 11.404,33.0623 12.011,32.4553 L18.233,26.2333 C18.557,25.9103 19.007,25.7483 19.462,25.7823 C19.917,25.8203 20.333,26.0563 20.599,26.4283 L24.013,31.2083 L36.05,19.9733 C36.677,19.3873 37.662,19.4213 38.248,20.0493 L38.248,20.0493 Z M7.556,39.1113 L44.445,39.1113 L44.445,15.5553 L7.556,15.5553 L7.556,39.1113 Z M50.444,39.1113 L47.556,39.1113 L47.556,13.9993 C47.556,13.1403 46.859,12.4443 46,12.4443 L27.111,12.4443 L27.111,9.5553 C27.111,8.6963 26.415,7.9993 25.556,7.9993 C24.697,7.9993 24,8.6963 24,9.5553 L24,12.4443 L6,12.4443 C5.141,12.4443 4.444,13.1403 4.444,13.9993 L4.444,39.1113 L1.556,39.1113 C0.697,39.1113 0,39.8073 0,40.6663 C0,41.5253 0.697,42.2213 1.556,42.2213 L6,42.2213 L14.674,42.2213 L10.713,58.0673 C10.505,58.9003 11.011,59.7443 11.845,59.9533 C11.972,59.9853 12.099,60.0003 12.224,60.0003 C12.92,60.0003 13.555,59.5283 13.731,58.8213 L17.881,42.2213 L33.23,42.2213 L37.38,58.8213 C37.557,59.5283 38.19,60.0003 38.888,60.0003 C39.013,60.0003 39.14,59.9853 39.266,59.9533 C40.1,59.7443 40.606,58.9003 40.398,58.0673 L36.436,42.2213 L46,42.2213 L50.444,42.2213 C51.303,42.2213 52,41.5253 52,40.6663 C52,39.8073 51.303,39.1113 50.444,39.1113 L50.444,39.1113 Z" id="Fill-3" fill="#1E2225"></path>
                            </g>
                        </g>
                    </g>
                </g>
            </g>
        </g>
    </g>
</svg>