<?xml version="1.0" encoding="UTF-8"?>
<svg width="15px" height="15px" viewBox="0 0 15 15" version="1.1" xmlns="http://www.w3.org/2000/svg" xmlns:xlink="http://www.w3.org/1999/xlink">
    <!-- Generator: Sketch 45.1 (43504) - http://www.bohemiancoding.com/sketch -->
    <title>icon-close-white</title>
    <desc>Created with Sketch.</desc>
    <defs></defs>
    <g id="Symbols" stroke="none" stroke-opacity="0" stroke-width="1" fill="#FFFFFF" fill-rule="evenodd">
        <g id="icon-close-white" fill="#FFFFFF">
            <path d="M6.07042706,7.49867551 L0.346276266,13.2228263 C-0.0372049126,13.6063075 -0.0426303751,14.2517745 0.352135292,14.6465402 C0.749653193,15.0440581 1.38431939,15.0439291 1.77584921,14.6523992 L7.5,8.92824845 L13.3814282,14.8096767 C13.6849491,15.1131975 14.253099,15.0413059 14.6478647,14.6465402 C15.0453826,14.2490223 15.1156691,13.6847716 14.8110012,13.3801037 L8.92957294,7.49867551 L14.6537237,1.77452471 C15.0372049,1.39104354 15.0426304,0.745576466 14.6478647,0.350810799 C14.2503468,-0.046707102 13.6156806,-0.0465780437 13.2241508,0.344951773 L7.5,6.06910257 L1.61857177,0.187674332 C1.31505092,-0.115846518 0.746900959,-0.0439548682 0.352135292,0.350810799 C-0.0453826088,0.7483287 -0.115669059,1.31257939 0.188998825,1.61724727 L6.07042706,7.49867551 Z"></path>
        </g>
    </g>
</svg>