<svg xmlns="http://www.w3.org/2000/svg" width="30" height="30"><g fill="none" fill-rule="evenodd"><ellipse cx="10" cy="20" fill="#F3F3F5" rx="10" ry="10"/><path fill="#90A3B1" d="M29.809 25.4502c-.042-.066-.09-.132-.144-.186-3.7082-3.7096-8.0643-7.545-9.7204-8.9797 1.224-1.8727 1.482-3.5054 1.482-5.5702C21.4267 4.808 16.6207 0 10.7104 0 4.806 0 0 4.808 0 10.7143c0 2.863 1.116 5.5522 3.138 7.575 2.0222 2.0228 4.7162 3.1393 7.5783 3.1393 2.064 0 3.696-.258 5.5682-1.4826 1.428 1.6506 5.2382 5.9904 8.9763 9.724.054.054.12.102.186.144.114.072.366.186.738.186.744 0 1.572-.4562 2.466-1.3445 1.734-1.7407 1.386-2.8212 1.158-3.2053zm-2.5382 1.8247c-.45.45-.756.6422-.93.7202-4.47-4.5018-8.9643-9.76-9.1563-9.988v-.006c-.048-.054-.102-.108-.156-.15-.378-.2822-.894-.2522-1.236.06-1.758 1.3205-3.096 1.5666-5.0762 1.5666-2.34 0-4.542-.9124-6.1982-2.569-1.656-1.6567-2.568-3.8596-2.568-6.2005 0-4.826 3.9302-8.7635 8.7663-8.7635 4.8362 0 8.7663 3.9316 8.7663 8.7695 0 1.9748-.246 3.3073-1.548 5.054-.042.042-.078.09-.108.138-.27.4082-.192.9604.18 1.2786.054.048 5.442 4.6457 9.9903 9.1655-.09.168-.276.4742-.7262.9244zM6.8582 6.8606c.378-.378.378-.9964 0-1.3805-.378-.3842-.996-.3782-1.38 0-2.886 2.887-2.886 7.581 0 10.4682.192.192.438.288.69.288.252 0 .498-.096.69-.288.378-.3782.378-.9964 0-1.3806-2.124-2.1248-2.124-5.5822 0-7.707z"/></g></svg>