<svg xmlns="http://www.w3.org/2000/svg" width="80" height="80" xmlns:xlink="http://www.w3.org/1999/xlink"><defs><path id="a" d="M.482 19.4118h10.0613V.4428H.482v18.969z"/></defs><g fill="none" fill-rule="evenodd"><circle cx="27.5" cy="52.5" r="27.5" fill="#FFF"/><path fill="#1E2225" fill-rule="nonzero" d="M79.98 35.9293C79.81 18.462 66.122 4.1688 48.8764 2.9493V2.38c0-1.3147-1.0682-2.38-2.3866-2.38s-2.3867 1.0653-2.3867 2.38v.5693C26.7555 4.1755 13.0086 18.6343 13 36.2433c0 1.074.7198 2.0145 1.7594 2.2973.208.057.419.0838.6272.0838.8306 0 1.62-.4332 2.0563-1.173 1.2438-2.1067 3.5417-3.5213 5.7202-3.5213 2.1727 0 4.3942 1.3824 5.6562 3.5215.4287.7273 1.2115 1.173 2.0563 1.173h.001c.8458 0 1.6286-.4476 2.0563-1.174 1.221-2.0734 3.599-3.5204 5.7813-3.5204 2.0058 0 4.1002 1.2053 5.389 3.035v33.3094c0 5.3626 4.376 9.7256 9.7555 9.7256 5.3795 0 9.7556-4.363 9.7556-9.7256 0-1.3147-1.0683-2.38-2.3866-2.38-1.3184 0-2.3867 1.0653-2.3867 2.38 0 2.738-2.2347 4.9656-4.9822 4.9656-2.7474 0-4.9823-2.2276-4.9823-4.9656V36.966c1.2936-1.8316 3.388-3.036 5.388-3.036 2.188 0 4.4907 1.4147 5.7318 3.5206.4276.7273 1.2105 1.1738 2.0563 1.1738h.001c.8457 0 1.6276-.4465 2.0562-1.172 1.244-2.1067 3.537-3.5223 5.707-3.5223 2.1775 0 4.4772 1.4157 5.723 3.5234.443.7492 1.2315 1.1614 2.0907 1.171 1.3107-.0096 2.3694-1.071 2.3694-2.38.001-.1076-.0058-.2123-.02-.315zM69.8166 29.169c-2.8162 0-5.6295 1.2263-7.7632 3.273-2.1346-2.0467-4.9575-3.273-7.789-3.273-2.82 0-5.6362 1.2263-7.7727 3.273-2.1317-2.0467-4.9508-3.273-7.7765-3.273-2.8525 0-5.6916 1.2263-7.8338 3.273-2.126-2.0467-4.9222-3.273-7.7174-3.273-1.636 0-3.2705.4124-4.7703 1.156C21.1412 17.37 32.6972 7.616 46.491 7.616c13.7945 0 25.3524 9.754 28.1 22.7108-1.5037-.7454-3.139-1.1577-4.7743-1.1577z"/><g transform="translate(25.94 43.146)"><mask id="b" fill="#fff"><use xlink:href="#a"/></mask><path fill="#1E2225" d="M8.335 13.262c0-1.0176-.7794-1.5806-1.9052-1.9924l-.109-.043v4.006c1.2778-.217 2.0143-.953 2.0143-1.9706zM5.0434 4.7732c-1.0177.1735-1.8188.8017-1.8188 1.884 0 .563.13 1.3213 1.7106 1.906l.1083.043V4.773zm0 14.206v-1.7978c-2.3382-.13-3.963-1.4294-4.526-3.0747-.108-.2818.0436-.477.3036-.5418l1.1046-.303c.2595-.0647.433.0435.5406.3247.3683.8665 1.3212 1.5377 2.577 1.6677v-4.483l-.671-.2376C1.7085 9.689 1.0155 8.0214 1.0155 6.7226c0-2.2524 1.8406-3.6812 4.0277-3.8982V.8754c0-.281.1518-.4328.4335-.4328h.4112c.2812 0 .433.1518.433.433V2.846c1.9052.2172 3.2482 1.3213 3.7464 2.8584.0865.2817-.0435.4764-.3035.563l-1.039.3252c-.26.0865-.4335-.0218-.5417-.2818-.3465-.8876-.974-1.364-1.8624-1.516v4.2878l.7364.2818c2.317.714 3.486 2.2517 3.486 3.7894 0 2.2735-1.732 3.7682-4.2225 4.0276v1.7977c0 .2812-.1518.433-.433.433h-.4112c-.2817 0-.4335-.1518-.4335-.433z" mask="url(#b)"/></g><path fill="#1E2225" d="M18.9333 53.1378c1.6676 0 2.6853-1.1912 2.6853-2.8583 0-1.711-1.0394-2.9017-2.6853-2.9017H15.295v5.76h3.6383zm-.6494 1.8188h-2.989v4.916c0 .4975-.281.7793-.7788.7793h-.7364c-.4983 0-.7794-.282-.7794-.7795v-13.599c0-.4987.281-.78.7794-.78h5.6082c2.9235 0 4.6124 2.209 4.6124 4.786 0 2.2518-1.2995 4.136-3.5512 4.569.1517 1.6457 1.1694 4.114 2.8153 4.114.433 0 .801-.0865 1.104-.26.4766-.2165.8013-.1724 1.0395.2817l.1082.1953c.1947.433.173.8224-.2382 1.0824-.6494.4328-1.407.628-2.187.628-3.573 0-4.6554-4.1146-4.807-5.9334z"/></g></svg>