<svg xmlns="http://www.w3.org/2000/svg" width="45" height="45"><defs><linearGradient id="a" x1="0%" x2="99.9875%" y1="49.9979%" y2="49.9979%"><stop stop-color="#FFB247" offset="0%"/><stop stop-color="#FFCB33" offset="100%"/></linearGradient></defs><g fill="none" fill-rule="evenodd"><path fill="url(#a)" d="M18.75 45c10.3553 0 18.75-8.3948 18.75-18.75S29.1053 7.5 18.75 7.5C8.3948 7.5 0 15.8948 0 26.25S8.3948 45 18.75 45"/><path fill="#1E2225" d="M42.6922 27.7775l-3.1395 3.1395c-.1493.1477-.39.1484-.5393 0l-12.4192-12.42 3.678-3.6788 12.42 12.42c.1485.1485.1485.39 0 .5393M23.412 17.408c-.8168-.8176-3.7246-2.0168-5.7398 0l-.2805.2804c-.2775.2768-.3863.681-.285 1.0598.171.642-.0135 1.3313-.4808 1.7993L14.5326 22.64c-.1493.1485-.39.1492-.5393 0L9.8077 18.454c-.1485-.1485-.1485-.3908 0-.5392l2.0925-2.0925c.468-.4673 1.1572-.6525 1.8-.4808.378.0998.7822-.0083 1.059-.285l.2805-.2813c1.8675-1.866.9952-4.7137.954-4.8442-.045-.1372-.009-.2858.0922-.3878 8.3557-8.3542 16.206-8.0752 21.3202-6.3712.1777.0593.2857.2377.255.423-.0158.1005-.066.168-.1065.2085-.0413.0412-.132.1117-.2693.1117-5.5965 0-9.1185 1.6905-10.0642 2.2088-.2625.144-.4545.3877-.5325.6765-.0788.2888-.036.5963.1177.8528l2.4338 4.056c.0907.15.0667.342-.057.4665-.2063.2054-.3218.4852-.3218.7762 0 .0293.006.0585.0083.087l-4.062 4.062c-.027-.0015-.0525-.015-.0803-.015-.2805 0-.5617.1072-.7762.3217-.1493.1477-.39.1485-.5393 0M44.246 25.684L31.341 12.779c.2557-.7103.1927-1.518-.216-2.1998l-1.812-3.0195c1.4594-.609 4.1594-1.4468 7.9724-1.4468.6893 0 1.3365-.2693 1.8225-.7553.3854-.3855.636-.873.723-1.4108.2032-1.2548-.5243-2.457-1.7303-2.859-5.7015-1.8998-14.4195-2.2463-23.568 6.9014-.6908.6908-.9308 1.6966-.633 2.6078.0052.0165.4597 1.5667-.3023 2.502-1.1917-.1102-2.3917.3105-3.2505 1.1692l-2.0926 2.0933c-1.0057 1.005-1.0057 2.6408 0 3.6465l4.1858 4.1858c.486.4875 1.134.7552 1.8225.7552.6892 0 1.3365-.2677 1.8232-.7553l2.0932-2.0933c.8587-.858 1.2795-2.058 1.1692-3.2497.9158-.7395 2.289-.0893 2.5095.1102.7012.7012 1.791.93 2.697.6045l12.9044 12.9045c.5033.5025 1.1633.7545 1.824.7545.66 0 1.3208-.252 1.8233-.7545l3.1395-3.1395c1.005-1.005 1.005-2.6415 0-3.6465"/></g></svg>