<svg xmlns="http://www.w3.org/2000/svg" width="65" height="65"><defs><linearGradient id="a" x1="0%" x2="99.9875%" y1="49.9979%" y2="49.9979%"><stop stop-color="#FFB247" offset="0%"/><stop stop-color="#FFCB33" offset="100%"/></linearGradient></defs><g fill="none" fill-rule="evenodd"><path fill="url(#a)" d="M27.0833 54.1667c14.9576 0 27.0834-12.1258 27.0834-27.0834C54.1667 12.1257 42.041 0 27.0833 0 12.1257 0 0 12.1258 0 27.0833 0 42.041 12.1258 54.1667 27.0833 54.1667"/><path fill="#1E2225" d="M12.1875 10.8333c0-.7464-.6077-1.354-1.3542-1.354-1.0465 0-1.8958-.8495-1.8958-1.896s.8493-1.8958 1.8958-1.8958c2.8373 0 5.146 2.3086 5.146 5.1458 0 2.8373-2.3087 5.146-5.146 5.146-1.0465 0-1.8958-.8495-1.8958-1.896s.8493-1.8958 1.8958-1.8958c.7465 0 1.3542-.6077 1.3542-1.3542zM59.3125 42.25c0 2.8372-2.3086 5.1458-5.1458 5.1458-2.8373 0-5.146-2.3086-5.146-5.1458 0-1.0465.8495-1.8958 1.896-1.8958s1.8958.8493 1.8958 1.8958c0 .7464.6078 1.3542 1.3542 1.3542.7464 0 1.354-.6078 1.354-1.3542 0-1.0465.8495-1.8958 1.896-1.8958s1.8958.8493 1.8958 1.8958zM54.053 12.416c2.4093-1.7354 4.29-3.4016 5.7297-4.8522l1.093 6.5575-6.8228-1.7052zm-6.162 10.308l-5.4525-3.8166c2.2013-.949 4.2088-1.939 6.0158-2.9445l-.5634 6.761zm-15.8655 4.7775l-4.8338-3.7602c2.8935-.6392 5.577-1.3672 8.0632-2.1602l-3.2295 5.9205zM64.975 16.289L62.9158 3.9368c.4723-.65.727-1.0714.7832-1.171.5102-.882.208-2.0096-.674-2.5177-.8796-.508-2.004-.21-2.5154.6674-.1073.181-9.6038 15.7354-40.8222 20.4804-1.0064.1528-1.6997 1.092-1.546 2.0984.1388.9133.9242 1.5676 1.82 1.5676.0922 0 .1853-.0076.2796-.0216.7345-.1116 1.443-.2362 2.1547-.3586l9.0784 7.0612c.3262.2545.726.3878 1.1322.3878.1245 0 .2502-.013.3748-.038.5297-.1104.9847-.4473 1.2426-.923l5.3343-9.778 8.8464 6.1922c.3142.221.6847.3337 1.0573.3337.2655 0 .533-.0585.7822-.1744.598-.2805.9998-.859 1.055-1.5166l.8732-10.4802 10.5376 2.6347c.1474.0368.298.0552.4464.0552.4582 0 .9056-.1712 1.2512-.4897.456-.4214.6695-1.0443.5677-1.6575zM32.9746 60.3698l-3.2294-5.9193c2.4863.793 5.1697 1.521 8.0633 2.1602l-4.8338 3.759zM17.109 55.5923l-.5633-6.76c1.807 1.0054 3.8145 1.9945 6.0158 2.9435l-5.4524 3.8165zM4.1243 46.9907l1.093-6.5574c1.44 1.4505 3.3206 3.1167 5.73 4.8522l-6.823 1.7052zm41.1884 7.2735c-31.2184-4.745-40.715-20.2985-40.8222-20.4794-.5113-.8775-1.6358-1.1754-2.5155-.6684-.882.5092-1.1842 1.637-.674 2.5188.0564.0986.311.52.7833 1.171L.025 49.1585c-.102.612.1115 1.236.5676 1.6575.3456.3184.793.4885 1.2512.4885.1484 0 .299-.0173.4464-.0542l10.5375-2.6346.8732 10.48c.0552.6577.457 1.235 1.055 1.5157.2492.117.5168.1744.7822.1744.3727 0 .7432-.1126 1.0574-.3326L25.442 54.26l5.3344 9.7793c.258.4746.7128.8126 1.2426.922.1246.026.2503.039.3748.039.4063 0 .806-.1343 1.132-.3878l9.0785-7.0612c.7117.1224 1.4202.247 2.1547.3586.0943.014.1874.0217.2795.0217.896 0 1.6813-.6544 1.82-1.5676.1538-1.0065-.5395-1.9468-1.546-2.0995z"/></g></svg>