<svg xmlns="http://www.w3.org/2000/svg" width="80" height="80"><g fill="none" fill-rule="evenodd"><circle cx="26.5" cy="26.5" r="26.5" fill="#FFCB33"/><path fill="#1E2225" d="M32.476 51h15.768c1.404 0 2.16-.756 2.16-2.16v-1.584c0-1.404-.756-2.16-2.16-2.16h-2.556c-.144 0-3.204.072-4.824.252l-.036-.144 3.672-2.88c2.448-2.016 4.788-5.04 4.788-8.496 0-5.184-4.068-8.424-9.72-8.424-5.976 0-8.928 2.952-9.756 6.516-.324 1.404.576 2.232 2.016 2.232h2.808c1.26 0 1.62-.684 2.34-1.8.468-.684 1.26-1.044 2.412-1.044 1.512 0 2.808.828 2.808 2.268 0 1.872-1.296 3.24-3.204 4.932l-7.884 7.056c-.864.792-1.188 1.62-1.044 2.772l.108.684c.18 1.296.972 1.98 2.304 1.98z"/><path fill="#1E2225" d="M40 0C17.952 0 0 17.936 0 40s17.952 40 40 40 40-17.952 40-40S62.064 0 40 0zm0 74.352C21.056 74.352 5.648 58.944 5.648 40 5.648 21.056 21.056 5.648 40 5.648c18.944 0 34.336 15.408 34.336 34.352C74.352 58.944 58.944 74.352 40 74.352z"/></g></svg>