<svg xmlns="http://www.w3.org/2000/svg" viewBox="0 0 71.65 36"><defs><style>.a{fill:#fff;}.b{mask:url(#a);}</style><mask id="a" width="4.53" height="8.54" x="6.04" y="19.61" maskUnits="userSpaceOnUse"><path d="M6.04 28.15h4.53v-8.54H6.04v8.54z" class="a"/></mask></defs><path d="M65.08 15.78l.83-1.67 1.29-2.6a.29.29 0 0 0 0-.28.26.26 0 0 0-.22-.13l-4.76-.31-.12-1.86L61.9 6a.25.25 0 0 0-.14-.21.32.32 0 0 0-.27 0l-4.28 2.12-1-1.55-1.66-2.43a.27.27 0 0 0-.23-.13.28.28 0 0 0-.24.13l-2.64 4-1.67-.83-2.61-1.31a.35.35 0 0 0-.28 0 .26.26 0 0 0-.13.21l-.3 4.76-1.86.12-2.94.22a.29.29 0 0 0-.23.41l2.11 4.28-1.55 1-2.42 1.61a.28.28 0 0 0 0 .48l4 2.64-.83 1.67-1.29 2.61a.28.28 0 0 0 0 .28.26.26 0 0 0 .23.13l4.76.31.12 1.86.19 2.9a.26.26 0 0 0 .14.22.33.33 0 0 0 .27 0l4.28-2.11 1 1.55 1.6 2.41a.29.29 0 0 0 .24.13.28.28 0 0 0 .24-.13l2.65-4 1.67.83 2.59 1.28a.32.32 0 0 0 .14 0 .31.31 0 0 0 .14 0 .28.28 0 0 0 .14-.23l.31-4.76 1.86-.12 2.89-.18a.29.29 0 0 0 .23-.14.28.28 0 0 0 0-.27l-2.12-4.28 1.55-1 2.41-1.61a.31.31 0 0 0 .13-.27.25.25 0 0 0-.12-.2zm5.48.84a2.42 2.42 0 0 1 1.08 2 2.46 2.46 0 0 1-1.09 2l-2.47 1.65L69.41 25a2.45 2.45 0 0 1-2 3.54l-3 .19-.19 3A2.46 2.46 0 0 1 61.76 34a2.49 2.49 0 0 1-1.1-.26l-2.65-1.31-1.64 2.47a2.46 2.46 0 0 1-4.09 0l-1.63-2.46-2.66 1.31a2.49 2.49 0 0 1-2.34-.07 2.43 2.43 0 0 1-1.23-2l-.19-2.95-3-.19a2.46 2.46 0 0 1-2-3.54l1.31-2.66-2.47-1.64a2.46 2.46 0 0 1 0-4.09L40.54 15l-1.31-2.66a2.46 2.46 0 0 1 2-3.54l3-.19.19-3a2.43 2.43 0 0 1 1.22-2 2.53 2.53 0 0 1 2.32-.07l2.69 1.35 1.64-2.47a2.45 2.45 0 0 1 4.09 0l1.64 2.48 2.63-1.32a2.49 2.49 0 0 1 2.32.07 2.42 2.42 0 0 1 1.23 2l.19 2.95 3 .19a2.43 2.43 0 0 1 2 1.22 2.45 2.45 0 0 1 .08 2.31L68.1 15z" class="a"/><path d="M48.48 23.22a.32.32 0 0 1-.35-.44l.4-1.62h-1.29c-.27 0-.4-.18-.35-.45l.1-.41a.41.41 0 0 1 .45-.35h1.38l.68-2.69h-1.28a.33.33 0 0 1-.35-.45l.12-.41a.4.4 0 0 1 .44-.33h1.37l.4-1.52a.39.39 0 0 1 .44-.33h.44a.32.32 0 0 1 .35.44l-.36 1.42h1.71l.37-1.52a.41.41 0 0 1 .45-.33h.44c.28 0 .42.17.35.44l-.35 1.42h1.27c.28 0 .41.17.35.45l-.1.4a.41.41 0 0 1-.45.35h-1.38l-.68 2.69h1.29c.28 0 .42.17.35.45l-.1.41a.41.41 0 0 1-.45.35h-1.37l-.44 1.71a.42.42 0 0 1-.44.35h-.45c-.28 0-.42-.17-.35-.44l.41-1.62h-1.71l-.44 1.71a.4.4 0 0 1-.44.35zm1.61-3.27h1.71l.66-2.69h-1.71zm9.18 3.27h.58a.49.49 0 0 0 .54-.54v-7.93c0-.35-.17-.54-.46-.54a1.74 1.74 0 0 0-.76.14l-2.36 1.07a.54.54 0 0 0-.31.71l.09.28a.47.47 0 0 0 .7.32l1.44-.63v6.58a.49.49 0 0 0 .54.54zM30.14 16.17a15.07 15.07 0 0 0-14-14.84v-.26a1.075 1.075 0 0 0-2.15 0v.26a15.07 15.07 0 0 0-14 15 1.07 1.07 0 0 0 2 .54 3.15 3.15 0 0 1 2.57-1.58 3.09 3.09 0 0 1 2.55 1.58 1.07 1.07 0 0 0 .93.53 1.07 1.07 0 0 0 .93-.53 3.22 3.22 0 0 1 2.6-1.58A3.11 3.11 0 0 1 14 16.66v15a4.39 4.39 0 0 0 8.78 0 1.075 1.075 0 0 0-2.15 0 2.24 2.24 0 0 1-4.48 0v-15a3.11 3.11 0 0 1 2.42-1.37 3.15 3.15 0 0 1 2.58 1.58 1.07 1.07 0 0 0 .93.53 1.07 1.07 0 0 0 .93-.53 3.15 3.15 0 0 1 2.57-1.59 3.16 3.16 0 0 1 2.58 1.59 1.09 1.09 0 0 0 .94.53 1.07 1.07 0 0 0 1.07-1.07 1 1 0 0 0-.03-.16zm-4.57-3a5.13 5.13 0 0 0-3.49 1.47 4.9 4.9 0 0 0-7 0 5.13 5.13 0 0 0-3.5-1.47 5.18 5.18 0 0 0-3.53 1.43 5.09 5.09 0 0 0-3.47-1.47 4.85 4.85 0 0 0-2.15.52 12.93 12.93 0 0 1 25.29 0 4.86 4.86 0 0 0-2.15-.52z" class="a"/><path d="M9.57 25.38c0-.46-.35-.71-.86-.9v1.8c.57-.1.91-.43.91-.89zm-1.48-3.82a.87.87 0 0 0-.82.85c0 .25.06.59.77.86zm0 6.39v-.81a2.17 2.17 0 0 1-2-1.38.17.17 0 0 1 .14-.24l.5-.14c.12 0 .19 0 .24.15a1.37 1.37 0 0 0 1.16.75v-2l-.3-.11c-1.2-.38-1.51-1.13-1.51-1.72a1.83 1.83 0 0 1 1.81-1.75v-.88a.18.18 0 0 1 .2-.19h.19a.17.17 0 0 1 .19.19v.89A1.91 1.91 0 0 1 10.35 22a.19.19 0 0 1-.14.25l-.47.15a.18.18 0 0 1-.24-.13 1 1 0 0 0-.84-.68v1.91l.33.13a1.92 1.92 0 0 1 1.57 1.71 1.87 1.87 0 0 1-1.91 1.81V28a.17.17 0 0 1-.19.19h-.19a.18.18 0 0 1-.2-.19z" class="b a"/><path d="M2.65 23.91a1.18 1.18 0 0 0 1.21-1.29 1.19 1.19 0 0 0-1.21-1.3H1.03v2.59zm-.29.82H1.03v2.21a.32.32 0 0 1-.35.35H.35a.32.32 0 0 1-.35-.35v-6.12a.32.32 0 0 1 .35-.35h2.52a2 2 0 0 1 2.08 2.16 2 2 0 0 1-1.6 2.06c.07.74.53 1.85 1.27 1.85a1 1 0 0 0 .5-.12c.21-.1.36-.08.47.13v.09a.35.35 0 0 1-.11.49 1.76 1.76 0 0 1-1 .28c-1.61 0-2.09-1.85-2.16-2.67z" class="a"/></svg>