<?xml version="1.0" encoding="UTF-8"?>
<svg width="50px" height="24px" viewBox="0 0 50 24" version="1.1" xmlns="http://www.w3.org/2000/svg" xmlns:xlink="http://www.w3.org/1999/xlink">
    <!-- Generator: Sketch 41.2 (35397) - http://www.bohemiancoding.com/sketch -->
    <title>icon-reviews</title>
    <desc>Created with Sketch.</desc>
    <defs>
        <path d="M16,7.99508929 C16,6.8932319 16.8970262,6 18.0049466,6 L40,6 L50,9.09494702e-13 L50,6 L50,22.0049107 C50,23.1067681 49.1080589,24 48.0000796,24 L17.9999204,24 C16.8953949,24 16,23.1073772 16,22.0049107 L16,7.99508929 Z" id="path-1"></path>
        <mask id="mask-2" maskContentUnits="userSpaceOnUse" maskUnits="objectBoundingBox" x="0" y="0" width="34" height="24" fill="white">
            <use xlink:href="#path-1"></use>
        </mask>
    </defs>
    <g id="Desktop" stroke="none" stroke-width="1" fill="none" fill-rule="evenodd">
        <g id="Desktop-Needor-Worbbior-Profile" transform="translate(-735.000000, -581.000000)">
            <g id="Group-15-Copy" transform="translate(175.000000, 282.000000)">
                <g id="Group-14" transform="translate(510.000000, 287.000000)">
                    <g id="Group-7" transform="translate(10.000000, 12.000000)">
                        <g id="icon-reviews-selected" transform="translate(40.000000, 0.000000)">
                            <g id="icon-reviews">
                                <path d="M9.36955554,15 L21.9941413,15 C21.9984353,15 22,1.99919648 22,1.99919648 C21.999286,1.99963122 2.00494659,2 2.00494659,2 C2.00082398,2 2,20.1586889 2,20.1586889 L9.36955554,15 Z M19.9970707,17 L10,17 L0,24 L3.19744231e-14,2.00010618 C3.55271368e-14,0.895478039 0.897026226,-7.10542736e-15 2.00494659,0 L21.9950534,2.52242671e-13 C23.1023548,2.66453526e-13 24,0.886886902 24,1.99810135 L24,11.4983274 L24,8 L22,8 L22,15 L18,15 L18,17 L19.9970707,17 L19.9970707,17 Z" id="Combined-Shape" fill="#FFCB33"></path>
                                <use id="Rectangle-4" stroke="#FFCB33" mask="url(#mask-2)" stroke-width="4" xlink:href="#path-1"></use>
                                <rect id="Rectangle-13" fill="#FFCB33" x="6" y="6" width="6" height="2"></rect>
                                <rect id="Rectangle-13" fill="#FFCB33" x="22" y="16" width="22" height="2"></rect>
                                <rect id="Rectangle-13" fill="#FFCB33" x="22" y="12" width="8" height="2"></rect>
                            </g>
                        </g>
                    </g>
                </g>
            </g>
        </g>
    </g>
</svg>