<svg xmlns="http://www.w3.org/2000/svg" width="65" height="65" viewBox="0 0 120 120"><defs><linearGradient id="a" x1="0%" x2="99.9875%" y1="49.9979%" y2="49.9979%"><stop stop-color="#FFB247" offset="0%"/><stop stop-color="#FFCB33" offset="100%"/></linearGradient></defs><g fill="none" fill-rule="evenodd"><path fill="url(#a)" d="M70 100c27.614 0 50-22.386 50-50S97.614 0 70 0 20 22.386 20 50s22.386 50 50 50"/><path fill="#1E2225" d="M21.9122 57.3838c-4.92 0-8.904-3.984-8.904-8.904s3.984-8.904 8.904-8.904 8.904 4.008 8.904 8.904-4.008 8.904-8.904 8.904m9.984 2.424c3.144-2.784 5.16-6.816 5.16-11.352 0-8.352-6.792-15.144-15.144-15.144s-15.144 6.792-15.144 15.144c0 4.512 1.992 8.568 5.136 11.352-7.056 3.648-11.904 10.992-11.904 19.464 0 6 2.448 11.688 6.768 15.816v21.744c0 1.728 1.392 3.12 3.12 3.12 1.728 0 3.12-1.392 3.12-3.12v-23.136c0-.936-.408-1.8-1.128-2.4-3.576-2.976-5.64-7.344-5.64-12 0-8.64 7.032-15.672 15.672-15.672s15.672 7.032 15.672 15.672c0 4.656-2.064 9.048-5.64 12.048-.72.6-1.128 1.464-1.128 2.4v23.136c0 1.728 1.392 3.12 3.12 3.12 1.728 0 3.12-1.392 3.12-3.12v-21.744c4.32-4.128 6.768-9.816 6.768-15.816-.024-8.52-4.872-15.864-11.928-19.512M104.8564 79.0556c-4.92 0-8.904-3.984-8.904-8.904s4.008-8.904 8.904-8.904c4.92 0 8.904 4.008 8.904 8.904 0 4.92-3.984 8.904-8.904 8.904m9.096 3.192c3.672-2.76 6.048-7.152 6.048-12.072 0-8.352-6.792-15.144-15.144-15.144s-15.144 6.792-15.144 15.144c0 4.944 2.376 9.312 6.048 12.072-3.408 2.688-5.592 6.84-5.592 11.496 0 3.864 1.512 7.512 4.152 10.224v12.888c0 1.728 1.392 3.12 3.12 3.12 1.728 0 3.12-1.392 3.12-3.12v-14.232c0-.936-.408-1.8-1.128-2.4-1.944-1.608-3.048-3.984-3.048-6.48 0-4.656 3.792-8.448 8.448-8.448 4.656 0 8.448 3.792 8.448 8.448 0 2.52-1.104 4.872-3.048 6.48-.72.6-1.128 1.464-1.128 2.4v14.232c0 1.728 1.392 3.12 3.12 3.12 1.728 0 3.12-1.392 3.12-3.12v-12.888c2.664-2.736 4.152-6.384 4.152-10.224.048-4.656-2.16-8.808-5.544-11.496M67.128 63.7442c-4.92 0-8.904-4.008-8.904-8.904 0-4.92 3.984-8.904 8.904-8.904s8.904 4.008 8.904 8.904c.024 4.92-3.984 8.904-8.904 8.904m9.792 2.616c3.264-2.784 5.352-6.912 5.352-11.52 0-8.352-6.792-15.144-15.144-15.144s-15.144 6.792-15.144 15.144c0 4.608 2.088 8.736 5.352 11.52-5.952 3.408-9.984 9.816-9.984 17.16 0 5.184 2.016 10.104 5.592 13.776l-5.472 18.672c-.48 1.656.456 3.384 2.112 3.864 1.656.48 3.384-.456 3.864-2.112l6-20.52c.36-1.2-.048-2.472-.984-3.264-3.096-2.592-4.872-6.384-4.872-10.416 0-7.464 6.072-13.536 13.56-13.536 7.464 0 13.56 6.072 13.56 13.536 0 4.032-1.776 7.824-4.872 10.416-.96.792-1.344 2.088-.984 3.264l6 20.52c.408 1.368 1.632 2.232 3 2.232.288 0 .576-.048.864-.12 1.656-.48 2.592-2.208 2.112-3.864l-5.496-18.672c3.576-3.672 5.592-8.592 5.592-13.776 0-7.32-4.032-13.728-10.008-17.16"/></g></svg>