<svg xmlns="http://www.w3.org/2000/svg" width="65" height="65"><defs><linearGradient id="a" x1="0%" x2="99.9875%" y1="49.9979%" y2="49.9979%"><stop stop-color="#FFB247" offset="0%"/><stop stop-color="#FFCB33" offset="100%"/></linearGradient></defs><g fill="none" fill-rule="evenodd"><path fill="url(#a)" d="M37.9167 54.1667C52.8743 54.1667 65 42.041 65 27.0833 65 12.1257 52.8743 0 37.9167 0 22.959 0 10.8333 12.1258 10.8333 27.0833c0 14.9576 12.1258 27.0834 27.0834 27.0834"/><path fill="#1E2225" d="M41.3006 24.7584c-1.1895 0-2.1548.9544-2.1548 2.132s.9653 2.132 2.1548 2.132c1.1895 0 2.1547-.9544 2.1547-2.132s-.9652-2.132-2.1547-2.132m6.749.4312c-.6065-4.457-3.211-6.563-7.7424-6.2628-6.1588.4095-13.2005 5.1545-14.2188 8.4446 4.4146 2.3172 8.1207.1582 8.1673.13.8883-.5395 2.0485-.26 2.5924.6186.545.8786.2666 2.0323-.6207 2.5707-2.9304 1.78-10.127 3.34-16.3886-3.525-3.378-3.702-5.9237-5.275-8.0362-4.9976-2.263.297-4.6854 2.976-7.1977 7.865-1.4592 2.8428-.637 4.093-.3672 4.5285C6.246 37.794 14.4296 39 19.0782 39h.0032c1.04 0 1.884.5914 1.886 1.6206.0033 1.0302-.8373 1.6293-1.8784 1.6293h-.0596c-.4593 0-1.7106.1353-3.3616.003 3.185 5.938 1.8135 13.44.9707 16.6456 1.9186.8634 5.8402 2.3335 10.6773 2.3335 4.8783 0 8.7826-1.416 10.6882-2.2782-.7323-2.8416-1.9056-9.0252-.079-14.3964-.61.1484-1.196.2676-1.741.3456-.091.013-.182.0216-.272.0216-.9218 0-1.7278-.6673-1.8633-1.5968-.1484-1.0183.5634-1.963 1.5915-2.1125.2524-.0368 2.8924-.4615 5.6896-2.001.0834-.0573.1712-.1017.261-.144 3.678-2.1114 7.5087-6.1847 6.459-13.8807m-4.562 17.1383c-5.2097 5.6126-1.496 16.903-1.457 17.019.2794.8288-.0607 1.7388-.818 2.1895C40.9745 61.6773 35.287 65 27.3158 65c-7.971 0-13.6586-3.3227-13.897-3.4635-.7637-.454-1.1028-1.376-.8114-2.209.038-.1104 3.8328-11.325-1.7745-17.3105-.0965-.104-.1767-.2167-.245-.3337-3.7656-.794-7.7317-2.3205-9.5603-5.2596-1.0043-1.6152-1.7832-4.289.2166-8.1802 3.1959-6.2205 6.394-9.3416 10.062-9.8237 4.473-.5817 8.4067 3.016 11.3306 6.2205.1288.142.2588.2546.3888.3868 2.562-4.9508 10.5636-9.3946 17.029-9.8236 6.5736-.4344 10.8506 3.0214 11.7324 9.4867 1.261 9.2605-3.2803 14.739-8.2994 17.638m-15.667 14.679c.3834.7963.042 1.7507-.7628 2.131-.7453.352-1.5795.4875-2.4202.4875-2.5794 0-5.228-1.2697-5.6073-1.4582-.7974-.3976-1.119-1.3585-.7183-2.1472.401-.7885 1.3704-1.106 2.1678-.7116 1.458.7204 4.03 1.4874 5.186.9436.8037-.3814 1.77-.0423 2.1547.755"/></g></svg>