<svg xmlns="http://www.w3.org/2000/svg" width="45" height="46"><g fill="none" fill-rule="evenodd"><path fill="#FC3" d="M18.75 38.3333c10.3553 0 18.75-8.5813 18.75-19.1666C37.5 8.5813 29.1053 0 18.75 0 8.3948 0 0 8.5813 0 19.1667 0 29.752 8.3948 38.3333 18.75 38.3333"/><path fill="#1E2225" d="M33.266 34.0145H11.7325v-10.238H33.266v10.238zm1.17-12.6385H10.5535c-.6472 0-1.17.5336-1.17 1.196v12.6385c0 .6624.5228 1.196 1.17 1.196H34.436c.647 0 1.169-.5336 1.169-1.196V22.572c0-.6624-.522-1.196-1.169-1.196zM4.003 43.6085l3.6174-3.6976H37.351l3.6174 3.6975H4.003zm4.3096-6.0988H36.667V20.2904H8.3127v17.2193zm36.336 6.4484l-5.6242-5.749V19.086c0-.6625-.522-1.196-1.1693-1.196H7.1435c-.648 0-1.17.5335-1.17 1.196v19.123L.341 43.958c-.333.3405-.432.865-.252 1.3058.18.4423.612.736 1.088.736h42.6436c.477 0 .9-.2937 1.089-.736.189-.441.072-.9653-.261-1.3057z"/></g></svg>