<svg xmlns="http://www.w3.org/2000/svg" width="80" height="80"><g fill="none" fill-rule="evenodd"><circle cx="53.5" cy="26.5" r="26.5" fill="#FFCB33"/><path fill="#1E2225" d="M38.866 51.396c7.524 0 11.376-3.96 11.376-9.036 0-4.14-2.88-6.48-6.336-6.948-.432-.072-.9-.108-1.368-.108l5.544-4.428c.792-.648 1.152-1.368 1.152-2.412v-.684c0-1.26-.72-1.98-1.98-1.98H32.602c-1.26 0-1.98.72-1.98 1.98v1.944c0 1.26.72 1.98 1.98 1.98h6.948l-4.392 3.24c-1.008.72-1.188 1.692-.54 2.736l.36.54c.612.972 1.44 1.188 2.592.972.576-.108 1.08-.144 1.62-.144 2.088 0 3.708 1.044 3.708 3.024 0 1.944-1.548 3.456-4.752 3.456-.972 0-2.268-.144-4.212-1.044-1.152-.576-2.052-.432-2.772.576l-1.044 1.44c-.72 1.008-.684 2.088.396 2.772 2.52 1.584 5.58 2.124 8.352 2.124z"/><path fill="#1E2225" d="M40 0C17.952 0 0 17.936 0 40s17.952 40 40 40 40-17.952 40-40S62.064 0 40 0zm0 74.352C21.056 74.352 5.648 58.944 5.648 40 5.648 21.056 21.056 5.648 40 5.648c18.944 0 34.336 15.408 34.336 34.352C74.352 58.944 58.944 74.352 40 74.352z"/></g></svg>