<svg xmlns="http://www.w3.org/2000/svg" width="50" height="24"><g fill="#FFF" fill-rule="evenodd"><path d="M16.9406 16.2717c-.0953-.0672-.9532-.7392-.9532-2.2945 0-.0528-.0212-.096-.0318-.144.9533-.984 1.361-2.165 1.504-2.6977.4607-1.709.3495-4.4162.339-4.5698-.0583-.5376-.1484-1.0512-.2702-1.5217 1.7105-2.7985.0742-4.7137.0053-4.7953-.2012-.2305-.556-.312-.8526-.1968-.0157.0047-1.488.5423-4.8506.5423l-.8738-.0048c-1.6258 0-3.4474.1248-4.4907 1.5888-.9956 1.4017-.4873 3.7922-.3125 4.4738-.016.384-.0847 2.8754.3442 4.4835.1483.5424.5666 1.7425 1.5463 2.736-.0053.0337-.0212.0673-.0212.1057 0 1.5313-.8314 2.208-.9373 2.2897C.2012 19.9533 0 23.0015 0 23.3375c0 .36.3177.648.715.6576h.0158c.392 0 .715-.288.7308-.6432 0-.024.196-2.549 6.09-5.794l.4818 1.4258c.0212.0864.5614 2.1313 3.9664 2.1313 3.1403 0 3.797-1.6416 3.8976-1.968l.5454-1.5937c5.841 3.2066 6.09 5.722 6.0953 5.794.0107.36.3337.6527.731.6527.4023 0 .7307-.2976.7307-.6624.0106-.336-.1854-3.365-7.059-7.066zM7.6998 2.8937c.5825-.821 1.6363-.9794 3.2568-.9794l.8738.0048c2.4518 0 4.0034-.2687 4.7925-.4607.2488.5424.4924 1.632-.466 3.096-.2172.2785-1.393.7154-3.2093.7538-1.271.029-2.383-.1535-2.976-.4896-.1695-.096-.376-.1248-.5667-.0816-.1907.0432-.36.1584-.4554.3168-.0053.0096-.4555.6673-1.451.869-.18-.8834-.3125-2.309.2012-3.029zm6.789 15.9125c-.0106.0384-.323.9792-2.4837.9792-2.1817 0-2.526-1.0608-2.5524-1.1424l-.7254-2.141c.2753-.3935.54-.936.6672-1.6464.6937.341 1.541.5665 2.579.5665 1.059 0 1.917-.2303 2.6213-.5856.127.72.397 1.272.6725 1.6705l-.7784 2.2992zm-2.505-4.709c-2.87 0-3.7915-2.2897-4.0563-3.2737-.2912-1.08-.323-2.7073-.3124-3.5714 1.054-.1583 1.7688-.6527 2.1766-1.0415.8314.3024 1.9593.456 3.1932.4224 1.0962-.024 2.346-.197 3.2727-.576.0318.1967.0688.3983.09.6 0 .024.106 2.6352-.3018 4.1665-.27.9792-1.1968 3.2737-4.0618 3.2737z"/><path stroke="#FFF" stroke-width="2" d="M28 14h21M28 9h21M28 4h13" stroke-linecap="round"/></g></svg>