<svg xmlns="http://www.w3.org/2000/svg" width="40" height="40"><defs><linearGradient id="a" x1="0%" x2="99.9875%" y1="49.9979%" y2="49.9979%"><stop stop-color="#FFB247" offset="0%"/><stop stop-color="#FFCB33" offset="100%"/></linearGradient></defs><g fill="none" fill-rule="evenodd"><circle cx="26.8" cy="13.2" r="13.2" fill="url(#a)"/><path fill="#1E2225" d="M28 37.6c5.302 0 9.6-4.298 9.6-9.6s-4.298-9.6-9.6-9.6-9.6 4.298-9.6 9.6 4.298 9.6 9.6 9.6zm0 2.4c-6.6274 0-12-5.3726-12-12s5.3726-12 12-12 12 5.3726 12 12-5.3726 12-12 12zM1.2 2.4H24c.6627 0 1.2-.5373 1.2-1.2S24.6627 0 24 0H1.2C.5373 0 0 .5373 0 1.2s.5373 1.2 1.2 1.2zM1.2 7.9H24c.6627 0 1.2-.5373 1.2-1.2s-.5373-1.2-1.2-1.2H1.2C.5373 5.5 0 6.0373 0 6.7s.5373 1.2 1.2 1.2zM1.2 13.9H11c.6627 0 1.2-.5373 1.2-1.2s-.5373-1.2-1.2-1.2H1.2c-.6627 0-1.2.5373-1.2 1.2s.5373 1.2 1.2 1.2zM1.2 18.9H6c.6627 0 1.2-.5373 1.2-1.2s-.5373-1.2-1.2-1.2H1.2c-.6627 0-1.2.5373-1.2 1.2s.5373 1.2 1.2 1.2z"/><path fill="#1E2225" d="M24.96 28.08c-.3976-.5302-1.1498-.6376-1.68-.24-.5302.3976-.6376 1.1498-.24 1.68l2.4 3.2c.49.6532 1.475.637 1.943-.0318l5.6-8c.38-.543.248-1.2912-.2948-1.6713-.543-.38-1.2912-.248-1.6713.2948l-4.6505 6.6435L24.96 28.08z"/></g></svg>