<svg xmlns="http://www.w3.org/2000/svg" width="80" height="80"><defs><linearGradient id="a" x1="0%" x2="99.9875%" y1="49.9979%" y2="49.9979%"><stop stop-color="#FFB247" offset="0%"/><stop stop-color="#FFCB33" offset="100%"/></linearGradient></defs><g fill="none" fill-rule="evenodd"><path fill="url(#a)" d="M13.8562 46.536c0 18.0483 14.6314 32.6797 32.6797 32.6797 18.0483 0 32.6797-14.6314 32.6797-32.6798S64.5843 13.856 46.536 13.856 13.856 28.4876 13.856 46.536"/><path fill="#1E2225" d="M33.464 61.268c-15.3333 0-27.804-12.4706-27.804-27.804C5.66 18.1308 18.1308 5.66 33.464 5.66c15.3334 0 27.804 12.4707 27.804 27.804 0 15.3334-12.4706 27.804-27.804 27.804m0-60.4837C15.438.7843.7844 15.438.7844 33.464S15.438 66.144 33.464 66.144 66.144 51.4902 66.144 33.464C66.1438 15.438 51.4902.7844 33.464.7844"/><path fill="#1E2225" d="M35.9086 32.4575v-20c0-1.3464-1.098-2.4444-2.4444-2.4444-1.3464 0-2.4445 1.098-2.4445 2.4445V33.464c0 .6406.2615 1.268.719 1.7255l12 12c.4706.4706 1.098.719 1.7255.719.6274 0 1.255-.2353 1.7255-.719.9542-.9542.9542-2.4967 0-3.451l-11.281-11.281z"/></g></svg>