<svg xmlns="http://www.w3.org/2000/svg" width="80" height="80"><g fill="none" fill-rule="evenodd"><circle cx="53.5" cy="53.5" r="26.5" fill="#FFCB33"/><path fill="#1E2225" d="M78.1798 25.9954c-.2035-.684-.7513-1.2126-1.44-1.3992l-6.495-1.6324c-1.5338-4.6797-5.9786-7.9602-11.0338-7.9602-3.4745 0-6.73 1.5236-8.8897 4.12l-3.7718 4.1666-4.351-21.6882c-.125-.622-.532-1.1505-1.111-1.4148-.5792-.2643-1.2522-.2487-1.8156.0467-.548.2953-12.3643 6.763-14.978 17.988L5.4504 3.2654c-.4695-.373-1.0955-.513-1.6902-.3886-.5948.1242-1.0956.513-1.3617 1.057-.094.1866-9.453 19.4962 9.453 38.4015 3.0207 3.016 6.151 5.146 9.2028 6.6542l-17.701 8.1466c-.6574.2954-1.0956.9173-1.1582 1.6325-.0625.7152.2505 1.3992.8452 1.8035L23.1046 74.627c.3443.233.7512.373 1.158.373.1566 0 .2975-.0155.454-.0466.5634-.1244 1.033-.482 1.3147-.9795l7.9662-14.319c4.163.1555 16.9968.031 23.7423-6.6697 5.4465-5.4104 5.3683-11.707 4.1788-15.625 9.4844-3.0782 15.51-9.1416 15.7917-9.4215.485-.513.673-1.2593.4695-1.9434zM38.8336 5.2556l4.3666 21.7504-3.2867 3.6225L27.878 21.067c.7826-7.6803 7.3403-13.2928 10.9556-15.8114zM58.7102 34.142c-.5948.1556-1.0956.5754-1.3303 1.135-.2506.5598-.2193 1.2128.078 1.7414.0314.0622 3.6937 6.934-2.551 13.1373-6.636 6.592-21.739 5.457-21.8798 5.4415-.7826-.0622-1.5338.342-1.925 1.026l-7.4968 13.464L8.2206 59.3128l17.9985-8.3022c3.584 1.0727 6.855 1.3837 9.4062 1.3837 3.1302 0 5.1648-.451 5.3995-.513 1.08-.2488 1.7373-1.3216 1.487-2.3943-.2505-1.0728-1.346-1.7413-2.4104-1.4926-.36.0778-6.1507 1.306-13.303-.995-.0158 0-.0158 0-.0314-.0155-3.8346-1.2437-8.0447-3.4825-12.0513-7.478C1.4437 26.244 3.4784 13.2933 5.0905 8.085L48.365 42.4754c.8608.684 2.1285.5442 2.817-.311.6888-.855.548-2.1143-.313-2.7984l-7.8253-6.219 10.314-11.3804c1.4398-1.7412 3.584-2.7363 5.8376-2.7363 3.584 0 6.7142 2.5342 7.4342 6.0168.1565.7463.7356 1.3527 1.4712 1.5392l3.897.9795c-2.7545 2.0833-7.4185 5.0528-13.2875 6.5764z"/></g></svg>