<?xml version="1.0" encoding="UTF-8"?>
<svg width="50px" height="24px" viewBox="0 0 50 24" version="1.1" xmlns="http://www.w3.org/2000/svg" xmlns:xlink="http://www.w3.org/1999/xlink">
    <!-- Generator: Sketch 42 (36781) - http://www.bohemiancoding.com/sketch -->
    <title>icon-documents-selected</title>
    <desc>Created with Sketch.</desc>
    <defs>
        <path d="M19.03479,0 L32.9941608,0 C34.1019552,0 35,0.897026226 35,2.00494659 L35,21.9950534 C35,23.1023548 34.1017876,24 33.0092049,24 L16.9907951,24 C15.8913093,24 15,23.1040408 15,21.9957925 L15,4.0501709 L19.03479,0 Z" id="path-1"></path>
        <mask id="mask-2" maskContentUnits="userSpaceOnUse" maskUnits="objectBoundingBox" x="0" y="0" width="20" height="24" fill="white">
            <use xlink:href="#path-1"></use>
        </mask>
    </defs>
    <g id="Symbols" stroke="none" stroke-width="1" fill="none" fill-rule="evenodd">
        <g id="icon-documents-selected">
            <g>
                <use id="Rectangle-4" stroke="#FFFFFF" mask="url(#mask-2)" stroke-width="4" xlink:href="#path-1"></use>
                <polygon id="Rectangle" fill="#FFFFFF" points="20 0 20 5 15 5"></polygon>
                <rect id="Rectangle-7" fill="#FFFFFF" x="27" y="5" width="4" height="4"></rect>
                <rect id="Rectangle-3" fill="#FFFFFF" x="19" y="11" width="12" height="2"></rect>
                <rect id="Rectangle-3" fill="#FFFFFF" x="0" y="11" width="12" height="2" rx="1"></rect>
                <rect id="Rectangle-3-Copy" fill="#FFFFFF" x="38" y="11" width="12" height="2" rx="1"></rect>
                <rect id="Rectangle-3" fill="#FFFFFF" transform="translate(9.000000, 16.000000) rotate(-15.000000) translate(-9.000000, -16.000000) " x="6" y="15" width="6" height="2" rx="1"></rect>
                <rect id="Rectangle-3-Copy-2" fill="#FFFFFF" transform="translate(41.000000, 16.000000) rotate(-345.000000) translate(-41.000000, -16.000000) " x="38" y="15" width="6" height="2" rx="1"></rect>
                <rect id="Rectangle-3" fill="#FFFFFF" transform="translate(9.000000, 8.000000) rotate(-345.000000) translate(-9.000000, -8.000000) " x="6" y="7" width="6" height="2" rx="1"></rect>
                <rect id="Rectangle-3-Copy-3" fill="#FFFFFF" transform="translate(41.000000, 8.000000) rotate(-15.000000) translate(-41.000000, -8.000000) " x="38" y="7" width="6" height="2" rx="1"></rect>
            </g>
        </g>
    </g>
</svg>