<svg xmlns="http://www.w3.org/2000/svg" width="50" height="24" xmlns:xlink="http://www.w3.org/1999/xlink"><defs><path id="a" d="M16 7.995C16 6.8933 16.897 6 18.005 6H40l10-6v22.005C50 23.1067 49.108 24 48 24H18c-1.1046 0-2-.8926-2-1.995V7.995z"/><mask id="b" width="34" height="24" x="0" y="0" fill="#fff"><use xlink:href="#a"/></mask></defs><g fill="none" fill-rule="evenodd"><path fill="#FFCB33" d="M9.3696 15H21.994C21.9985 15 22 1.9992 22 1.9992 21.9993 1.9996 2.005 2 2.005 2 2.0007 2 2 20.1587 2 20.1587L9.3696 15zm10.6275 2H10L0 24V2C0 .8956.897 0 2.005 0h19.99C23.1025 0 24 .887 24 1.998v9.5003V8h-2v7h-4v2h1.997z"/><use stroke="#FFCB33" stroke-width="4" mask="url(#b)" xlink:href="#a"/><path fill="#FFCB33" d="M6 6h6v2H6zM22 16h22v2H22zM22 12h8v2h-8z"/></g></svg>