<svg xmlns="http://www.w3.org/2000/svg" width="90" height="90" xmlns:xlink="http://www.w3.org/1999/xlink"><defs><path id="a" d="M3.226 4.5732V.3376H.1876v4.2356z"/><linearGradient id="c" x1="0%" x2="99.9875%" y1="49.9979%" y2="49.9979%"><stop stop-color="#FFB247" offset="0%"/><stop stop-color="#FFCB33" offset="100%"/></linearGradient></defs><g fill="none" fill-rule="evenodd"><circle cx="60" cy="60" r="30" fill="#FFF"/><path fill="#FFB247" d="M54.333 70.5232c-.04.144-1.2115 3.6722-9.3138 3.6722-8.1817 0-9.4725-3.9782-9.5718-4.2842l-2.7206-8.0283c1.0327-1.4762 2.0256-3.5103 2.5022-6.1744 2.6014 1.278 5.7788 2.124 9.671 2.124 3.9718 0 7.189-.864 9.83-2.196.4766 2.7 1.4894 4.7702 2.522 6.2643l-2.919 8.6222zM28.8742 10.851c2.1844-3.0783 6.1362-3.6723 12.213-3.6723l3.2766.018c9.1944 0 15.013-1.008 17.9718-1.728.9334 2.034 1.847 6.1202-1.7475 11.6104-.8142 1.0442-5.2228 2.6822-12.0343 2.8262-4.766.108-8.9363-.576-11.1604-1.836-.6355-.36-1.41-.468-2.125-.306-.7148.162-1.3503.594-1.7077 1.188-.02.036-1.708 2.502-5.4414 3.258-.675-3.312-1.1716-8.6582.7547-11.3583zm16.0655 42.0135c-10.7633 0-14.2187-8.5863-15.2116-12.2765-1.0922-4.05-1.2114-10.1524-1.1717-13.3925 3.952-.594 6.6328-2.448 8.162-3.906 3.1177 1.134 7.3475 1.71 11.9746 1.584 4.1108-.09 8.7974-.738 12.2726-2.1602.1192.738.2582 1.494.3376 2.25 0 .09.3972 9.8825-1.132 15.6247-1.0127 3.6722-4.488 12.2765-15.2314 12.2765zm3.0918-10.305c-.734.2935-1.8482.4718-3.0316.4718s-2.2975-.1783-3.0316-.472c-.1616-.0646-.287-.1277-.3738-.1803-.177-1.066-1.1033-1.879-2.2196-1.879-1.2426 0-2.25 1.0074-2.25 2.25 0 6.375 15.75 6.375 15.75 0 0-1.2426-1.0074-2.25-2.25-2.25-1.1163 0-2.0427.813-2.2196 1.879-.0868.0526-.2122.1157-.3738.1804zM38.25 36c1.864 0 3.375-1.511 3.375-3.375s-1.511-3.375-3.375-3.375-3.375 1.511-3.375 3.375S36.386 36 38.25 36zm13.5 0c1.864 0 3.375-1.511 3.375-3.375s-1.511-3.375-3.375-3.375-3.375 1.511-3.375 3.375S49.886 36 51.75 36zm11.7774 25.019c-.3575-.2522-3.5746-2.7723-3.5746-8.6045 0-.198-.0794-.36-.119-.54 3.5744-3.6902 5.1035-8.1183 5.6397-10.1164 1.7277-6.4082 1.3106-16.5606 1.271-17.1366-.2185-2.016-.556-3.942-1.013-5.7062 6.4144-10.4944.2782-17.6767.02-17.9827-.7546-.864-2.085-1.17-3.1972-.738-.0596.018-5.5803 2.034-18.1904 2.034l-3.2768-.018c-6.0965 0-12.9278.468-16.84 5.9583-3.7334 5.2562-1.827 14.2205-1.1716 16.7766-.0596 1.44-.3178 10.7824 1.2908 16.8127.556 2.0342 2.1248 6.5343 5.7987 10.2605-.0198.126-.0794.252-.0794.396 0 5.7422-3.1178 8.2803-3.515 8.5864C.7547 74.8253 0 86.256 0 87.516c0 1.35 1.1915 2.43 2.681 2.466h.0595c1.4695 0 2.681-1.08 2.7404-2.412 0-.09.7347-9.5585 22.8372-21.727l1.8072 5.3463c.0794.324 2.105 7.9923 14.874 7.9923 11.776 0 14.2385-6.1563 14.6158-7.3803l2.0455-5.9763c21.904 12.0245 22.8372 21.457 22.857 21.727.0398 1.35 1.2512 2.448 2.7406 2.448 1.5092 0 2.7404-1.116 2.7404-2.484.0398-1.26-.695-12.6186-26.4713-26.497z"/><path fill="#1E2225" d="M55.3176 87.0255l-.9555-2.518c-.0548-.1517.0185-.2397.1778-.2397h.196c.1286 0 .214.0468.2573.1696l.7103 1.9514.6247-1.8578c.037-.1168.1225-.1812.245-.1812h.135c.1286 0 .2078.0644.2447.1812l.631 1.8578.704-1.9514c.043-.1228.1287-.1696.2574-.1696h.196c.1655 0 .233.088.1776.2396l-.9492 2.518c-.049.123-.1287.1693-.2574.1693h-.202c-.1284 0-.2084-.0584-.2512-.1752l-.6184-1.8226-.6185 1.8225c-.037.1168-.1225.1752-.2512.1752h-.202c-.1288 0-.2084-.0524-.2512-.1692M61.7482 85.7343c0-.555-.441-1.0047-.9983-1.0047-.545 0-.992.4496-.992 1.0047 0 .555.447.999.992.999.557 0 .9982-.444.9982-.999m-2.615-.006c0-.841.7225-1.5246 1.6167-1.5246.9 0 1.6288.6895 1.6288 1.5246 0 .8475-.7287 1.531-1.629 1.531-.894 0-1.6166-.678-1.6166-1.531M62.918 86.9846V84.478c0-.134.0856-.2102.2265-.2102h.1837c.1408 0 .2205.0763.2205.2103v.4444c.1043-.4675.4532-.7187.821-.7187l.1345.0057c.1287.0176.147.1168.147.234v.169c0 .146-.061.2045-.1655.1813-.055-.0116-.1102-.0176-.1652-.0176-.2205 0-.7718.1053-.7718 1.303v.9056c0 .1344-.0797.2104-.2205.2104h-.1837c-.141 0-.2264-.076-.2264-.2104M67.6522 85.7285c0-.5432-.3552-1.0047-.98-1.0047-.6002 0-1.0166.4263-1.0228 1.0047.0062.5783.4226 1.0047 1.023 1.0047.6246 0 .9798-.4556.9798-1.0047m-1.9903 1.0047v.2515c0 .1344-.0798.21-.221.21h-.1837c-.1405 0-.2264-.0756-.2264-.21v-3.8035c0-.1344.0858-.21.2263-.21h.1837c.1412 0 .221.0756.221.21v1.5485c.2875-.392.6917-.526 1.1022-.526.9123 0 1.5186.6833 1.5186 1.5248 0 .8414-.6063 1.531-1.5186 1.531-.4105 0-.8147-.1348-1.1023-.5263M71.4555 85.7285c0-.5432-.355-1.0047-.9798-1.0047-.6004 0-1.0167.4263-1.023 1.0047.0063.5783.4226 1.0047 1.023 1.0047.6247 0 .9798-.4556.9798-1.0047m-1.9903 1.0047v.2515c0 .1344-.0796.21-.221.21h-.1835c-.1405 0-.2264-.0756-.2264-.21v-3.8035c0-.1344.086-.21.2264-.21h.1836c.1413 0 .221.0756.221.21v1.5485c.2876-.392.6917-.526 1.1022-.526.9123 0 1.5186.6833 1.5186 1.5248 0 .8414-.6062 1.531-1.5185 1.531-.4105 0-.8146-.1348-1.1023-.5263"/><g transform="translate(72.07 83.93)"><mask id="b" fill="#fff"><use xlink:href="#a"/></mask><path fill="#1E2225" d="M.917 4.328l.4716-1.1743L.2126.5827C.145.4368.2186.3378.384.3378h.245c.1286 0 .2083.0527.251.1635l.8512 1.9806.784-1.9746c.043-.1168.135-.1696.2633-.1696h.251c.1657 0 .239.0936.1716.2452L1.4927 4.4096c-.049.1168-.1287.1636-.2574.1636h-.1468c-.1652 0-.2327-.0993-.1715-.2452" mask="url(#b)"/></g><path fill="url(#c)" d="M5.4557.4226c-.173.2274-.2642.5346-.2642.8883 0 .5652.247 1.2614.6875 1.7428-.324.4286-.7644.7232-1.056.7232-.291 0-.129-.2946-1.0554-.7232v-.041c-.463-.1986-.1656-.2053-.2816-.6622h-.1815v.036c0-.4012-.224-.84-.224-1.2412 0-.2152.0957-.3142.124-.354.0163-.0228.0702-.0648.1894-.0648.1942 0 .2867.0753.3296.132.0752.099.1227.2595.1227.4523 0 .2315-.0624.5026-.1755.756.1106.27.2613.5292.4177.7468.32-.4558.4988-1.0254.4988-1.503 0-.3536-.0904-.6608-.2634-.8882C4.1773.23 3.901 0 3.4175 0 3.094 0 2.822.1326 2.65.3736c-.1394.1956-.2103.4552-.2103.7718 0 .5034.1816 1.1377.482 1.7195-.0767.0258-.1572.0405-.2398.0405C1.9943 2.9055.8412 2.632.8412.799.8413.5983.6768.436.4737.436.27.436.1057.598.1057.799c0 1.7472.987 2.8324 2.5762 2.8324.2272 0 .4378-.0504.6296-.1378.4333.5835.9896 1.0093 1.5785 1.0093.5887 0 1.1447-.426 1.578-1.0094.1918.0874.4027.1378.63.1378 1.5892 0 2.5763-1.0852 2.5763-2.8323 0-.2008-.1645-.363-.368-.363-.2032 0-.368.1622-.368.363 0 1.833-1.1528 2.1065-1.8403 2.1065-.083 0-.163-.0147-.24-.0406-.2252-.0767-.4206-.255-.574-.4783-.2235-.324-.3564-.7417-.3564-1.0758 0-.193.0415-.3535.117-.4525.043-.0566.1227-.132.3173-.132.1194 0 .1492.042.1655.065.0284.0397.0762.1387.0762.354 0 .2917-.0673.6027-.1787.9053.1387.2655.339.487.56.5468.2233-.5038.3552-1.025.3552-1.4522 0-.3166-.071-.5762-.2103-.7718C6.958.1326 6.6852 0 6.362 0c-.4833 0-.76.23-.9063.4226" transform="translate(43.2 82.875)"/></g></svg>