<?xml version="1.0" encoding="UTF-8"?>
<svg width="60px" height="60px" viewBox="0 0 60 60" version="1.1" xmlns="http://www.w3.org/2000/svg" xmlns:xlink="http://www.w3.org/1999/xlink">
    <!-- Generator: Sketch 42 (36781) - http://www.bohemiancoding.com/sketch -->
    <title>icon-learning</title>
    <desc>Created with Sketch.</desc>
    <defs>
        <linearGradient x1="0%" y1="49.9979293%" x2="99.9874969%" y2="49.9979293%" id="linearGradient-1">
            <stop stop-color="#FFB247" offset="0%"></stop>
            <stop stop-color="#FFCB33" offset="100%"></stop>
        </linearGradient>
    </defs>
    <g id="Desktop" stroke="none" stroke-width="1" fill="none" fill-rule="evenodd">
        <g id="main-interests-mega-drop" transform="translate(-390.000000, -529.000000)">
            <g id="Group-18">
                <g id="Group-Copy-2" transform="translate(30.000000, 77.000000)">
                    <g id="Group-2-Copy-11" transform="translate(270.000000, 432.000000)">
                        <g id="icon-cook" transform="translate(90.000000, 20.000000)">
                            <g id="icon-learning">
                                <path d="M35,50 C48.807,50 60,38.807 60,25 C60,11.193 48.807,0 35,0 C21.193,0 10,11.193 10,25 C10,38.807 21.193,50 35,50" id="Fill-1" fill="url(#linearGradient-1)"></path>
                                <path d="M33.3271,38.1763 C27.9521,38.1763 25.7601,40.7563 25.7601,47.0793 C25.7601,53.4023 27.9521,55.9923 33.3271,55.9923 L46.4721,55.9923 L48.3791,55.9923 L48.3791,57.3993 L11.2991,57.3993 C5.5271,57.3993 2.6001,53.9323 2.6001,47.0893 C2.6001,40.2463 5.5271,36.7793 11.2991,36.7793 L12.6251,36.7793 L44.4941,36.7793 L48.3891,36.7793 L48.3891,38.1863 L46.4821,38.1863 L33.3271,38.1763 Z M44.2181,50.9243 C44.3201,51.8313 44.4731,52.6473 44.6671,53.3913 L33.3271,53.3913 C31.1241,53.3913 29.5431,53.1673 28.8191,50.9243 L44.2181,50.9243 Z M28.8191,43.2553 C29.5541,41.0113 31.1341,40.7873 33.3271,40.7873 L44.6671,40.7873 C44.4731,41.5313 44.3201,42.3473 44.2181,43.2553 L28.8191,43.2553 Z M44.0451,45.8553 C44.0351,46.2533 44.0241,46.6613 44.0241,47.0893 C44.0241,47.5173 44.0351,47.9263 44.0451,48.3233 L28.4011,48.3233 C28.3811,47.9363 28.3701,47.5383 28.3701,47.0893 C28.3701,46.6403 28.3811,46.2433 28.4011,45.8553 L44.0451,45.8553 Z M12.6251,23.3383 L29.4721,23.3383 C28.8401,24.5213 28.4731,26.2143 28.4731,28.6923 C28.4731,31.2413 28.8601,32.9753 29.5231,34.1683 L12.6251,34.1683 C8.7701,34.1683 7.3321,32.7003 7.3321,28.7533 C7.3321,24.8063 8.7601,23.3383 12.6251,23.3383 L12.6251,23.3383 Z M31.0831,27.7843 L40.3331,27.7843 C40.3121,28.1003 40.3021,28.4173 40.3021,28.7633 C40.3021,29.0793 40.3121,29.3853 40.3231,29.6813 L31.0831,29.6813 C31.0731,29.3753 31.0631,29.0493 31.0631,28.7023 C31.0731,28.3763 31.0731,28.0703 31.0831,27.7843 L31.0831,27.7843 Z M41.3831,34.1783 L36.0391,34.1783 C33.5821,34.1783 32.1341,34.1683 31.4811,32.2813 L40.7001,32.2813 C40.8841,33.0263 41.1181,33.6583 41.3831,34.1783 L41.3831,34.1783 Z M36.0291,23.3383 L41.3731,23.3383 C41.1081,23.8483 40.8841,24.4603 40.7001,25.1843 L31.4511,25.1843 C32.0931,23.3483 33.5111,23.3383 36.0291,23.3383 L36.0291,23.3383 Z M49.6841,40.7873 C50.3981,40.7873 50.9901,40.2053 50.9901,39.4823 L50.9901,35.4743 C50.9901,34.7603 50.4091,34.1683 49.6841,34.1683 L44.7381,34.1683 C44.3411,33.9443 42.9031,32.8633 42.9031,28.7533 C42.9031,24.0313 44.8001,23.2973 44.7891,23.2973 C45.4321,23.1443 45.8501,22.5323 45.7791,21.8803 C45.6971,21.2273 45.1461,20.7383 44.4831,20.7383 L12.6251,20.7383 C7.3121,20.7383 4.7321,23.3593 4.7321,28.7633 C4.7321,31.5373 5.4251,33.5773 6.8121,34.9133 C2.3861,36.4933 9.99999999e-05,40.6753 9.99999999e-05,47.0893 C9.99999999e-05,55.4213 4.0081,60.0003 11.2991,60.0003 L49.6951,60.0003 C50.4091,60.0003 51.0001,59.4193 51.0001,58.6953 L51.0001,54.6873 C51.0001,53.9733 50.4191,53.3813 49.6951,53.3813 L47.3801,53.3813 C46.8691,51.8623 46.6351,49.8223 46.6351,47.0793 C46.6351,44.3253 46.8691,42.2963 47.3801,40.7773 L49.6841,40.7873 Z" id="Fill-3" fill="#1E2225"></path>
                                <path d="M7.5977,47.0894 C7.5977,44.7234 7.8427,43.9384 7.8827,43.8364 C8.1687,43.2144 7.9337,42.4804 7.3227,42.1434 C6.6897,41.7974 5.9047,42.0314 5.5577,42.6634 C5.3947,42.9694 4.9967,44.0204 4.9967,47.0894 C4.9967,50.1594 5.3847,51.2094 5.5577,51.5154 C5.8027,51.9644 6.2717,52.2294 6.7507,52.2294 C6.9547,52.2294 7.1597,52.1784 7.3427,52.0764 C7.9747,51.7294 8.2297,50.9854 7.8827,50.3524 C7.8627,50.3224 7.5977,49.5884 7.5977,47.0894" id="Fill-6" fill="#1E2225"></path>
                                <path d="M21.9663,47.0894 C21.9663,44.7234 22.2113,43.9384 22.2523,43.8364 C22.5373,43.2144 22.3023,42.4804 21.6913,42.1434 C21.0583,41.7974 20.2733,42.0314 19.9263,42.6634 C19.7533,42.9694 19.3653,44.0204 19.3653,47.0894 C19.3653,50.1594 19.7533,51.2094 19.9263,51.5154 C20.1713,51.9534 20.6403,52.2294 21.1203,52.2294 C21.3233,52.2294 21.5283,52.1784 21.7113,52.0764 C22.3433,51.7294 22.5983,50.9854 22.2523,50.3524 C22.2413,50.3224 21.9663,49.5884 21.9663,47.0894" id="Fill-8" fill="#1E2225"></path>
                                <path d="M11.6255,32.5571 C11.7585,32.5571 11.8905,32.5371 12.0235,32.4961 C12.7065,32.2821 13.0835,31.5581 12.8795,30.8741 C12.8795,30.8641 12.6555,30.1101 12.6555,28.7531 C12.6555,27.4281 12.8695,26.6731 12.8795,26.6321 C13.0945,25.9491 12.7165,25.2251 12.0435,25.0001 C11.3605,24.7761 10.6265,25.1541 10.4015,25.8371 C10.3615,25.9491 10.0555,26.9791 10.0555,28.7431 C10.0555,30.5071 10.3715,31.5371 10.4125,31.6501 C10.5755,32.2211 11.0845,32.5571 11.6255,32.5571" id="Fill-10" fill="#1E2225"></path>
                                <path d="M23.4858,32.5571 C23.6188,32.5571 23.7508,32.5371 23.8838,32.4961 C24.5668,32.2821 24.9438,31.5581 24.7398,30.8741 C24.7398,30.8641 24.5158,30.1101 24.5158,28.7531 C24.5158,27.4281 24.7298,26.6731 24.7398,26.6321 C24.9548,25.9491 24.5768,25.2251 23.9038,25.0001 C23.2208,24.7761 22.4858,25.1541 22.2618,25.8371 C22.2208,25.9491 21.9158,26.9791 21.9158,28.7431 C21.9158,30.5071 22.2318,31.5371 22.2728,31.6501 C22.4358,32.2211 22.9448,32.5571 23.4858,32.5571" id="Fill-12" fill="#1E2225"></path>
                            </g>
                        </g>
                    </g>
                </g>
            </g>
        </g>
    </g>
</svg>