<svg xmlns="http://www.w3.org/2000/svg" id="Camada_1" viewBox="0 0 76 36" enable-background="new 0 0 76 36"><style>.st0{filter:url(#Adobe_OpacityMaskFilter);} .st1{fill:#FFFFFF;} .st2{mask:url(#mask-2);} .st3{fill:#FFFFFF;stroke:#FFB247;stroke-miterlimit:10;}</style><g id="Desktop"><g id="Endorse-a-Talent"><g id="Group-2"><g id="icon-endorsement-copy-2"><defs><filter id="Adobe_OpacityMaskFilter" width="76" height="37" x="-.5" y="-.5" filterUnits="userSpaceOnUse"><feColorMatrix values="1 0 0 0 0 0 1 0 0 0 0 0 1 0 0 0 0 0 1 0"/></filter></defs><mask id="mask-2" width="76" height="37" x="-.5" y="-.5" maskUnits="userSpaceOnUse"><g class="st0"><path id="path-1" d="M4 0h67c2.2 0 4 1.8 4 4v28c0 2.2-1.8 4-4 4H4c-2.2 0-4-1.8-4-4V4c0-2.2 1.8-4 4-4z" class="st1"/></g></mask><g id="icon-online-payments" class="st2"><g id="Rectangle"><path id="path-1_1_" d="M4 0h67c2.2 0 4 1.8 4 4v28c0 2.2-1.8 4-4 4H4c-2.2 0-4-1.8-4-4V4c0-2.2 1.8-4 4-4z" class="st3"/></g><path id="Path-2" d="M0 12h75" class="st3"/><path id="Path-2_1_" d="M9 24s6 3 12 0 12 0 12 0" class="st3"/><path id="Path-2_2_" d="M57 24h9" class="st3"/></g></g></g></g></g></svg>