<svg xmlns="http://www.w3.org/2000/svg" width="80" height="80"><g fill="none" fill-rule="evenodd"><circle cx="53.5" cy="53.5" r="26.5" fill="#FFF"/><path fill="#FFB247" d="M40 0C17.952 0 0 17.936 0 40s17.952 40 40 40 40-17.952 40-40S62.064 0 40 0zm0 74.352C21.056 74.352 5.648 58.944 5.648 40 5.648 21.056 21.056 5.648 40 5.648c18.944 0 34.336 15.408 34.336 34.352C74.352 58.944 58.944 74.352 40 74.352zm24.16-36.848L28.016 18.512c-.88-.464-1.936-.432-2.784.08-.848.512-1.36 1.424-1.36 2.416v37.968c0 .992.512 1.904 1.36 2.416.448.272.96.416 1.456.416.448 0 .896-.112 1.312-.32l36.16-18.992C65.088 42 65.68 41.04 65.68 40c0-1.056-.592-2.016-1.52-2.496zm-34.624 16.8V25.696L56.768 40 29.536 54.304z"/></g></svg>