<?xml version="1.0" encoding="UTF-8"?>
<svg width="80px" height="80px" viewBox="0 0 80 80" version="1.1" xmlns="http://www.w3.org/2000/svg" xmlns:xlink="http://www.w3.org/1999/xlink">
    <!-- Generator: Sketch 42 (36781) - http://www.bohemiancoding.com/sketch -->
    <title>icon-benefits3</title>
    <desc>Created with Sketch.</desc>
    <defs>
        <linearGradient x1="0%" y1="49.9979293%" x2="99.9874969%" y2="49.9979293%" id="linearGradient-1">
            <stop stop-color="#FFB247" offset="0%"></stop>
            <stop stop-color="#FFCB33" offset="100%"></stop>
        </linearGradient>
    </defs>
    <g id="Desktop" stroke="none" stroke-width="1" fill="none" fill-rule="evenodd">
        <g id="Desktop-Home-Worbbior" transform="translate(-795.000000, -1307.000000)">
            <g id="icon-benefits3" transform="translate(795.000000, 1307.000000)">
                <path d="M13.8562092,46.5359477 C13.8562092,64.5843137 28.4875817,79.2156863 46.5359477,79.2156863 L46.5359477,79.2156863 C64.5843137,79.2156863 79.2156863,64.5843137 79.2156863,46.5359477 L79.2156863,46.5359477 C79.2156863,28.4875817 64.5843137,13.8562092 46.5359477,13.8562092 L46.5359477,13.8562092 C28.4875817,13.8562092 13.8562092,28.4875817 13.8562092,46.5359477" id="Fill-15" fill="url(#linearGradient-1)"></path>
                <path d="M33.4640523,61.2679739 C18.130719,61.2679739 5.66013072,48.7973856 5.66013072,33.4640523 C5.66013072,18.130719 18.130719,5.66013072 33.4640523,5.66013072 C48.7973856,5.66013072 61.2679739,18.130719 61.2679739,33.4640523 C61.2679739,48.7973856 48.7973856,61.2679739 33.4640523,61.2679739 M33.4640523,0.784313725 C15.4379085,0.784313725 0.784313725,15.4379085 0.784313725,33.4640523 C0.784313725,51.4901961 15.4379085,66.1437908 33.4640523,66.1437908 C51.4901961,66.1437908 66.1437908,51.4901961 66.1437908,33.4640523 C66.1437908,15.4379085 51.4901961,0.784313725 33.4640523,0.784313725" id="Fill-17" fill="#1E2225"></path>
                <path d="M35.9086275,32.4575163 L35.9086275,12.4575163 C35.9086275,11.1111111 34.8105882,10.0130719 33.464183,10.0130719 C32.1177778,10.0130719 31.0197386,11.1111111 31.0197386,12.4575163 L31.0197386,33.4640523 C31.0197386,34.1045752 31.2811765,34.7320261 31.7386928,35.1895425 L43.7386928,47.1895425 C44.209281,47.6601307 44.836732,47.9084967 45.464183,47.9084967 C46.091634,47.9084967 46.719085,47.6732026 47.1896732,47.1895425 C48.1439216,46.2352941 48.1439216,44.6928105 47.1896732,43.7385621 L35.9086275,32.4575163 Z" id="Fill-19" fill="#1E2225"></path>
            </g>
        </g>
    </g>
</svg>