<svg xmlns="http://www.w3.org/2000/svg" width="65" height="65"><defs><linearGradient id="a" x1="0%" x2="99.9875%" y1="49.9979%" y2="49.9979%"><stop stop-color="#FFB247" offset="0%"/><stop stop-color="#FFCB33" offset="100%"/></linearGradient></defs><g fill="none" fill-rule="evenodd"><path fill="url(#a)" d="M27.0833 54.1667c14.9576 0 27.0834-12.1258 27.0834-27.0834C54.1667 12.1257 42.041 0 27.0833 0 12.1257 0 0 12.1258 0 27.0833 0 42.041 12.1258 54.1667 27.0833 54.1667"/><path fill="#1E2225" d="M46.9535 18.755c-.7546.4708-.9895 1.4842-.5062 2.2378.4122.648.8944 1.6846.8944 2.9214 0 1.119-.5062 1.578-1.743 1.578-2.2137 0-2.65-2.0613-2.721-2.462-.1294-.883-.9425-1.5072-1.838-1.3778-.883.1294-1.507.954-1.3777 1.838.26 1.813 1.838 5.253 5.9367 5.253 3.6865 0 4.9942-2.603 4.9942-4.8177 0-2.0144-.7536-3.6395-1.3903-4.6404-.4832-.7776-1.4842-1.0135-2.2492-.5303m1.6136 42.0622H46.294c-.813-2.58-2.7794-9.4583-3.416-17.351-.071-.8944-.8476-1.554-1.743-1.484-.8956.071-1.5552.86-1.4843 1.744.836 10.4237 3.816 18.905 3.9464 19.2577.2232.648.836 1.0844 1.53 1.0844h3.4516c.8955 0 1.626-.7306 1.626-1.626 0-.8946-.742-1.6252-1.6375-1.6252m12.0614-34.7947c-.1065.141-.1764.3058-.2234.4832 0 0-.0824.282-.5897 2.2848-.164.648-.4123 1.096-2.1553 1.096-1.5426 0-2.9798.0583-4.4995.1168-1.3193.047-2.744.1064-4.4045.1294-.79.0125-1.4497.5897-1.5792 1.3662l-.4477 2.721c-1.1772.0824-3.392-.094-6.16-1.884-4.0872-2.6385-4.1812-4.9473-4.1926-5.1946.3527-1.4017 1.1888-3.628 2.0018-4.37.2704-.2475.4478-.5773.5073-.9426.0344-.212.93-5.2885 7.3614-5.2885 3.4275 0 5.4888 2.2377 7.138 4.0287.2828.306.553.6002.8004.86 1.696 1.7316 3.1208 1.9905 4.6405 2.2848.3067.0595.625.118.9778.2004.7536.1764.931.2828.9655.3183 0 0 .0595.1054.0595.4352 0 .907-.212 1.3663-.2004 1.3548-.0115.0115-.0115.0115 0 0m-.094-5.277c-.3893-.094-.7535-.1535-1.096-.2245-1.295-.2463-1.9433-.3642-2.9202-1.3662-.236-.2348-.4718-.5062-.7306-.789-1.861-2.025-4.677-5.0767-9.5292-5.0767-6.8792 0-9.764 4.63-10.4603 7.492-1.3066 1.4956-2.1082 3.9462-2.437 5.088-9.9654 6.8793-16.303 23.7114-16.303 30.4487 0 1.2368.2004 2.3797.5428 3.392-.6012.2715-1.6136.5773-3.2512.5773-1.7785 0-5.9127-.813-5.9127-8.281 0-3.1207.647-5.8072 1.9318-7.974.4593-.7776.1994-1.767-.5772-2.2263-.766-.4592-1.767-.1993-2.2262.5772-1.578 2.6854-2.3797 5.925-2.3797 9.6356 0 8.4917 4.7354 11.5196 9.164 11.5196 2.32 0 3.8867-.4833 4.9117-1.002.9424.9665 2.1208 1.5322 3.439 1.5322h15.324c.8955 0 1.626-.7306 1.626-1.626 0-.8946-.7305-1.6252-1.626-1.6252h-15.324c-.5886 0-1.1888-.4593-1.649-1.2723-.023-.0596-.047-.118-.0825-.1765-.4-.7776-.6597-1.814-.6597-3.0393 0-5.7718 5.56-20.024 13.4045-26.6432.671 1.5426 2.097 3.4745 5.0882 5.394 3.0393 1.956 5.6893 2.4026 7.4793 2.4026h.1294c-.4112 7.4324-.2588 12.3922 2.9694 21.8504.2235.6596.8362 1.095 1.5428 1.095h3.2626c.8956 0 1.625-.7297 1.625-1.6252s-.7294-1.625-1.625-1.625H52.077c-2.9213-8.9292-2.8148-13.3577-2.32-21.3672l.3997-2.4497c1.1314-.024 2.1563-.071 3.1218-.1065 1.4956-.0595 2.8733-.118 4.37-.118 2.9214 0 4.7-1.1888 5.3-3.5455.3184-1.2253.4603-1.79.5188-2.0373.2348-.4708.6-1.4258.6-2.8974.0127-3.0978-2.4735-3.6635-3.533-3.911M30.616 44.9036c-3.5925 0-6.8437 2.1323-8.2924 5.419-.3538.8246.0126 1.7785.837 2.1428.8236.3538 1.7786-.0115 2.143-.836.9194-2.1084 3.0037-3.4746 5.3124-3.4746 3.1918 0 5.7948 2.603 5.7948 5.7948 0 .8955.7306 1.626 1.626 1.626.8946 0 1.6252-.7305 1.6252-1.626-.0115-4.9932-4.0632-9.046-9.046-9.046"/></g></svg>