<svg xmlns="http://www.w3.org/2000/svg" width="80" height="80"><g fill="none" fill-rule="evenodd"><circle cx="27.5" cy="27.5" r="27.5" fill="#FFF"/><path fill="#1E2225" fill-rule="nonzero" d="M66.7438 39.1856l1.6777-3.381 2.605-5.2498c.0865-.178.079-.379-.0287-.5637-.0923-.161-.2454-.2562-.4444-.268l-9.6073-.63-.247-3.749-.388-5.8956c-.0086-.1704-.1-.3182-.282-.4222-.1463-.084-.3888-.0914-.544-.0145l-8.6284 4.2796-2.0933-3.1305-3.2793-4.9044c-.1108-.168-.2752-.2564-.4706-.2564-.1983 0-.37.092-.48.257L39.195 23.274l-3.3767-1.666-5.2598-2.595c-.149-.0738-.4198-.0662-.5648.0153-.161.0922-.2554.2442-.2674.447l-.6082 9.617-3.759.2463-5.8848.3858c-.1796.0106-.3427.1116-.447.2935-.0967.166-.103.3553-.011.541l4.26 8.631-3.1354 2.087-4.8818 3.2495c-.1672.1114-.259.2827-.259.4804 0 .1975.0918.3688.2566.4787l8.0197 5.338-1.667 3.3774-2.596 5.2595c-.0884.1788-.0827.366.0332.5655.0893.159.239.252.4543.2648l9.6074.63.247 3.7488.3863 5.864c.0115.1994.108.355.2837.454.1436.0824.393.09.5522.0104l8.6313-4.2585 2.0868 3.134 3.2388 4.8643c.1122.1666.2915.2622.4928.2622.1984 0 .3702-.092.48-.257l5.3407-8.0205 3.3785 1.6712 5.2255 2.585c.0977.0478.195.0708.283.0708.0888 0 .2022-.0305.2846-.078.1658-.095.2676-.2587.2818-.4708l.6308-9.6162 3.7595-.2377 5.839-.369c.198-.0135.3747-.1236.4675-.2826.0952-.1662.1007-.361.0147-.5364l-4.2758-8.64 3.1286-2.0913 4.872-3.2565c.1664-.112.262-.2908.2627-.551.0022-.133-.0783-.2863-.2493-.405l-8.007-5.3294zm11.0707 1.6906c1.3865.9382 2.2128 2.4785 2.1848 4.1168 0 1.6523-.8263 3.1926-2.1988 4.1168l-4.986 3.3327 2.661 5.377c.7283 1.4844.6863 3.2207-.14 4.663-.8403 1.4423-2.325 2.3665-3.9776 2.4785l-5.9804.378-.392 5.9793c-.1122 1.6803-1.0366 3.1646-2.479 3.9908-.7284.42-1.5967.6582-2.465.6582-.7704 0-1.5267-.182-2.213-.518l-5.35-2.6466-3.3193 4.985C48.235 79.1738 46.6943 80 45.0277 80c-1.6667 0-3.2073-.8262-4.1316-2.1984l-3.3192-4.985-5.364 2.6465c-1.4567.7282-3.2634.6722-4.678-.14-1.4425-.812-2.381-2.3104-2.479-4.0047l-.392-5.9512-5.9804-.392c-1.6667-.098-3.1652-1.0222-3.9916-2.4925-.8263-1.4143-.8823-3.1646-.14-4.663l2.647-5.363-4.986-3.3187C10.8264 48.2136 10 46.6733 10 45.007c0-1.6663.8263-3.2066 2.213-4.1308l4.9858-3.3187-2.647-5.363c-.7423-1.4984-.6863-3.2487.154-4.691.8264-1.4423 2.325-2.3665 3.9776-2.4645l5.9803-.392.3782-5.9793c.098-1.6663 1.0223-3.1506 2.4648-3.9768 1.4426-.8122 3.2493-.8542 4.692-.14l5.364 2.6464 3.3192-4.985C41.8064 10.8262 43.347 10 45.0137 10c1.6666 0 3.2072.8262 4.1316 2.2264l3.3333 4.985 5.364-2.6605c1.4706-.7282 3.2633-.6722 4.678.14 1.4705.84 2.3948 2.3384 2.479 4.0047l.392 5.9512 5.9803.392c1.6526.098 3.1372 1.0222 3.9635 2.4645.8263 1.4143.8963 3.1646.168 4.663l-2.675 5.391 4.986 3.3187z"/><path fill="#1E2225" d="M33.2205 54.2c-.546 0-.832-.338-.702-.884l.806-3.276h-2.6c-.546 0-.806-.364-.702-.91l.208-.832c.13-.494.416-.702.91-.702h2.782l1.378-5.434h-2.6c-.546 0-.832-.364-.702-.91l.234-.832c.104-.468.416-.676.884-.676h2.756l.806-3.068c.104-.468.39-.676.884-.676h.884c.546 0 .832.338.702.884l-.728 2.86h3.458l.754-3.068c.13-.468.416-.676.91-.676h.884c.572 0 .858.338.702.884l-.702 2.86h2.574c.572 0 .832.338.702.91l-.208.806c-.13.494-.416.702-.91.702h-2.756l-1.378 5.434h2.6c.572 0 .858.338.702.91l-.208.832c-.13.494-.416.702-.91.702h-2.756l-.884 3.458c-.13.468-.416.702-.884.702h-.91c-.572 0-.858-.338-.702-.884l.832-3.276h-3.458l-.884 3.458c-.104.468-.39.702-.884.702h-.884zm3.25-6.604h3.458l1.326-5.434h-3.458l-1.326 5.434zm18.538 6.604h1.17c.702 0 1.092-.39 1.092-1.092V37.092c0-.702-.338-1.092-.936-1.092-.65 0-1.04.078-1.534.286l-4.758 2.158c-.598.286-.832.78-.624 1.43l.182.572c.208.676.728.936 1.404.65l2.912-1.274v13.286c0 .702.39 1.092 1.092 1.092z"/></g></svg>