<?xml version="1.0" encoding="UTF-8"?>
<svg width="60px" height="60px" viewBox="0 0 60 60" version="1.1" xmlns="http://www.w3.org/2000/svg" xmlns:xlink="http://www.w3.org/1999/xlink">
    <!-- Generator: Sketch 42 (36781) - http://www.bohemiancoding.com/sketch -->
    <title>icon-beauty</title>
    <desc>Created with Sketch.</desc>
    <defs>
        <linearGradient x1="0%" y1="49.9979293%" x2="99.9874969%" y2="49.9979293%" id="linearGradient-1">
            <stop stop-color="#FFB247" offset="0%"></stop>
            <stop stop-color="#FFCB33" offset="100%"></stop>
        </linearGradient>
    </defs>
    <g id="Desktop" stroke="none" stroke-width="1" fill="none" fill-rule="evenodd">
        <g id="main-interests-mega-drop" transform="translate(-120.000000, -97.000000)">
            <g id="Group-18">
                <g id="Group-Copy-2" transform="translate(30.000000, 77.000000)">
                    <g id="Group-2-Copy">
                        <g id="icon-cook" transform="translate(90.000000, 20.000000)">
                            <g id="icon-beauty">
                                <path d="M35,50 C48.807,50 60,38.807 60,25 C60,11.193 48.807,0 35,0 C21.193,0 10,11.193 10,25 C10,38.807 21.193,50 35,50" id="Fill-1" fill="url(#linearGradient-1)"></path>
                                <path d="M42.9793,45.2892 C42.9793,45.2992 42.9793,45.3102 43.0003,45.3102 L43.0003,45.3422 L43.0003,45.3842 C42.9683,47.8092 40.9883,49.7582 38.5623,49.7582 C36.1153,49.7582 34.1243,47.7672 34.1243,45.3212 C34.1243,44.4942 34.7923,43.8272 35.6183,43.8272 C36.4443,43.8272 37.1113,44.4942 37.1113,45.3212 C37.1113,46.1252 37.7683,46.7712 38.5623,46.7712 C39.3563,46.7712 40.0033,46.1252 40.0133,45.3312 C40.0033,43.0972 38.1813,41.2752 35.9353,41.2752 C34.3893,41.2752 33.0023,42.1332 32.3023,43.4992 L27.4843,52.9252 C30.5233,53.9102 32.8963,55.6582 33.9763,57.8502 C34.4633,58.8352 33.7333,60.0002 32.6313,60.0002 L10.3793,60.0002 C9.2673,60.0002 8.5473,58.8462 9.0343,57.8502 C10.1143,55.6582 12.4873,53.9212 15.5163,52.9252 L10.6973,43.4992 C9.9983,42.1222 8.6003,41.2752 7.0643,41.2752 C4.8193,41.2752 2.9973,43.0972 2.9873,45.3312 C2.9973,46.1252 3.6433,46.7712 4.4373,46.7712 C5.2423,46.7712 5.8883,46.1252 5.8883,45.3212 C5.8883,44.4942 6.5563,43.8272 7.3823,43.8272 C8.2083,43.8272 8.8753,44.4942 8.8753,45.3212 C8.8753,47.7672 6.8843,49.7582 4.4373,49.7582 C2.0123,49.7582 0.0423,47.7992 0.0003,45.3842 L0.0003,45.3422 L0.0003,45.3102 L0.0003,45.2892 C0.0313,41.4652 3.1243,38.3622 6.9373,38.2882 C5.1363,35.0262 4.0883,31.1182 4.0883,26.9342 C4.0883,15.4962 11.8943,6.1972 21.4893,6.1972 C31.0953,6.1972 38.9013,15.4962 38.9013,26.9342 C38.9013,31.1282 37.8523,35.0262 36.0523,38.2882 C39.8653,38.3622 42.9473,41.4652 42.9793,45.2892 Z M21.4893,51.9932 C22.5163,51.9932 23.5123,52.0772 24.4653,52.2262 L27.4203,46.4432 C25.5673,47.2482 23.5753,47.6822 21.4893,47.6822 C19.4033,47.6822 17.4013,47.2382 15.5483,46.4322 L18.5033,52.2152 C19.4663,52.0672 20.4623,51.9932 21.4893,51.9932 Z M13.7893,57.0132 L29.1893,57.0132 C27.4093,55.8482 24.7303,54.9902 21.4893,54.9902 C18.2483,54.9902 15.5693,55.8482 13.7893,57.0132 Z M21.4893,9.1832 C13.5463,9.1832 7.0743,17.1482 7.0643,26.9342 C7.0643,36.7212 13.5353,44.6852 21.4893,44.6852 C29.4323,44.6852 35.9043,36.7212 35.9043,26.9342 C35.9043,17.1482 29.4433,9.1832 21.4893,9.1832 Z M14.3193,20.8867 C13.7363,21.4697 12.7943,21.4697 12.2013,20.8867 C11.6183,20.2937 11.6183,19.3507 12.2013,18.7687 L16.7553,14.2147 C17.3483,13.6317 18.2913,13.6317 18.8733,14.2147 C19.4563,14.8077 19.4563,15.7497 18.8733,16.3327 L14.3193,20.8867 Z M13.5566,27.3794 C12.9736,26.7964 12.9736,25.8544 13.5566,25.2614 L23.2586,15.5594 C23.8506,14.9774 24.7936,14.9774 25.3766,15.5594 C25.9586,16.1524 25.9586,17.0954 25.3766,17.6774 L15.6746,27.3794 C15.0816,27.9624 14.1396,27.9624 13.5566,27.3794 Z" id="Combined-Shape" fill="#1E2225"></path>
                            </g>
                        </g>
                    </g>
                </g>
            </g>
        </g>
    </g>
</svg>