<svg xmlns="http://www.w3.org/2000/svg" width="90" height="90"><defs><linearGradient id="a" x1="0%" x2="99.9875%" y1="49.9979%" y2="49.9979%"><stop stop-color="#FFB247" offset="0%"/><stop stop-color="#FFCB33" offset="100%"/></linearGradient></defs><g fill="none" fill-rule="evenodd"><path fill="url(#a)" d="M37.5 0C16.7895 0 0 16.7895 0 37.5S16.7895 75 37.5 75 75 58.2105 75 37.5 58.2105 0 37.5 0z"/><path fill="#1E2225" d="M38.7437 32.7584c3.8325 0 7.9575 2.07 11.6355 5.8034-3.201 4.728-5.1045 9.915-5.229 14.28-.099 3.063 1.104 6.1816 3.201 8.334 1.818 1.8735 4.197 2.91 6.6855 2.91 2.4884 0 4.8524-1.0215 6.6854-2.91 2.097-2.1525 3.3-5.271 3.2026-8.334-.126-4.377-2.028-9.5654-5.217-14.28 3.678-3.7334 7.8046-5.8034 11.6355-5.8034 8.4046 0 11.412 6.5594 11.412 12.684.0002 11.301-17.2993 27.594-27.7048 35.5934-10.404-8.013-27.7185-24.2924-27.7185-35.607 0-6.126 2.9924-12.6705 11.412-12.6705m13.6635 20.292c.0554-2.4044.993-5.3145 2.6294-8.2634 1.65 2.949 2.5876 5.874 2.643 8.2634.0286 1.1054-.4184 2.307-1.161 3.078-.867.8955-2.07.909-2.979-.015-.726-.726-1.1745-1.944-1.1324-3.063m18.936-27.5506c-5.58 0-11.355 2.658-16.2915 7.4686-4.9515-4.8256-10.7145-7.4686-16.2945-7.4686-11.1735 0-18.684 7.9995-18.684 19.929 0 19.161 31.4954 42.0676 32.838 43.047l2.1255 1.524 2.112-1.524c1.3424-.9645 32.8515-23.6775 32.8515-43.047 0-11.9295-7.497-19.929-18.657-19.929"/></g></svg>