<svg xmlns="http://www.w3.org/2000/svg" width="80" height="80"><g fill="none" fill-rule="evenodd"><circle cx="26.5" cy="53.5" r="26.5" fill="#FFCB33"/><path fill="#1E2225" d="M40.828 51h3.096c1.404 0 2.16-.756 2.16-2.16V27.96c0-1.404-.756-2.16-2.16-2.16-1.656 0-2.376.072-3.456.54l-6.696 2.88c-1.224.54-1.692 1.512-1.26 2.808l.504 1.44c.432 1.332 1.404 1.836 2.736 1.296l2.916-1.152V48.84c0 1.404.756 2.16 2.16 2.16z"/><path fill="#1E2225" d="M40 0C17.952 0 0 17.936 0 40s17.952 40 40 40 40-17.952 40-40S62.064 0 40 0zm0 74.352C21.056 74.352 5.648 58.944 5.648 40 5.648 21.056 21.056 5.648 40 5.648c18.944 0 34.336 15.408 34.336 34.352C74.352 58.944 58.944 74.352 40 74.352z"/></g></svg>