<svg xmlns="http://www.w3.org/2000/svg" width="45" height="45"><defs><linearGradient id="a" x1="0%" x2="99.9875%" y1="49.9979%" y2="49.9979%"><stop stop-color="#FFB247" offset="0%"/><stop stop-color="#FFCB33" offset="100%"/></linearGradient></defs><g fill="none" fill-rule="evenodd"><path fill="url(#a)" d="M7.5 18.75C7.5 8.3948 15.8948 0 26.25 0S45 8.3948 45 18.75c0 10.3553-8.3948 18.75-18.75 18.75S7.5 29.1053 7.5 18.75"/><path fill="#1E2225" d="M14.6884 24.1457l.3885.387c-.2724.546-.43 1.1595-.43 1.809 0 2.2545 1.8406 4.0875 4.1034 4.0875.651 0 1.2652-.156 1.8127-.426l.384.3833-9.8586 3.573 3.6-9.8138zm11.7232-5.4217l-3.6 9.8137-.3885-.387c.2724-.546.43-1.1587.43-1.809 0-2.2537-1.8406-4.0875-4.1026-4.0875-.6518 0-1.266.156-1.8135.426l-.384-.3825 9.8586-3.5737zm-7.6612 9.0802c-.087 0-.1703-.0105-.2528-.0247-.0765-.015-.1522-.0353-.225-.06-.432-.1478-.771-.4853-.9172-.9143-.024-.0705-.0435-.1432-.0578-.2175-.0142-.0802-.0255-.1612-.0255-.246 0-.8062.663-1.4625 1.4784-1.4625.0862 0 .1695.0105.252.0248.0765.015.1522.0352.225.06.432.1477.7717.4852.9172.915.024.0705.0435.1425.0578.2167.0142.0803.0255.162.0255.246 0 .8063-.663 1.4625-1.4776 1.4625zm5.034 4.3463c.0262-.0098.0472-.0263.0727-.0368.051-.0225.099-.0472.147-.0765.0466-.027.091-.0562.1336-.0892.0428-.0338.0825-.0698.1215-.1088.039-.0375.0744-.0772.1074-.12.0337-.0427.063-.0877.0915-.1342.0276-.0473.053-.0953.0756-.1463.0105-.0247.027-.045.036-.0705l5.277-14.3865c.1755-.4792.0578-1.017-.3022-1.3785-.36-.3615-.8985-.4822-1.377-.3075l-14.4518 5.238c-.0262.009-.0472.0255-.0727.0368-.051.0225-.099.0472-.147.0757-.0466.0278-.091.057-.1336.09-.0428.0338-.0825.069-.1215.108-.0384.0383-.0744.078-.1074.1208-.0337.042-.063.087-.0907.1335-.0286.0472-.054.096-.0766.147-.0105.0247-.027.045-.036.0705l-5.277 14.3865c-.1755.4785-.0578 1.0162.3022 1.3777.2505.252.5873.3863.9308.3863.1492 0 .3007-.0255.4462-.078l14.4518-5.238zM2.692 27.6542h1.411c.7244 0 1.3124-.5872 1.3124-1.3125 0-.7245-.588-1.3125-1.3125-1.3125H2.692c.282-3.4372 1.653-6.5685 3.778-9.0525l.758.7545c.256.255.5904.3825.9256.3825.3368 0 .6743-.129.93-.3877.5115-.5138.5093-1.3448-.0045-1.8555l-.7484-.744c2.4998-2.1105 5.6498-3.4725 9.1073-3.7515v1.3965c0 .7245.587 1.3125 1.3124 1.3125.7245 0 1.3125-.588 1.3125-1.3125V10.375c7.841.6322 14.105 6.8587 14.745 14.6542h-1.411c-.7244 0-1.3124.588-1.3124 1.3125 0 .7253.588 1.3125 1.3125 1.3125h1.411c-.282 3.4373-1.653 6.5685-3.777 9.0525l-.7584-.7545c-.5152-.5115-1.3462-.51-1.8562.0045-.5115.5145-.5093 1.3455.0045 1.8563l.7484.744c-2.4998 2.1112-5.6498 3.4732-9.1065 3.7515V40.912c0-.7245-.588-1.3125-1.3126-1.3125-.7253 0-1.3125.588-1.3125 1.3125v1.3965c-7.842-.6323-14.106-6.858-14.746-14.6543zm29.388 11.793c3.349-3.372 5.4204-8.0017 5.4204-13.1055 0-10.2877-8.4113-18.6577-18.75-18.6577-5.127 0-9.7785 2.0595-13.1663 5.3895-.0314.0255-.065.048-.095.078-.0256.0255-.0444.0562-.0676.0832-3.3495 3.372-5.421 8.0033-5.421 13.107 0 10.2885 8.4105 18.6585 18.75 18.6585 5.1262 0 9.777-2.0595 13.1655-5.3887.0314-.027.065-.0488.095-.0788.0264-.027.046-.0577.069-.0855z"/></g></svg>