<svg xmlns="http://www.w3.org/2000/svg" width="50" height="24" xmlns:xlink="http://www.w3.org/1999/xlink"><defs><path id="a" d="M7.9977 0C3.5855 0 0 3.7056 0 8.2656c0 7.6848 7.1478 15.1872 7.4496 15.4992.144.1488.339.2352.548.2352.209 0 .3995-.0864.548-.2352C8.8477 23.448 16 15.9504 16 8.2656 15.9954 3.7056 12.4052 0 7.9977 0z"/><mask id="c" width="16" height="24" x="0" y="0" fill="#fff"><use xlink:href="#a"/></mask><circle id="b" cx="12" cy="12" r="12"/><mask id="d" width="24" height="24" x="0" y="0" fill="#fff"><use xlink:href="#b"/></mask></defs><g fill="none" fill-rule="evenodd"><g transform="translate(34)"><use stroke="#FFF" stroke-width="4" mask="url(#c)" xlink:href="#a"/><circle cx="8" cy="8" r="3" fill="#FFF"/></g><use stroke="#FFF" stroke-width="4" mask="url(#d)" xlink:href="#b"/><path fill="#FFF" d="M3.223 14c.9095 4.008 4.4938 7 8.777 7 4.9706 0 9-4.0294 9-9 0-4.2832-2.992-7.8675-7-8.777V14H3.223z"/><rect width="9" height="2" x="4" y="11" fill="#FFF" rx="1"/><rect width="8" height="2" x="25" y="11" fill="#FFF" rx="1"/><rect width="8" height="2" x="25" y="11" fill="#FFF" transform="rotate(-90 29 12)" rx="1"/><rect width="10" height="2" x="7" y="7" fill="#FFF" transform="rotate(90 12 8)" rx="1"/></g></svg>