<svg xmlns="http://www.w3.org/2000/svg" width="75" height="75"><g fill="none" fill-rule="evenodd"><circle cx="25" cy="50" r="25" fill="#F3F3F5"/><path fill="#FFB247" d="M74.5223 63.6255c-.105-.165-.225-.3302-.36-.4652-9.2703-9.2737-20.1606-18.8626-24.3008-22.449 3.06-4.682 3.705-8.7635 3.705-13.9256C53.5666 12.0197 41.5514 0 26.776 0 12.0154 0 0 12.0198 0 26.7857c0 7.158 2.79 13.8806 7.8452 18.9376s11.7904 7.848 18.9456 7.848c5.1602 0 9.2403-.645 13.9205-3.7064 3.57 4.1266 13.0954 14.976 22.4406 24.3097.135.135.3.255.465.36.285.1802.915.4653 1.845.4653 1.86 0 3.93-1.1405 6.1652-3.3613 4.335-4.3518 3.465-7.053 2.895-8.0132zm-6.3452 4.5618c-1.125 1.1254-1.89 1.6056-2.325 1.8007-11.1753-11.2545-22.4107-24.3998-22.8907-24.97v-.015c-.12-.135-.255-.27-.39-.375-.945-.7054-2.235-.6304-3.09.15-4.3952 3.3012-7.7403 3.9165-12.6905 3.9165-5.8502 0-11.3553-2.281-15.4955-6.4226-4.14-4.1417-6.4202-9.649-6.4202-15.5013C4.875 14.706 14.7006 4.862 26.791 4.862c12.0904 0 21.9157 9.829 21.9157 21.9237 0 4.937-.615 8.2683-3.87 12.635-.105.105-.195.2252-.27.3452-.6752 1.0203-.48 2.401.45 3.1962.135.12 13.6053 11.6146 24.9757 22.9142-.225.42-.69 1.1854-1.815 2.311zM17.1456 17.152c.945-.9455.945-2.491 0-3.4515-.945-.9604-2.49-.9454-3.45 0-7.2153 7.218-7.2153 18.9526 0 26.1704.48.48 1.095.7202 1.725.7202.63 0 1.245-.24 1.725-.7203.945-.9454.945-2.491 0-3.4514-5.31-5.3122-5.31-13.9556 0-19.2677z"/></g></svg>