<svg xmlns="http://www.w3.org/2000/svg" width="20" height="20"><path fill="#FFCB33" fill-rule="evenodd" d="M5.34 2.2507c1.096 0 2.276.642 3.328 1.7995-.9156 1.466-1.46 3.0745-1.4957 4.428-.0283.9497.3158 1.9167.9156 2.584.5198.581 1.2003.9024 1.912.9024s1.388-.3167 1.912-.9023c.6-.6674.944-1.6344.916-2.5842-.036-1.357-.58-2.966-1.492-4.4278 1.052-1.1576 2.2322-1.7995 3.328-1.7995 2.4037 0 3.2638 2.034 3.2638 3.933 0 3.5042-4.9478 8.5563-7.924 11.0368C7.0283 14.7358 2.076 9.688 2.076 6.1795c0-1.8995.856-3.9288 3.264-3.9288m3.908 6.292c.0158-.7455.284-1.6478.752-2.5622.472.9144.74 1.8214.756 2.5623.008.3428-.1198.7153-.332.9544-.248.2777-.5922.282-.8522-.0046-.2076-.2252-.336-.6028-.324-.9498M14.664 0c-1.596 0-3.2476.8242-4.6595 2.3158C8.588.8195 6.9398 0 5.344 0 2.148 0 0 2.4805 0 6.1795c0 5.9414 9.008 13.0442 9.392 13.348L10 20l.604-.4726c.384-.299 9.396-7.3418 9.396-13.348C20 2.4805 17.8558 0 14.664 0"/></svg>