<svg xmlns="http://www.w3.org/2000/svg" width="55" height="65"><defs><linearGradient id="a" x1="0%" x2="99.9875%" y1="49.9979%" y2="49.9979%"><stop stop-color="#FFB247" offset="0%"/><stop stop-color="#FFCB33" offset="100%"/></linearGradient></defs><g fill="none" fill-rule="evenodd"><path fill="url(#a)" d="M27.0833 54.1667c14.9576 0 27.0834-12.1258 27.0834-27.0834C54.1667 12.1257 42.041 0 27.0833 0 12.1257 0 0 12.1258 0 27.0833 0 42.041 12.1258 54.1667 27.0833 54.1667"/><path fill="#1E2225" d="M48.0507 48.064H16.947V33.597h31.1037v14.467zm1.69-17.8588H15.244c-.9348 0-1.69.754-1.69 1.69V49.754c0 .936.7552 1.69 1.69 1.69h34.4967c.935 0 1.689-.754 1.689-1.69V31.895c0-.936-.754-1.69-1.689-1.69zM5.7823 61.6208l5.225-5.225h42.9443l5.225 5.225H5.7822zm6.2248-8.618h40.9566V28.6712H12.007v24.3316zm52.4855 9.112l-8.124-8.124V26.9693c0-.936-.754-1.69-1.689-1.69H10.3183c-.936 0-1.69.754-1.69 1.69v27.0215l-8.1358 8.124c-.481.481-.624 1.222-.364 1.845.26.625.884 1.04 1.572 1.04h61.596c.689 0 1.3-.415 1.573-1.04.273-.623.104-1.364-.377-1.845z"/></g></svg>