<svg xmlns="http://www.w3.org/2000/svg" width="45" height="45"><defs><linearGradient id="a" x1="0%" x2="99.9875%" y1="49.9979%" y2="49.9979%"><stop stop-color="#FFB247" offset="0%"/><stop stop-color="#FFCB33" offset="100%"/></linearGradient></defs><g fill="none" fill-rule="evenodd"><path fill="url(#a)" d="M18.75 37.5c10.3553 0 18.75-8.3947 18.75-18.75C37.5 8.3948 29.1053 0 18.75 0 8.3948 0 0 8.3948 0 18.75 0 29.1053 8.3948 37.5 18.75 37.5"/><path fill="#1A1A1A" d="M11.808 17.4613c1.1236 0 2.0326.9142 2.0326 2.0377 0 1.1228-.9135 2.0325-2.0325 2.0325-1.119 0-2.0324-.9142-2.0324-2.0325 0-1.1287.909-2.0377 2.0325-2.0377m4.308 2.0325V5.1375c0-.6285-.5092-1.1377-1.137-1.1377-.6284 0-1.1384.5092-1.1384 1.1377v10.586c-.609-.3285-1.2945-.5332-2.0325-.5332-2.3752 0-4.308 1.9327-4.308 4.3087 0 2.37 1.9328 4.3035 4.308 4.3035 2.3753 0 4.308-1.9335 4.308-4.3087zM24.3168 38.4258c1.1617 0 2.1075.9457 2.1075 2.1075s-.9458 2.1075-2.1075 2.1075c-1.1618 0-2.1075-.9457-2.1075-2.1075-.0053-1.1617.9458-2.1075 2.1075-2.1075zm4.467-12.1425H42.646v-3.6165H28.784v3.6165zm11.7495 16.332c-1.1617 0-2.1075-.945-2.1075-2.1075 0-1.161.9457-2.112 2.1075-2.112s2.1075.9457 2.1075 2.112c.0053 1.1625-.9405 2.1075-2.1075 2.1075zm-16.2165 2.385c2.4593 0 4.467-2.0025 4.467-4.467V28.6428H42.646v7.9522c-.6285-.342-1.3432-.5534-2.1075-.5534-2.46 0-4.467 2.0017-4.467 4.4662 0 2.46 2.0025 4.467 4.467 4.467 2.4646 0 4.4618-2.007 4.4618-4.4715v-19.014c0-.648-.528-1.1767-1.1775-1.1767H27.601c-.6487 0-1.1767.5287-1.1767 1.1767V36.625c-.6285-.342-1.3432-.5534-2.1075-.5534-2.4653 0-4.467 2.0025-4.467 4.467 0 2.4592 2.0018 4.4617 4.467 4.4617z"/></g></svg>