<svg xmlns="http://www.w3.org/2000/svg" width="60" height="80"><g fill="none" fill-rule="evenodd"><circle cx="33.5" cy="53.5" r="26.5" fill="#FFCB33"/><path fill="#1E2225" d="M20.4984 80c1.2 0 2.1602-.976 2.1602-2.1597v-6.751c.208 0 .416.016.624.016 13.3457 0 17.378-11.1983 17.6342-17.1334l.08-1.7758c.032-.576-.176-1.136-.56-1.5518-.384-.416-.9282-.672-1.5043-.704l-1.7602-.08c-7.0568-.3358-11.6333 2.3678-14.5137 5.9192V31.9272c8.689-.896 13.4416-7.359 13.4416-18.4292 0-6.191-1.5842-11.6943-1.6482-11.9182-.208-.736-.8-1.2958-1.5362-1.4878-.736-.192-1.52.032-2.0642.56l-2.4323 2.4315L25.987.636c-.848-.848-2.2082-.848-3.0563 0l-2.4323 2.4315L18.066.652c-.848-.848-2.2082-.848-3.0562 0l-2.4323 2.4315L10.1452.652C9.6012.108 8.817-.1 8.081.092c-.736.192-1.3282.752-1.5362 1.4878-.064.224-1.6482 5.663-1.6482 11.8862 0 11.1023 4.7525 17.5813 13.4415 18.4772v9.2946c-3.9523-5.0712-10.353-6.687-14.4015-6.687H2.1603C.96 34.5508 0 35.5268 0 36.7105v1.7597c0 14.174 11.7294 17.9173 17.922 17.9173h.416v21.4688c0 1.1678.9603 2.1437 2.1604 2.1437zm16.082-25.82c-.3522 4.5752-3.5045 12.606-13.2977 12.606h-.48c.224-2.2717 1.8082-12.83 13.7776-12.606zM4.3203 38.854c2.2564.112 12.9616 1.2478 13.2016 13.182-2.2402-.112-12.9615-1.2638-13.2015-13.182zM9.2172 13.434c0-2.5756.32-5.0553.6562-6.959l1.184 1.184c.8482.8477 2.2083.8477 3.0564 0L16.546 5.227 18.978 7.659c.848.8477 2.2083.8477 3.0564 0L24.467 5.227l2.432 2.4317c.8482.8477 2.2084.8477 3.0565 0l1.184-1.168c.3362 1.9197.6562 4.4154.6562 7.007 0 14.2378-8.497 14.2378-11.2813 14.2378S9.217 27.7198 9.217 13.434z"/></g></svg>