<?xml version="1.0" encoding="UTF-8"?>
<svg width="20px" height="20px" viewBox="0 0 20 20" version="1.1" xmlns="http://www.w3.org/2000/svg" xmlns:xlink="http://www.w3.org/1999/xlink">
    <!-- Generator: Sketch 41.2 (35397) - http://www.bohemiancoding.com/sketch -->
    <title>icon-heart-small</title>
    <desc>Created with Sketch.</desc>
    <defs></defs>
    <g id="Desktop" stroke="none" stroke-width="1" fill="none" fill-rule="evenodd">
        <g id="Desktop-Home-Worbbior" transform="translate(-175.000000, -2756.000000)" fill="#FFCB33">
            <path d="M180.339997,2758.2507 C181.436141,2758.2507 182.615942,2758.89256 183.667897,2760.05023 C182.75237,2761.51628 182.207945,2763.12465 182.172337,2764.47814 C182.144022,2765.42791 182.488095,2766.39488 183.087863,2767.06233 C183.607834,2767.64326 184.288258,2767.96465 185,2767.96465 C185.711742,2767.96465 186.387876,2767.64791 186.912137,2767.06233 C187.511905,2766.39488 187.855978,2765.42791 187.828092,2764.47814 C187.792055,2763.12093 187.248059,2761.51209 186.335965,2760.05023 C187.387919,2758.89256 188.56815,2758.2507 189.663864,2758.2507 C192.067656,2758.2507 192.927839,2760.28465 192.927839,2762.18372 C192.927839,2765.68791 187.979965,2770.74 185.003861,2773.22047 C182.028187,2770.73581 177.076022,2765.68791 177.076022,2762.17953 C177.076022,2760.28 177.931915,2758.2507 180.339997,2758.2507 M184.24793,2764.54279 C184.263804,2763.79721 184.53194,2762.89488 185,2761.98047 C185.471921,2762.89488 185.740057,2763.80186 185.755931,2764.54279 C185.764083,2764.88558 185.636235,2765.25814 185.423871,2765.49721 C185.175898,2765.77488 184.831825,2765.77907 184.571839,2765.49256 C184.364194,2765.26744 184.235917,2764.88977 184.24793,2764.54279 M189.663864,2756 C188.067914,2756 186.416191,2756.82419 185.00429,2758.31581 C183.588099,2756.81953 181.939809,2756 180.343859,2756 C177.148097,2756 175,2758.48047 175,2762.17953 C175,2768.12093 184.008108,2775.22372 184.39208,2775.52744 L185,2776 L185.604059,2775.52744 C185.98803,2775.22837 195,2768.18558 195,2762.17953 C195,2758.48047 192.855764,2756 189.663864,2756" id="icon-heart-small"></path>
        </g>
    </g>
</svg>