<svg xmlns="http://www.w3.org/2000/svg" height="24" viewBox="0 0 20 13"><path fill="#FFCB33" fill-rule="evenodd" d="M0 .7903c0-.5568.3937-.8165.8983-.571l4.2034 2.0464c.496.2415.8983.889.8983 1.4455v8.4985c0 .5568-.3937.8165-.8983.571L.8983 10.7342C.4023 10.4928 0 9.8453 0 9.2888V.7903zm7.3333 2.921c0-.557.401-1.228.8807-1.4907L11.786.2644c.4864-.2663.8807-.0305.8807.526v8.4984c0 .557-.401 1.2278-.8807 1.4906l-3.572 1.9562c-.4864.2663-.8807.0305-.8807-.526V3.7113zM14 .7902c0-.5568.3937-.8165.8983-.571l4.2034 2.0464c.496.2415.8983.889.8983 1.4455v8.4985c0 .5568-.3937.8165-.8983.571l-4.2034-2.0464c-.496-.2415-.8983-.889-.8983-1.4455V.7903z"/></svg>