<?xml version="1.0" encoding="UTF-8"?>
<svg width="20px" height="20px" viewBox="0 0 20 20" version="1.1" xmlns="http://www.w3.org/2000/svg" xmlns:xlink="http://www.w3.org/1999/xlink">
    <!-- Generator: Sketch 42 (36781) - http://www.bohemiancoding.com/sketch -->
    <title>icon-heart-small copy 2</title>
    <desc>Created with Sketch.</desc>
    <defs></defs>
    <g id="Desktop" stroke="none" stroke-width="1" fill="none" fill-rule="evenodd">
        <g id="Desktop-About-Worbby" transform="translate(-715.000000, -3283.000000)" fill="#FFCB33">
            <path d="M720.339997,3285.2507 C721.436141,3285.2507 722.615942,3285.89256 723.667897,3287.05023 C722.75237,3288.51628 722.207945,3290.12465 722.172337,3291.47814 C722.144022,3292.42791 722.488095,3293.39488 723.087863,3294.06233 C723.607834,3294.64326 724.288258,3294.96465 725,3294.96465 C725.711742,3294.96465 726.387876,3294.64791 726.912137,3294.06233 C727.511905,3293.39488 727.855978,3292.42791 727.828092,3291.47814 C727.792055,3290.12093 727.248059,3288.51209 726.335965,3287.05023 C727.387919,3285.89256 728.56815,3285.2507 729.663864,3285.2507 C732.067656,3285.2507 732.927839,3287.28465 732.927839,3289.18372 C732.927839,3292.68791 727.979965,3297.74 725.003861,3300.22047 C722.028187,3297.73581 717.076022,3292.68791 717.076022,3289.17953 C717.076022,3287.28 717.931915,3285.2507 720.339997,3285.2507 M724.24793,3291.54279 C724.263804,3290.79721 724.53194,3289.89488 725,3288.98047 C725.471921,3289.89488 725.740057,3290.80186 725.755931,3291.54279 C725.764083,3291.88558 725.636235,3292.25814 725.423871,3292.49721 C725.175898,3292.77488 724.831825,3292.77907 724.571839,3292.49256 C724.364194,3292.26744 724.235917,3291.88977 724.24793,3291.54279 M729.663864,3283 C728.067914,3283 726.416191,3283.82419 725.00429,3285.31581 C723.588099,3283.81953 721.939809,3283 720.343859,3283 C717.148097,3283 715,3285.48047 715,3289.17953 C715,3295.12093 724.008108,3302.22372 724.39208,3302.52744 L725,3303 L725.604059,3302.52744 C725.98803,3302.22837 735,3295.18558 735,3289.17953 C735,3285.48047 732.855764,3283 729.663864,3283" id="icon-heart-small-copy-2"></path>
        </g>
    </g>
</svg>