<?xml version="1.0" encoding="UTF-8"?>
<svg width="60px" height="60px" viewBox="0 0 60 60" version="1.1" xmlns="http://www.w3.org/2000/svg" xmlns:xlink="http://www.w3.org/1999/xlink">
    <!-- Generator: Sketch 42 (36781) - http://www.bohemiancoding.com/sketch -->
    <title>icon-car@1.5x</title>
    <desc>Created with Sketch.</desc>
    <defs>
        <linearGradient x1="0%" y1="49.9979293%" x2="99.9874969%" y2="49.9979293%" id="linearGradient-1">
            <stop stop-color="#FFB247" offset="0%"></stop>
            <stop stop-color="#FFCB33" offset="100%"></stop>
        </linearGradient>
    </defs>
    <g id="Desktop" stroke="none" stroke-width="1" fill="none" fill-rule="evenodd">
        <g id="main-interests-mega-drop" transform="translate(-660.000000, -97.000000)">
            <g id="Group-18">
                <g id="Group-Copy-2" transform="translate(30.000000, 77.000000)">
                    <g id="Group-2-Copy-3" transform="translate(540.000000, 0.000000)">
                        <g id="icon-cook" transform="translate(90.000000, 20.000000)">
                            <g id="icon-car">
                                <path d="M35,50 C48.807,50 60,38.807 60,25 C60,11.193 48.807,0 35,0 C21.193,0 10,11.193 10,25 C10,38.807 21.193,50 35,50" id="Fill-1" fill="url(#linearGradient-1)"></path>
                                <path d="M40.8081,50.1089 C32.2841,58.6319 18.4151,58.6319 9.8911,50.1089 C1.3681,41.5849 1.3681,27.7159 9.8911,19.1919 C14.1531,14.9299 19.7511,12.7989 25.3501,12.7989 C30.9481,12.7989 36.5461,14.9299 40.8081,19.1919 C49.3311,27.7159 49.3311,41.5849 40.8081,50.1089 L40.8081,50.1089 Z M43.2831,16.7169 C33.3951,6.8289 17.3041,6.8289 7.4161,16.7169 C-2.4719,26.6059 -2.4719,42.6949 7.4161,52.5839 C12.3601,57.5279 18.8551,59.9999 25.3501,59.9999 C31.8441,59.9999 38.3391,57.5279 43.2831,52.5839 C53.1711,42.6949 53.1711,26.6059 43.2831,16.7169 L43.2831,16.7169 Z M30.1481,32.9009 C30.0991,32.7629 30.0391,32.6299 29.9771,32.4969 L38.3311,24.1429 C40.4171,26.7169 41.6201,29.7709 41.9471,32.9009 L30.1481,32.9009 Z M27.1001,39.4489 C27.2371,39.3999 27.3701,39.3399 27.5031,39.2779 L35.8571,47.6319 C33.2831,49.7179 30.2291,50.9199 27.1001,51.2469 L27.1001,39.4489 Z M23.1961,39.2779 C23.3291,39.3399 23.4621,39.3999 23.6001,39.4489 L23.6001,51.2469 C20.4701,50.9199 17.4161,49.7179 14.8421,47.6319 L23.1961,39.2779 Z M23.6001,29.8519 C23.4621,29.9009 23.3291,29.9609 23.1961,30.0229 L14.8421,21.6689 C17.4161,19.5829 20.4701,18.3799 23.6001,18.0529 L23.6001,29.8519 Z M27.5031,30.0229 C27.3691,29.9609 27.2371,29.9009 27.1001,29.8519 L27.1001,18.0529 C30.2291,18.3799 33.2831,19.5829 35.8571,21.6689 L27.5031,30.0229 Z M24.2021,35.7979 C23.5691,35.1659 23.5691,34.1349 24.2021,33.5029 C24.5181,33.1869 24.9341,33.0279 25.3501,33.0279 C25.7661,33.0279 26.1811,33.1859 26.4971,33.5029 C27.1301,34.1349 27.1301,35.1649 26.4971,35.7979 C25.8631,36.4309 24.8331,36.4309 24.2021,35.7979 L24.2021,35.7979 Z M12.3681,24.1429 L20.7221,32.4969 C20.6601,32.6299 20.6001,32.7629 20.5511,32.9009 L8.7521,32.9009 C9.0791,29.7709 10.2821,26.7169 12.3681,24.1429 L12.3681,24.1429 Z M8.7521,36.4009 L20.5511,36.4009 C20.6001,36.5379 20.6601,36.6709 20.7221,36.8039 L12.3681,45.1579 C10.2821,42.5839 9.0791,39.5299 8.7521,36.4009 L8.7521,36.4009 Z M38.3311,45.1579 L29.9771,36.8039 C30.0391,36.6709 30.0991,36.5379 30.1481,36.4009 L41.9471,36.4009 C41.6201,39.5299 40.4171,42.5839 38.3311,45.1579 L38.3311,45.1579 Z M39.6351,20.3649 C31.7581,12.4879 18.9411,12.4879 11.0641,20.3649 C3.1871,28.2419 3.1871,41.0589 11.0641,48.9359 C15.0031,52.8739 20.1761,54.8429 25.3501,54.8429 C30.5231,54.8429 35.6961,52.8739 39.6351,48.9359 C47.5121,41.0589 47.5121,28.2419 39.6351,20.3649 L39.6351,20.3649 Z" id="Fill-3" fill="#1E2225"></path>
                            </g>
                        </g>
                    </g>
                </g>
            </g>
        </g>
    </g>
</svg>