<svg xmlns="http://www.w3.org/2000/svg" width="80" height="80"><defs><linearGradient id="a" x1="0%" x2="99.9875%" y1="49.9979%" y2="49.9979%"><stop stop-color="#FFB247" offset="0%"/><stop stop-color="#FFCB33" offset="100%"/></linearGradient></defs><g fill="none" fill-rule="evenodd"><circle cx="27.5" cy="52.5" r="27.5" fill="url(#a)"/><path fill="#1E2225" fill-rule="nonzero" d="M79.98 35.9293C79.81 18.462 66.122 4.1688 48.8764 2.9493V2.38c0-1.3147-1.0682-2.38-2.3866-2.38s-2.3867 1.0653-2.3867 2.38v.5693C26.7555 4.1755 13.0086 18.6343 13 36.2433c0 1.074.7198 2.0145 1.7594 2.2973.208.057.419.0838.6272.0838.8306 0 1.62-.4332 2.0563-1.173 1.2438-2.1067 3.5417-3.5213 5.7202-3.5213 2.1727 0 4.3942 1.3824 5.6562 3.5215.4287.7273 1.2115 1.173 2.0563 1.173h.001c.8458 0 1.6286-.4476 2.0563-1.174 1.221-2.0734 3.599-3.5204 5.7813-3.5204 2.0058 0 4.1002 1.2053 5.389 3.035v33.3094c0 5.3626 4.376 9.7256 9.7555 9.7256 5.3795 0 9.7556-4.363 9.7556-9.7256 0-1.3147-1.0683-2.38-2.3866-2.38-1.3184 0-2.3867 1.0653-2.3867 2.38 0 2.738-2.2347 4.9656-4.9822 4.9656-2.7474 0-4.9823-2.2276-4.9823-4.9656V36.966c1.2936-1.8316 3.388-3.036 5.388-3.036 2.188 0 4.4907 1.4147 5.7318 3.5206.4276.7273 1.2105 1.1738 2.0563 1.1738h.001c.8457 0 1.6276-.4465 2.0562-1.172 1.244-2.1067 3.537-3.5223 5.707-3.5223 2.1775 0 4.4772 1.4157 5.723 3.5234.443.7492 1.2315 1.1614 2.0907 1.171 1.3107-.0096 2.3694-1.071 2.3694-2.38.001-.1076-.0058-.2123-.02-.315zM69.8166 29.169c-2.8162 0-5.6295 1.2263-7.7632 3.273-2.1346-2.0467-4.9575-3.273-7.789-3.273-2.82 0-5.6362 1.2263-7.7727 3.273-2.1317-2.0467-4.9508-3.273-7.7765-3.273-2.8525 0-5.6916 1.2263-7.8338 3.273-2.126-2.0467-4.9222-3.273-7.7174-3.273-1.636 0-3.2705.4124-4.7703 1.156C21.1412 17.37 32.6972 7.616 46.491 7.616c13.7945 0 25.3524 9.754 28.1 22.7108-1.5037-.7454-3.139-1.1577-4.7743-1.1577z"/></g></svg>