<svg xmlns="http://www.w3.org/2000/svg" width="80" height="80"><g fill="none" fill-rule="evenodd"><circle cx="52.6667" cy="52.6667" r="26.6667" fill="#FFF"/><path fill="#FFB247" fill-rule="nonzero" d="M30 45c4.664 0 8.65-2.9026 10.25-7h-20.5c1.6 4.0974 5.586 7 10.25 7zm0-45C6.468 0 0 6.468 0 30s6.384 30 30 30 30-6.384 30-30S53.532 0 30 0zm0 55.716C8.856 55.716 4.284 51.144 4.284 30 4.284 8.856 8.856 4.284 30 4.284c21.144 0 25.716 4.572 25.716 25.716 0 21.144-4.572 25.716-25.716 25.716zM19.284 26.494c2.1664 0 3.926-1.7596 3.926-3.926 0-2.1664-1.7596-3.926-3.926-3.926-2.1664 0-3.926 1.7596-3.926 3.926 0 2.1664 1.7596 3.926 3.926 3.926zm21.432-5.923c-2.9158 0-5.284.895-5.284 1.997s2.3682 1.997 5.284 1.997S46 23.67 46 22.568s-2.3682-1.997-5.284-1.997zM45 34c0 8.2843-6.7157 15-15 15s-15-6.7157-15-15h30z"/></g></svg>