<svg xmlns="http://www.w3.org/2000/svg" width="45" height="45"><defs><linearGradient id="a" x1="0%" x2="99.9875%" y1="49.9979%" y2="49.9979%"><stop stop-color="#FFB247" offset="0%"/><stop stop-color="#FFCB33" offset="100%"/></linearGradient></defs><g fill="none" fill-rule="evenodd"><path fill="url(#a)" d="M45 18.75C45 8.3948 36.6052 0 26.25 0S7.5 8.3948 7.5 18.75c0 10.3553 8.3948 18.75 18.75 18.75S45 29.1053 45 18.75z"/><path fill="#1E2225" d="M33.8646 42.375H26.123v-12.51c0-.7245-.588-1.3125-1.3124-1.3125h-6.9113c-.7245 0-1.3125.588-1.3125 1.3125v12.51H8.8446V23.4982l12.51-12.51 12.51 12.51V42.375zm-14.6528 0h4.2863V31.1775H19.212V42.375zm22.422-14.82l-5.5275-5.5275c-.0007 0-.0007-.0008-.0014-.0015L22.2828 8.2035c-.0622-.0623-.1304-.117-.2024-.165-.045-.03-.0938-.0518-.1418-.0758-.0284-.0142-.0555-.0322-.0847-.0442-.0546-.0225-.1117-.0367-.1686-.0518-.0256-.0067-.0503-.0172-.0758-.0225-.168-.033-.3412-.033-.5093 0-.0262.0053-.0502.0158-.0765.0225-.0562.015-.1132.0293-.1687.0518-.0292.012-.0554.03-.084.0442-.048.024-.0967.0458-.1417.0758-.0727.048-.1402.1027-.2024.165L6.6043 22.026c-.0008.0008-.0015.0015-.0015.0023L.3845 28.2464c-.513.5122-.513 1.3432 0 1.8555.2565.2565.5917.3848.9277.3848.336 0 .672-.1283.9278-.3848l3.9796-3.9788v17.5643c0 .7245.588 1.3125 1.3125 1.3125h27.6451c.7246 0 1.3126-.588 1.3126-1.3125V26.1232l3.288 3.288c.513.5123 1.344.5123 1.8563 0 .512-.5122.512-1.344 0-1.8562z"/></g></svg>