<svg xmlns="http://www.w3.org/2000/svg" width="80" height="80"><defs><linearGradient id="a" x1="0%" x2="99.9875%" y1="49.9979%" y2="49.9979%"><stop stop-color="#FFB247" offset="0%"/><stop stop-color="#FFCB33" offset="100%"/></linearGradient></defs><g fill="none" fill-rule="evenodd"><path fill="url(#a)" d="M.7843 33.3782c0 18.0374 14.6314 32.6598 32.6798 32.6598S66.144 51.4156 66.144 33.3782C66.1438 15.341 51.5124.7185 33.464.7185 15.4158.7185.7844 15.341.7844 33.3782"/><path fill="#1E2225" d="M40.7807 36.2054c2.8732 0 5.9673 1.5507 8.7254 4.349-2.4012 3.543-3.8273 7.4307-3.9227 10.702-.0732 2.294.8287 4.631 2.4026 6.2458 1.3633 1.4043 3.145 2.1803 5.0116 2.1803 1.8667 0 3.6393-.7655 5.013-2.1803 1.5727-1.6147 2.4746-3.952 2.4014-6.246-.094-3.2815-1.5202-7.1707-3.911-10.7018 2.758-2.7983 5.851-4.349 8.7254-4.349 6.302 0 8.557 4.916 8.557 9.5053 0 8.4693-12.9727 20.6775-20.7753 26.6725C45.207 66.3792 32.224 54.18 32.224 45.7015c0-4.592 2.243-9.496 8.557-9.496M51.0263 51.413c.0418-1.8027.745-3.983 1.9712-6.1948 1.238 2.2117 1.9412 4.4025 1.983 6.195.021.8268-.315 1.7282-.8705 2.3043-.651.6715-1.553.682-2.234-.0104-.545-.5447-.881-1.4565-.8496-2.294m14.2-20.6474c-4.1843 0-8.515 1.991-12.2183 5.5966-3.711-3.6148-8.0326-5.5966-12.217-5.5966-8.379 0-14.0103 5.995-14.0103 14.936 0 14.3572 23.617 31.523 24.6235 32.2586l1.5934 1.1418 1.5844-1.1418c1.0065-.7237 24.634-17.7447 24.634-32.2587 0-8.941-5.621-14.936-13.9896-14.936"/></g></svg>