<svg xmlns="http://www.w3.org/2000/svg" width="13" height="16"><path fill="#DE5042" fill-rule="evenodd" d="M4.828 1.3333H1.1767C.5256 1.3333 0 1.9303 0 2.6667V4h13V2.6667c0-.7415-.5268-1.3334-1.1766-1.3334H8.172C7.9284.5565 7.272 0 6.5 0c-.772 0-1.4285.5565-1.672 1.3333zm-3.6462 4h10.6364v9.3373c0 .7342-.5275 1.3294-1.179 1.3294H2.3608c-.651 0-1.179-.604-1.179-1.3294V5.3333zm2.3637 1.988v6.6907c0 .3508.2645.6547.591.6547.3167 0 .5908-.293.5908-.6547V7.3213c0-.3508-.2646-.6546-.591-.6546-.3167 0-.5908.293-.5908.6546zm2.3636 0v6.6907c0 .3508.2646.6547.591.6547.3168 0 .591-.293.591-.6547V7.3213c0-.3508-.2646-.6546-.591-.6546-.3168 0-.591.293-.591.6546zm2.3637 0v6.6907c0 .3508.2646.6547.591.6547.3167 0 .5908-.293.5908-.6547V7.3213c0-.3508-.2645-.6546-.591-.6546-.3167 0-.5908.293-.5908.6546z"/></svg>