<?xml version="1.0" encoding="UTF-8"?>
<svg width="60px" height="60px" viewBox="0 0 60 60" version="1.1" xmlns="http://www.w3.org/2000/svg" xmlns:xlink="http://www.w3.org/1999/xlink">
    <!-- Generator: Sketch 42 (36781) - http://www.bohemiancoding.com/sketch -->
    <title>icon-map copy 5</title>
    <desc>Created with Sketch.</desc>
    <defs>
        <circle id="path-1" cx="20" cy="20" r="20"></circle>
        <filter x="-50%" y="-50%" width="200%" height="200%" filterUnits="objectBoundingBox" id="filter-2">
            <feOffset dx="0" dy="0" in="SourceAlpha" result="shadowOffsetOuter1"></feOffset>
            <feGaussianBlur stdDeviation="5" in="shadowOffsetOuter1" result="shadowBlurOuter1"></feGaussianBlur>
            <feColorMatrix values="0 0 0 0 0.564705882   0 0 0 0 0.639215686   0 0 0 0 0.694117647  0 0 0 0.295120018 0" type="matrix" in="shadowBlurOuter1"></feColorMatrix>
        </filter>
    </defs>
    <g id="Desktop" stroke="none" stroke-width="1" fill="none" fill-rule="evenodd">
        <g id="Desktop-Needor-Map" transform="translate(-597.000000, -509.000000)">
            <g id="icon-map-copy-5" transform="translate(607.208153, 519.208153)">
                <g id="Oval-Copy-2">
                    <use fill="black" fill-opacity="1" filter="url(#filter-2)" xlink:href="#path-1"></use>
                    <use fill="#FFCB33" fill-rule="evenodd" xlink:href="#path-1"></use>
                </g>
                <path d="M24.1171898,23.5597447 C24.0377558,23.5037425 23.3228497,22.9437203 23.3228497,21.6476689 C23.3228497,21.6036671 23.3051977,21.5676657 23.2963716,21.5276641 C24.0907118,20.7076316 24.4305129,19.7235926 24.5496639,19.279575 C24.933595,17.8555185 24.840922,15.5994291 24.832096,15.471424 C24.7835529,15.0234063 24.7085319,14.5953893 24.6070329,14.2033737 C26.0324322,11.8712813 24.6688149,10.275218 24.6114459,10.2072153 C24.4437519,10.0152077 24.1480808,9.94720501 23.9009528,10.0432088 C23.8877138,10.047209 22.6608995,10.4952267 19.858644,10.4952267 L19.1304988,10.4912266 C17.7757075,10.4912266 16.2576352,10.5952307 15.3882741,11.8152791 C14.5586299,12.9833254 14.982278,14.9754044 15.127907,15.5434269 C15.114668,15.8634396 15.057299,17.9395219 15.4147521,19.279575 C15.5383161,19.7315929 15.8869432,20.7316326 16.7033483,21.5596654 C16.6989353,21.5876665 16.6856963,21.6156676 16.6856963,21.6476689 C16.6856963,22.9237195 15.9928552,23.4877418 15.9045952,23.5557445 C10.167694,26.6278663 10,29.167967 10,29.4479781 C10,29.74799 10.2647801,29.9879995 10.5957551,29.9959998 L10.6089941,29.9959998 C10.9355562,29.9959998 11.2047492,29.7559903 11.2179882,29.4599786 C11.2179882,29.4399778 11.3812693,27.3358944 16.2929393,24.6317872 L16.6945223,25.8198343 C16.7121743,25.8918371 17.1623004,27.5959047 19.99986,27.5959047 C22.6167695,27.5959047 23.1639816,26.2278505 23.2478286,25.9558397 L23.7023677,24.627787 C28.5699077,27.299893 28.7773187,29.3959761 28.7817317,29.4559784 C28.7905577,29.7559903 29.0597508,30 29.3907259,30 C29.7261139,30 29.99972,29.7519902 29.99972,29.4479781 C30.008546,29.167967 29.845265,26.6438669 24.1171898,23.5597447 L24.1171898,23.5597447 Z M16.4165033,12.4113027 C16.9019334,11.7272756 17.7801206,11.5952704 19.1304988,11.5952704 L19.858644,11.5992705 C21.9018634,11.5992705 23.1948726,11.3752616 23.8524098,11.2152553 C24.0598208,11.6672732 24.2628188,12.5753092 23.4640657,13.7953576 L23.4640657,13.7953576 L23.4640657,13.7953576 C23.2831326,14.0273668 22.3034465,14.3913812 20.7897872,14.4233825 C19.7306669,14.4473834 18.8039368,14.2953774 18.3096807,14.0153663 C18.1684646,13.9353631 17.9963576,13.9113622 17.8374896,13.9473636 C17.6786215,13.983365 17.5374055,14.0793688 17.4579715,14.2113741 C17.4535585,14.2193744 17.0784534,14.7673961 16.2488092,14.9354028 C16.0987672,14.1993736 15.9884422,13.0113265 16.4165033,12.4113027 L16.4165033,12.4113027 Z M22.0739704,25.6718284 C22.0651444,25.7038297 21.8047774,26.4878608 20.004273,26.4878608 C18.1861166,26.4878608 17.8992716,25.6038257 17.8772066,25.535823 L17.2726254,23.7517523 C17.5021015,23.4237393 17.7227515,22.9717214 17.8286636,22.3796979 C18.4067667,22.6637092 19.1128468,22.8517166 19.977795,22.8517166 C20.8603952,22.8517166 21.5753013,22.659709 22.1622304,22.3636973 C22.2681424,22.963721 22.4932055,23.4237393 22.7226815,23.7557524 L22.0739704,25.6718284 L22.0739704,25.6718284 Z M19.986621,21.7476728 C17.5947745,21.7476728 16.8269124,19.8395972 16.6062623,19.0195647 C16.3635473,18.119529 16.3370693,16.7634752 16.3458953,16.0434467 C17.2240824,15.9114415 17.8198376,15.4994251 18.1596386,15.1754123 C18.8524798,15.4274223 19.792449,15.5554274 20.8206782,15.5274262 C21.7341693,15.5074254 22.7756375,15.3634197 23.5479127,15.0474072 C23.5743907,15.2114137 23.6052817,15.3794204 23.6229337,15.547427 C23.6229337,15.5674278 23.7111937,17.7435141 23.3713927,19.0195647 C23.1463296,19.835597 22.3740545,21.7476728 19.986621,21.7476728 L19.986621,21.7476728 Z" id="Shape" fill="#FFFFFF"></path>
            </g>
        </g>
    </g>
</svg>