<?xml version="1.0" encoding="UTF-8"?>
<svg width="10px" height="14px" viewBox="0 0 10 14" version="1.1" xmlns="http://www.w3.org/2000/svg" xmlns:xlink="http://www.w3.org/1999/xlink">
    <!-- Generator: Sketch 42 (36781) - http://www.bohemiancoding.com/sketch -->
    <title>icon-location</title>
    <desc>Created with Sketch.</desc>
    <defs></defs>
    <g id="Desktop" stroke="none" stroke-width="1" fill="none" fill-rule="evenodd">
        <g id="Desktop-Needor-Search-Results" transform="translate(-647.000000, -772.000000)" fill="#90A3B1">
            <g id="profile-copy-2" transform="translate(175.000000, 670.000000)">
                <g id="location" transform="translate(431.000000, 101.000000)">
                    <g id="icon-location" transform="translate(41.000000, 1.000000)">
                        <path d="M4.99854862,2.5816 C3.71843251,2.5816 2.67634253,3.5868 2.67634253,4.8216 C2.67634253,6.0564 3.71843251,7.0616 4.99854862,7.0616 C6.27866473,7.0616 7.32075472,6.0564 7.32075472,4.8216 C7.32075472,3.5868 6.27866473,2.5816 4.99854862,2.5816 L4.99854862,2.5816 Z M4.99854862,-5.32907052e-14 C7.7532656,-5.32907052e-14 9.99709724,2.1616 10,4.8216 C10,9.3044 5.52975327,13.678 5.34107402,13.8628 C5.24818578,13.9496 5.12917271,14 4.99854862,14 C4.86792453,14 4.74600871,13.9496 4.65602322,13.8628 C4.46734398,13.6808 0,9.3044 0,4.8216 C0,2.1616 2.24092888,-5.32907052e-14 4.99854862,-5.32907052e-14 Z"></path>
                    </g>
                </g>
            </g>
        </g>
    </g>
</svg>