<svg xmlns="http://www.w3.org/2000/svg" width="80" height="80"><defs><linearGradient id="a" x1="0%" x2="99.9875%" y1="49.9979%" y2="49.9979%"><stop stop-color="#FFB247" offset="0%"/><stop stop-color="#FFCB33" offset="100%"/></linearGradient></defs><g fill="none" fill-rule="evenodd"><circle cx="47.5" cy="32.5" r="32.5" fill="url(#a)"/><path fill="#1E2225" fill-rule="nonzero" d="M18.2005 60.407v9.0066c0 2.9803 2.4326 5.405 5.4232 5.405 2.9907 0 5.4233-2.4247 5.4233-5.405 0-1.431 1.1628-2.5906 2.5978-2.5906 1.435 0 2.598 1.1596 2.598 2.5906C34.2427 75.251 29.4792 80 23.6237 80c-5.8556 0-10.619-4.749-10.619-10.5864V60.407H2.177C.9747 60.407 0 59.432 0 58.23c0-.1726.0205-.3444.061-.512L13.622 1.6656C13.905.497 15.0815-.2212 16.25.0616c.793.1918 1.4122.811 1.604 1.604L31.415 57.718c.2828 1.1686-.4353 2.345-1.604 2.628-.1676.0404-.3394.061-.512.061H18.2006zM6.3268 54.9643h18.8226l-9.4113-38.9-9.4112 38.9z"/></g></svg>