<svg xmlns="http://www.w3.org/2000/svg" width="512" height="512" viewBox="0 0 32 32"><g fill="#ffcb33"><path d="M28 6h-4l-4-4h-8.001L8 6H4s-4 0-4 4v12c0 4 4 4 4 4h11.518c1.614 2.411 4.361 3.999 7.482 4 3.875-.002 7.167-2.454 8.436-5.889C31.995 23.076 32 22 32 22V10l-4-4zM14.033 21.66C11.686 20.848 10 18.626 10 16c0-3.312 2.684-6 6-6 1.914 0 3.607.908 4.706 2.306C16.848 13.321 14 16.822 14 21c0 .223.018.441.033.66zM23 27.883c-3.801-.009-6.876-3.084-6.885-6.883.009-3.801 3.084-6.876 6.885-6.885 3.799.009 6.874 3.084 6.883 6.885-.009 3.799-3.084 6.874-6.883 6.883z"/><path d="M24.002 16H22v4h-4v2h4v4h2.002v-4H28v-2h-3.998"/></g></svg>