<svg xmlns="http://www.w3.org/2000/svg" id="Camada_1" viewBox="0 0 259.3 48.5"><style>.st0{fill:url(#SVGID_1_);} .st1{fill:#1E2225;} .st2{fill:#474747;} .st3{font-family:&apos;FilsonSoftRegular&apos;;} .st4{font-size:12px;}</style><g id="Layer_2"><g id="Style_Guide"><linearGradient id="SVGID_1_" x2="79.98" y1="30.9292" y2="30.9292" gradientUnits="userSpaceOnUse" gradientTransform="matrix(1 0 0 -1 0 50)"><stop offset="0" stop-color="#FFB247"/><stop offset="1" stop-color="#FFCB33"/></linearGradient><path d="M76.9 3.7c-1.7 0-3.1 1.4-3.1 3.1 0 15.5-9.6 17.8-15.4 17.8-.7 0-1.4-.1-2-.3-2-.8-3.7-2.2-4.8-4-1.8-2.7-2.9-5.9-3-9.1-.1-1.3.3-2.7 1-3.8.6-.8 1.6-1.2 2.7-1.1 1 0 1.3.4 1.4.6.5.9.7 2 .6 3-.1 2.6-.6 5.2-1.5 7.7 1.2 2.2 2.8 4.1 4.7 4.6 1.8-3.9 2.8-8 3-12.3.1-2.3-.5-4.6-1.8-6.5C57.2 1.3 54.8.2 52.3.2c-3-.1-5.8 1.2-7.6 3.6-1.5 2.2-2.3 4.8-2.2 7.5.1 5.4 2.2 10.7 5.7 14.8-2.7 3.4-5.8 5.9-8.2 5.9s-5.6-2.5-8.3-6.1c-1.3-1.8-2.4-3.7-3.4-5.6-1.6-3.3-2.6-6.9-2.7-10.5-.1-1 .1-2.1.6-3 .1-.2.4-.6 1.4-.6 1-.1 2 .3 2.6 1.1.7 1.1 1.1 2.5 1 3.8-.1 2.2-.6 4.4-1.5 6.4.9 2.2 2.1 4.4 3.5 6.3 2.6-3.8 4-8.2 4.1-12.7.1-2.7-.7-5.3-2.2-7.5-1.8-2.4-4.6-3.7-7.6-3.6-2.5-.1-4.9 1.1-6.4 3.2-1.2 1.9-1.9 4.2-1.8 6.5 0 4.3 1.5 9.6 4 14.6-.6.2-1.3.3-2 .3-5.7 0-15.4-2.3-15.4-17.8.1-1.7-1.5-3-3.1-2.8C1.3 4.2.1 5.3 0 6.8c0 14.8 8.3 24 21.5 24 1.8 0 3.6-.4 5.3-1.2 3.6 4.9 8.3 8.6 13.2 8.6s9.6-3.6 13.2-8.5c1.6.8 3.4 1.2 5.3 1.2 13.3 0 21.5-9.2 21.5-24 0-1.8-1.4-3.2-3.1-3.2z" class="st0"/><path d="M98.8 36.1l-7.7-21.2c-.4-1.3.2-2 1.4-2h1.6c.9-.1 1.8.5 2.1 1.4l5.7 16.4 5-15.6c.2-.9 1.1-1.6 2-1.5h1.1c1-.1 1.8.6 2 1.5l5 15.6 5.7-16.4c.2-.9 1.1-1.5 2.1-1.4h1.6c1.3 0 1.9.7 1.4 2l-7.6 21.2c-.3.9-1.2 1.5-2.1 1.4h-1.6c-.9 0-1.8-.6-2-1.5l-5-15.4-5 15.4c-.2.9-1.1 1.5-2 1.5h-1.6c-1.1.1-1.9-.5-2.1-1.4zM129.4 25.2c-.1-7.2 5.7-13 12.9-13.1s13 5.7 13.1 12.9-5.7 13-12.9 13.1h-.1c-7.1 0-12.9-5.7-13-12.9.1 0 .1 0 0 0zm21 0c0-4.4-3.6-8-8-8s-8 3.6-8 8 3.6 8 8 8 8-3.6 8-8zM159.9 35.8V14.6c-.1-.9.6-1.7 1.5-1.8h1.8c.9-.1 1.7.5 1.8 1.4v4c.8-3.9 3.6-6.1 6.6-6.1h1.1c1 .1 1.2 1 1.2 2v1.4c0 1.2-.5 1.7-1.3 1.5-.4-.1-.9-.1-1.3-.1-1.8 0-6.2.9-6.2 11v7.6c.1.9-.5 1.7-1.4 1.8h-1.8c-.9.1-1.7-.6-1.8-1.5-.3.2-.3.1-.2 0zM181.9 33.6v2.1c.1.9-.5 1.7-1.4 1.8h-1.8c-.9.1-1.7-.5-1.8-1.4V3.8c-.1-.9.6-1.7 1.5-1.8h1.8c.9-.1 1.7.5 1.8 1.4v13.3c2-2.9 5.3-4.6 8.9-4.4 7.3 0 12.2 5.8 12.2 12.8S198.2 38 190.9 38c-3.7.2-7-1.5-9-4.4zm16-8.4c0-4.6-2.9-8.5-7.9-8.5-4.8 0-8.2 3.6-8.2 8.5s3.4 8.5 8.2 8.5c5-.1 7.9-3.9 7.9-8.5zM212.5 33.6v2.1c.1.9-.5 1.7-1.4 1.8h-1.8c-.9.1-1.7-.5-1.8-1.4V3.8c-.1-.9.6-1.7 1.5-1.8h1.8c.9-.1 1.7.5 1.8 1.4v13.3c2-2.9 5.3-4.6 8.9-4.4 7.3 0 12.2 5.8 12.2 12.8S228.8 38 221.5 38c-3.7.2-7-1.5-9-4.4zm16-8.4c0-4.6-2.9-8.5-7.9-8.5-4.8 0-8.2 3.6-8.2 8.5s3.4 8.5 8.2 8.5c5-.1 7.9-3.9 7.9-8.5zM240.8 46.5l3.8-9.9-9.4-21.7c-.5-1.2 0-2.1 1.4-2.1h2c.9-.1 1.7.5 2 1.4l6.8 16.7 6.3-16.6c.3-.9 1.2-1.5 2.1-1.4h2c1.3 0 1.9.8 1.4 2.1l-13.7 32.2c-.3.9-1.1 1.5-2.1 1.4h-1.2c-1.4-.1-1.9-.9-1.4-2.1z" class="st1"/></g></g><text transform="translate(206.347 48.792)" class="st2 st3 st4">BETA</text></svg>