<?xml version="1.0" encoding="utf-8"?>
<!-- Generator: Adobe Illustrator 21.0.0, SVG Export Plug-In . SVG Version: 6.00 Build 0)  -->
<svg version="1.1" id="Camada_1" xmlns="http://www.w3.org/2000/svg" xmlns:xlink="http://www.w3.org/1999/xlink" x="0px" y="0px"
	 viewBox="0 0 259.3 48.5" style="enable-background:new 0 0 259.3 48.5;" xml:space="preserve">
<style type="text/css">
	.st0{display:none;fill:#1C1A1A;}
	.st1{fill:url(#SVGID_1_);}
	.st2{fill:#FFFFFF;}
	.st3{fill:#FCFCFC;}
	.st4{font-family:'FilsonSoftRegular';}
	.st5{font-size:12px;}
</style>
<rect x="-33" y="-24" class="st0" width="321" height="140"/>
<title>Asset 10</title>
<g id="Layer_2">
	<g id="Style_Guide">
		
			<linearGradient id="SVGID_1_" gradientUnits="userSpaceOnUse" x1="0" y1="30.9292" x2="79.98" y2="30.9292" gradientTransform="matrix(1 0 0 -1 0 50)">
			<stop  offset="0" style="stop-color:#FFB247"/>
			<stop  offset="1" style="stop-color:#FFCB33"/>
		</linearGradient>
		<path class="st1" d="M76.9,3.7c-1.7,0-3.1,1.4-3.1,3.1c0,0,0,0,0,0c0,15.5-9.6,17.8-15.4,17.8c-0.7,0-1.4-0.1-2-0.3
			c-2-0.8-3.7-2.2-4.8-4c-1.8-2.7-2.9-5.9-3-9.1c-0.1-1.3,0.3-2.7,1-3.8c0.6-0.8,1.6-1.2,2.7-1.1c1,0,1.3,0.4,1.4,0.6
			c0.5,0.9,0.7,2,0.6,3c-0.1,2.6-0.6,5.2-1.5,7.7c1.2,2.2,2.8,4.1,4.7,4.6c1.8-3.9,2.8-8,3-12.3c0.1-2.3-0.5-4.6-1.8-6.5
			c-1.5-2.1-3.9-3.2-6.4-3.2c-3-0.1-5.8,1.2-7.6,3.6c-1.5,2.2-2.3,4.8-2.2,7.5c0.1,5.4,2.2,10.7,5.7,14.8C45.5,29.5,42.4,32,40,32
			s-5.6-2.5-8.3-6.1l0,0c-1.3-1.8-2.4-3.7-3.4-5.6l0,0c-1.6-3.3-2.6-6.9-2.7-10.5c-0.1-1,0.1-2.1,0.6-3c0.1-0.2,0.4-0.6,1.4-0.6
			c1-0.1,2,0.3,2.6,1.1c0.7,1.1,1.1,2.5,1,3.8c-0.1,2.2-0.6,4.4-1.5,6.4c0.9,2.2,2.1,4.4,3.5,6.3c2.6-3.8,4-8.2,4.1-12.7
			c0.1-2.7-0.7-5.3-2.2-7.5c-1.8-2.4-4.6-3.7-7.6-3.6c-2.5-0.1-4.9,1.1-6.4,3.2c-1.2,1.9-1.9,4.2-1.8,6.5c0,4.3,1.5,9.6,4,14.6
			c-0.6,0.2-1.3,0.3-2,0.3c-5.7,0-15.4-2.3-15.4-17.8C6,5.1,4.4,3.8,2.8,4C1.3,4.2,0.1,5.3,0,6.8c0,14.8,8.3,24,21.5,24
			c1.8,0,3.6-0.4,5.3-1.2c3.6,4.9,8.3,8.6,13.2,8.6s9.6-3.6,13.2-8.5c1.6,0.8,3.4,1.2,5.3,1.2c13.3,0,21.5-9.2,21.5-24
			C80,5.1,78.6,3.7,76.9,3.7C76.9,3.7,76.9,3.7,76.9,3.7z"/>
		<path class="st2" d="M98.8,36.1l-7.7-21.2c-0.4-1.3,0.2-2,1.4-2h1.6c0.9-0.1,1.8,0.5,2.1,1.4l5.7,16.4l5-15.6
			c0.2-0.9,1.1-1.6,2-1.5h1.1c1-0.1,1.8,0.6,2,1.5l5,15.6l5.7-16.4c0.2-0.9,1.1-1.5,2.1-1.4h1.6c1.3,0,1.9,0.7,1.4,2l-7.6,21.2
			c-0.3,0.9-1.2,1.5-2.1,1.4h-1.6c-0.9,0-1.8-0.6-2-1.5l-5-15.4l-5,15.4c-0.2,0.9-1.1,1.5-2,1.5h-1.6C99.8,37.6,99,37,98.8,36.1z"/>
		<path class="st2" d="M129.4,25.2c-0.1-7.2,5.7-13,12.9-13.1s13,5.7,13.1,12.9s-5.7,13-12.9,13.1c0,0-0.1,0-0.1,0
			C135.3,38.1,129.5,32.4,129.4,25.2C129.5,25.2,129.5,25.2,129.4,25.2z M150.4,25.2c0-4.4-3.6-8-8-8s-8,3.6-8,8s3.6,8,8,8
			S150.4,29.6,150.4,25.2z"/>
		<path class="st2" d="M159.9,35.8V14.6c-0.1-0.9,0.6-1.7,1.5-1.8c0.1,0,0.2,0,0.3,0h1.5c0.9-0.1,1.7,0.5,1.8,1.4c0,0.1,0,0.2,0,0.3
			v3.7c0.8-3.9,3.6-6.1,6.6-6.1h1.1c1,0.1,1.2,1,1.2,2v1.4c0,1.2-0.5,1.7-1.3,1.5c-0.4-0.1-0.9-0.1-1.3-0.1c-1.8,0-6.2,0.9-6.2,11
			v7.6c0.1,0.9-0.5,1.7-1.4,1.8c-0.1,0-0.2,0-0.3,0h-1.5c-0.9,0.1-1.7-0.6-1.8-1.5C159.8,36,159.8,35.9,159.9,35.8z"/>
		<path class="st2" d="M181.9,33.6v2.1c0.1,0.9-0.5,1.7-1.4,1.8c-0.1,0-0.2,0-0.3,0h-1.5c-0.9,0.1-1.7-0.5-1.8-1.4
			c0-0.1,0-0.2,0-0.3v-32c-0.1-0.9,0.6-1.7,1.5-1.8c0.1,0,0.2,0,0.3,0h1.5c0.9-0.1,1.7,0.5,1.8,1.4c0,0.1,0,0.2,0,0.3v13
			c2-2.9,5.3-4.6,8.9-4.4c7.3,0,12.2,5.8,12.2,12.8s-4.9,12.9-12.2,12.9C187.2,38.2,183.9,36.5,181.9,33.6z M197.9,25.2
			c0-4.6-2.9-8.5-7.9-8.5c-4.8,0-8.2,3.6-8.2,8.5s3.4,8.5,8.2,8.5C195,33.6,197.9,29.8,197.9,25.2L197.9,25.2z"/>
		<path class="st2" d="M212.5,33.6v2.1c0.1,0.9-0.5,1.7-1.4,1.8c-0.1,0-0.2,0-0.3,0h-1.5c-0.9,0.1-1.7-0.5-1.8-1.4
			c0-0.1,0-0.2,0-0.3v-32c-0.1-0.9,0.6-1.7,1.5-1.8c0.1,0,0.2,0,0.3,0h1.5c0.9-0.1,1.7,0.5,1.8,1.4c0,0.1,0,0.2,0,0.3v13
			c2-2.9,5.3-4.6,8.9-4.4c7.3,0,12.2,5.8,12.2,12.8s-4.9,12.9-12.2,12.9C217.8,38.2,214.5,36.5,212.5,33.6z M228.5,25.2
			c0-4.6-2.9-8.5-7.9-8.5c-4.8,0-8.2,3.6-8.2,8.5s3.4,8.5,8.2,8.5C225.6,33.6,228.5,29.8,228.5,25.2L228.5,25.2z"/>
		<path class="st2" d="M240.8,46.5l3.8-9.9l-9.4-21.7c-0.5-1.2,0-2.1,1.4-2.1h2c0.9-0.1,1.7,0.5,2,1.4l6.8,16.7l6.3-16.6
			c0.3-0.9,1.2-1.5,2.1-1.4h2c1.3,0,1.9,0.8,1.4,2.1l-13.7,32.2c-0.3,0.9-1.1,1.5-2.1,1.4h-1.2C240.8,48.5,240.3,47.7,240.8,46.5z"
			/>
	</g>
</g>
<text transform="matrix(1 0 0 1 207.384 48.557)" class="st3 st4 st5">BETA</text>
</svg>
