<svg xmlns="http://www.w3.org/2000/svg" viewBox="0 0 259.31 48.55"><g fill="#fff" data-name="Style Guide"><path d="M76.89 3.69a3.08 3.08 0 0 0-3.08 3.08c0 15.52-9.63 17.84-15.38 17.84a6.12 6.12 0 0 1-2-.34 10.09 10.09 0 0 1-4.8-4 17.34 17.34 0 0 1-3-9.11 6.54 6.54 0 0 1 1-3.83 3 3 0 0 1 2.65-1.12c1 0 1.25.36 1.38.55a5.24 5.24 0 0 1 .64 3 23 23 0 0 1-1.49 7.67C54 19.62 55.64 21.5 57.49 22a32.29 32.29 0 0 0 3-12.3 11.18 11.18 0 0 0-1.79-6.54A7.58 7.58 0 0 0 52.29 0a9 9 0 0 0-7.58 3.58 12.42 12.42 0 0 0-2.21 7.52 23.34 23.34 0 0 0 5.74 14.76C45.54 29.5 42.42 32 40 32s-5.56-2.49-8.27-6.13a33.71 33.71 0 0 1-3.38-5.64A25.39 25.39 0 0 1 25.66 9.7a5.24 5.24 0 0 1 .64-3c.14-.19.39-.55 1.38-.55a3 3 0 0 1 2.65 1.12 6.54 6.54 0 0 1 1 3.83 16.45 16.45 0 0 1-1.49 6.4 31.74 31.74 0 0 0 3.48 6.33 23.44 23.44 0 0 0 4.14-12.73 12.42 12.42 0 0 0-2.21-7.52A9 9 0 0 0 27.68 0a7.58 7.58 0 0 0-6.42 3.16 11.18 11.18 0 0 0-1.75 6.54c0 4.26 1.52 9.64 4 14.56a6.12 6.12 0 0 1-2 .34c-5.74 0-15.38-2.32-15.38-17.84A3.08 3.08 0 0 0 0 6.77c0 14.8 8.25 24 21.53 24a12.39 12.39 0 0 0 5.27-1.17c3.62 4.94 8.27 8.55 13.19 8.55s9.57-3.61 13.19-8.55a12.39 12.39 0 0 0 5.27 1.17c13.28 0 21.53-9.19 21.53-24a3.08 3.08 0 0 0-3.09-3.08zM98.79 36.1l-7.68-21.21c-.44-1.28.15-2 1.43-2h1.57a1.93 1.93 0 0 1 2.07 1.43l5.71 16.44 5-15.65a2 2 0 0 1 2-1.53H110a1.91 1.91 0 0 1 2 1.53l5 15.62 5.66-16.44a1.93 1.93 0 0 1 2.07-1.43h1.57c1.33 0 1.87.74 1.43 2L120.1 36.1a2 2 0 0 1-2.1 1.42h-1.62a2 2 0 0 1-2-1.48l-5-15.35-5 15.35a1.92 1.92 0 0 1-2 1.48h-1.62a1.92 1.92 0 0 1-1.97-1.42zM129.45 25.17a13 13 0 1 1 13 12.89 12.92 12.92 0 0 1-13-12.89zm21 0a8 8 0 1 0-16 0 8 8 0 1 0 16 0zM159.86 35.75V14.64a1.64 1.64 0 0 1 1.82-1.77h1.48a1.61 1.61 0 0 1 1.77 1.77v3.74c.84-3.94 3.64-6.05 6.59-6.05h1.08c1 .15 1.18 1 1.18 2v1.43c0 1.23-.49 1.72-1.33 1.53a6.14 6.14 0 0 0-1.33-.15c-1.77 0-6.2.89-6.2 11v7.63a1.61 1.61 0 0 1-1.77 1.77h-1.48a1.64 1.64 0 0 1-1.81-1.79zM181.9 33.64v2.12a1.61 1.61 0 0 1-1.77 1.77h-1.48a1.64 1.64 0 0 1-1.82-1.77v-32a1.64 1.64 0 0 1 1.82-1.77h1.48a1.61 1.61 0 0 1 1.77 1.77v13a10.26 10.26 0 0 1 8.86-4.43c7.33 0 12.2 5.76 12.2 12.84s-4.87 12.89-12.2 12.89a10.26 10.26 0 0 1-8.86-4.42zm16-8.46c0-4.58-2.85-8.46-7.87-8.46-4.82 0-8.17 3.59-8.22 8.46s3.4 8.46 8.22 8.46c4.97 0 7.87-3.84 7.87-8.47zM212.46 33.64v2.12a1.61 1.61 0 0 1-1.77 1.77h-1.48a1.64 1.64 0 0 1-1.82-1.77v-32a1.64 1.64 0 0 1 1.82-1.77h1.48a1.61 1.61 0 0 1 1.77 1.77v13a10.26 10.26 0 0 1 8.86-4.43c7.33 0 12.2 5.76 12.2 12.84s-4.87 12.89-12.2 12.89a10.26 10.26 0 0 1-8.86-4.42zm16-8.46c0-4.58-2.85-8.46-7.87-8.46-4.82 0-8.17 3.59-8.22 8.46s3.4 8.46 8.22 8.46c5.01 0 7.87-3.84 7.87-8.47zM240.76 46.48l3.79-9.89-9.45-21.65c-.54-1.23 0-2.07 1.38-2.07h2a1.93 1.93 0 0 1 2 1.38l6.84 16.68 6.3-16.63a2 2 0 0 1 2.12-1.43h2c1.33 0 1.92.79 1.38 2.07l-13.73 32.23a2 2 0 0 1-2.07 1.38h-1.18c-1.33 0-1.87-.84-1.38-2.07z"/></g></svg>