<svg xmlns="http://www.w3.org/2000/svg" width="40" height="40" xmlns:xlink="http://www.w3.org/1999/xlink"><defs><path id="a" d="M0 20C0 8.9543 8.952 0 20 0c11.0457 0 20 8.952 20 20 0 11.0457-8.952 20-20 20C8.9543 40 0 31.048 0 20z"/><mask id="b" width="40" height="40" x="0" y="0" fill="#fff"><use xlink:href="#a"/></mask></defs><g fill="none" fill-rule="evenodd"><use stroke="#1E2225" stroke-width="2" mask="url(#b)" xlink:href="#a"/><path fill="#0077B5" d="M15.8592 17.2777h-3.6437v10.948h3.6437v-10.948zm.24-3.3867C16.0756 12.8176 15.308 12 14.0614 12 12.815 12 12 12.8176 12 13.891c0 1.0512.7908 1.8924 2.014 1.8924h.0234c1.2705 0 2.0618-.8412 2.0618-1.8924zM29 21.9484c0-3.3627-1.7976-4.9278-4.1953-4.9278-1.9346 0-2.8008 1.0626-3.2844 1.808V17.278H17.876c.048 1.0273 0 10.948 0 10.948h3.6443v-6.1143c0-.3272.0237-.6536.12-.888.2633-.6535.863-1.3303 1.8696-1.3303 1.319 0 1.8462 1.004 1.8462 2.475v5.8573H29v-6.2773z"/></g></svg>