<svg xmlns="http://www.w3.org/2000/svg" width="40" height="40" xmlns:xlink="http://www.w3.org/1999/xlink"><defs><path id="a" d="M0 20C0 8.9543 8.952 0 20 0c11.0457 0 20 8.952 20 20 0 11.0457-8.952 20-20 20C8.9543 40 0 31.048 0 20z"/><mask id="b" width="40" height="40" x="0" y="0" fill="#fff"><use xlink:href="#a"/></mask></defs><g fill="none" fill-rule="evenodd"><use stroke="#1E2225" stroke-width="2" mask="url(#b)" xlink:href="#a"/><path fill="#24A9E6" d="M26.5303 15.2133c.698-.4368 1.2336-1.1294 1.485-1.9545-.6536.4055-1.3757.6987-2.1462.8575C25.2543 13.4287 24.3755 13 23.403 13c-1.866 0-3.378 1.5824-3.378 3.534 0 .277.028.547.086.8047-2.8074-.1476-5.2968-1.553-6.9644-3.6926-.291.524-.4573 1.1305-.4573 1.7777 0 1.2254.5965 2.3073 1.5033 2.9423-.554-.0182-1.075-.179-1.5313-.4418v.0434c0 1.713 1.164 3.1416 2.7117 3.4652-.2842.083-.582.1243-.8913.1243-.2176 0-.4302-.021-.6352-.0626.4292 1.4035 1.6773 2.4267 3.1565 2.454-1.1573.9485-2.6142 1.5127-4.1967 1.5127-.2727 0-.5424-.015-.8063-.0485C13.4956 26.4145 15.2715 27 17.18 27c6.216 0 9.6133-5.3852 9.6133-10.0556 0-.1537-.002-.3064-.0087-.457.6603-.4985 1.2345-1.1214 1.686-1.8302-.6062.281-1.2578.4712-1.9403.556z"/></g></svg>