<svg xmlns="http://www.w3.org/2000/svg" width="40" height="40" xmlns:xlink="http://www.w3.org/1999/xlink"><defs><path id="a" d="M0 20C0 8.9543 8.952 0 20 0c11.0457 0 20 8.952 20 20 0 11.0457-8.952 20-20 20C8.9543 40 0 31.048 0 20z"/><mask id="b" width="40" height="40" x="0" y="0" fill="#fff"><use xlink:href="#a"/></mask></defs><g fill="none" fill-rule="evenodd"><path fill="#BD081C" d="M10 20c0 4.0945 2.4635 7.613 5.9878 9.1592-.0294-.6985-.006-1.537.1728-2.2965.193-.8114 1.2865-5.4492 1.2865-5.4492s-.3198-.6386-.3198-1.5817c0-1.4828.8596-2.5893 1.9285-2.5893.9102 0 1.35.6832 1.35 1.5016 0 .915-.5833 2.2826-.883 3.549-.2506 1.0607.5314 1.925 1.578 1.925 1.8944 0 3.1702-2.4318 3.1702-5.3163 0-2.1907-1.4758-3.831-4.1605-3.831-3.0338 0-4.9235 2.2623-4.9235 4.7882 0 .8712.2575 1.4862.6585 1.9613.1858.2187.2116.307.1446.5586-.047.182-.1575.6266-.2033.802-.067.2527-.2716.3432-.501.2503-1.397-.5715-2.0472-2.1013-2.0472-3.8205 0-2.841 2.394-6.2477 7.146-6.2477 3.8182 0 6.3312 2.7635 6.3312 5.7292 0 3.923-2.1814 6.8532-5.3963 6.8532-1.0795 0-2.0943-.5832-2.4424-1.2464 0 0-.581 2.3036-.7044 2.7493-.2105.7702-.6267 1.5404-1.0054 2.1413.8984.2658 1.8486.4104 2.834.4104C25.5232 30 30 25.522 30 20c0-5.5233-4.4767-10-9.9988-10C14.478 10 10 14.4767 10 20z"/><use stroke="#1E2225" stroke-width="2" mask="url(#b)" xlink:href="#a"/></g></svg>