<svg xmlns="http://www.w3.org/2000/svg" width="40" height="40"><circle cx="20" cy="20" r="19.5" fill="none"/><path fill="#FFF" d="M16.364 18.429V20.6h3.609c-.146.932-1.091 2.732-3.609 2.732-2.173 0-3.946-1.791-3.946-3.999s1.773-3.999 3.946-3.999c1.236 0 2.063.524 2.536.977l1.727-1.656C19.518 13.625 18.082 13 16.364 13 12.845 13 10 15.832 10 19.333s2.845 6.333 6.364 6.333c3.673 0 6.109-2.568 6.109-6.188 0-.416-.045-.733-.1-1.049h-6.009zm13.636 0h-1.818v-1.81h-1.818v1.81h-1.818v1.81h1.818v1.81h1.818v-1.81H30v-1.81z"/></svg>