<svg xmlns="http://www.w3.org/2000/svg" width="40" height="40" xmlns:xlink="http://www.w3.org/1999/xlink"><defs><path id="a" d="M0 20C0 8.9543 8.952 0 20 0c11.0457 0 20 8.952 20 20 0 11.0457-8.952 20-20 20C8.9543 40 0 31.048 0 20z"/><mask id="b" width="40" height="40" x="0" y="0" fill="#fff"><use xlink:href="#a"/></mask></defs><g fill="none" fill-rule="evenodd"><use stroke="#1E2225" stroke-width="2" mask="url(#b)" xlink:href="#a"/><path fill="#43619C" d="M21.4065 29h-3.605v-8.501H16v-2.9293h1.8014v-1.7585c0-2.3895 1.0167-3.8112 3.907-3.8112h2.4055v2.9303h-1.5036c-1.125 0-1.1995.4093-1.1995 1.1732l-.005 1.4662h2.7244l-.3188 2.9292H21.406V29h.0005z"/></g></svg>