<svg xmlns="http://www.w3.org/2000/svg" width="40" height="40" xmlns:xlink="http://www.w3.org/1999/xlink"><defs><path id="a" d="M0 20C0 8.9543 8.952 0 20 0c11.0457 0 20 8.952 20 20 0 11.0457-8.952 20-20 20C8.9543 40 0 31.048 0 20z"/><mask id="b" width="40" height="40" x="0" y="0" fill="#fff"><use xlink:href="#a"/></mask></defs><g fill="none" fill-rule="evenodd"><use stroke="#1E2225" stroke-width="2" mask="url(#b)" xlink:href="#a"/><path fill="#DC4E41" d="M16.3636 18.4286V20.6h3.609c-.1453.932-1.0908 2.7324-3.609 2.7324-2.1727 0-3.9454-1.7914-3.9454-3.999 0-2.2077 1.7727-3.999 3.9454-3.999 1.2364 0 2.0637.5246 2.5364.977l1.7273-1.6557C19.5183 13.6243 18.0818 13 16.3636 13 12.8456 13 10 15.832 10 19.3333c0 3.5015 2.8455 6.3334 6.3636 6.3334 3.6728 0 6.109-2.5696 6.109-6.1886 0-.416-.0453-.7328-.1-1.0494h-6.009zm13.6364 0h-1.8182V16.619h-1.8182v1.8096h-1.818v1.8095h1.818v1.8096h1.8182V20.238H30v-1.8094z"/></g></svg>