<svg xmlns="http://www.w3.org/2000/svg" width="40" height="40"><circle cx="20" cy="20" r="19.5" fill="none"/><path fill="#FFF" d="M26.53 15.213c.698-.437 1.233-1.129 1.485-1.955-.654.405-1.376.699-2.146.857-.615-.686-1.494-1.115-2.467-1.115-1.865 0-3.377 1.583-3.377 3.534 0 .277.028.547.086.805-2.807-.148-5.297-1.553-6.964-3.693-.291.524-.457 1.13-.457 1.778 0 1.225.596 2.307 1.503 2.942-.554-.019-1.075-.179-1.531-.442v.043c0 1.713 1.164 3.142 2.712 3.465-.284.083-.582.124-.892.124-.217 0-.43-.021-.635-.063.429 1.404 1.677 2.427 3.156 2.454-1.157.948-2.614 1.513-4.197 1.513-.272 0-.542-.016-.806-.049C13.496 26.414 15.271 27 17.18 27c6.217 0 9.613-5.385 9.613-10.056 0-.154-.002-.306-.008-.457.66-.499 1.234-1.121 1.686-1.83-.607.281-1.258.471-1.941.556z"/></svg>