<?xml version="1.0" encoding="utf-8"?>
<!-- Generator: Adobe Illustrator 16.0.0, SVG Export Plug-In . SVG Version: 6.00 Build 0)  -->
<!DOCTYPE svg PUBLIC "-//W3C//DTD SVG 1.1//EN" "http://www.w3.org/Graphics/SVG/1.1/DTD/svg11.dtd">
<svg version="1.1" id="Layer_1" xmlns="http://www.w3.org/2000/svg" xmlns:xlink="http://www.w3.org/1999/xlink" x="0px" y="0px"
	 width="40px" height="40px" viewBox="0 0 40 40" enable-background="new 0 0 40 40" xml:space="preserve">
<circle id="circle" fill="none" stroke="#FFCB33" cx="20" cy="20" r="19.5"/>
<path id="Shape" fill="#FFCB33" d="M15.859,17.278h-3.644v10.948h3.644V17.278z M16.099,13.891C16.076,12.817,15.308,12,14.062,12
	S12,12.817,12,13.891c0,1.051,0.791,1.892,2.014,1.892h0.023C15.308,15.783,16.099,14.942,16.099,13.891z M29,21.948
	c0-3.362-1.797-4.928-4.195-4.928c-1.935,0-2.801,1.063-3.284,1.808v-1.551h-3.645c0.048,1.027,0,10.949,0,10.949h3.645v-6.115
	c0-0.326,0.023-0.653,0.12-0.888c0.264-0.653,0.863-1.33,1.869-1.33c1.319,0,1.847,1.004,1.847,2.476v5.856H29V21.948z"/>
</svg>
