<svg xmlns="http://www.w3.org/2000/svg" width="40" height="40"><circle cx="20" cy="20" r="19.5" fill="none" stroke="#FFCB33"/><path fill="#FFF" d="M20.001 10c-2.716 0-3.057.012-4.124.061-1.064.049-1.791.217-2.427.464-.658.255-1.216.597-1.771 1.153-.557.556-.898 1.114-1.154 1.771-.248.636-.417 1.363-.465 2.427C10.013 16.943 10 17.284 10 20s.012 3.056.061 4.123c.049 1.064.217 1.791.464 2.427.256.657.598 1.216 1.153 1.771.556.557 1.114.899 1.771 1.154.636.248 1.363.416 2.428.465 1.066.048 1.407.06 4.123.06s3.056-.012 4.123-.061c1.065-.049 1.792-.217 2.429-.465.657-.255 1.215-.598 1.77-1.154.557-.555.898-1.113 1.154-1.771.246-.636.415-1.362.465-2.427.046-1.065.059-1.406.059-4.122s-.013-3.057-.061-4.123c-.05-1.065-.219-1.792-.465-2.427-.256-.658-.598-1.216-1.154-1.771-.556-.556-1.111-.898-1.771-1.153-.638-.247-1.364-.416-2.429-.464-1.065-.05-1.405-.062-4.122-.062h.003zm-.897 1.802h.897c2.67 0 2.986.009 4.041.057.975.045 1.504.208 1.856.345.467.181.799.398 1.149.748s.566.683.748 1.15c.138.352.3.881.345 1.856.048 1.054.059 1.371.059 4.04 0 2.668-.011 2.985-.059 4.039-.045.976-.207 1.504-.345 1.856-.181.467-.398.8-.748 1.149-.351.35-.683.566-1.149.748-.352.137-.882.299-1.856.344-1.054.049-1.371.059-4.041.059-2.67 0-2.987-.01-4.041-.059-.975-.045-1.504-.207-1.857-.345-.466-.181-.8-.397-1.15-.747-.35-.351-.567-.684-.749-1.15-.137-.352-.3-.881-.344-1.855-.048-1.055-.058-1.371-.058-4.042 0-2.67.01-2.985.058-4.04.044-.975.208-1.504.344-1.856.182-.467.398-.8.749-1.15.35-.35.684-.567 1.15-.749.353-.138.882-.3 1.857-.345.922-.042 1.28-.054 3.144-.056v.003zm6.235 1.66c-.663 0-1.2.537-1.2 1.2s.537 1.2 1.2 1.2 1.2-.538 1.2-1.2-.537-1.2-1.2-1.2zm-5.338 1.403c-2.836 0-5.135 2.299-5.135 5.135s2.299 5.135 5.135 5.135 5.135-2.299 5.135-5.135-2.299-5.135-5.135-5.135zm0 1.802c1.841 0 3.333 1.492 3.333 3.333s-1.492 3.334-3.333 3.334c-1.841 0-3.333-1.493-3.333-3.334s1.492-3.333 3.333-3.333z"/><path fill="#FFCB33" d="M20.001 10c-2.716 0-3.057.012-4.124.061-1.064.049-1.791.217-2.427.464-.658.255-1.216.597-1.771 1.153-.557.556-.898 1.114-1.154 1.771-.248.636-.417 1.363-.465 2.427C10.013 16.943 10 17.284 10 20s.012 3.056.061 4.123c.049 1.064.217 1.791.464 2.427.256.657.598 1.216 1.153 1.771.556.557 1.114.899 1.771 1.154.636.248 1.363.416 2.428.465 1.066.048 1.407.06 4.123.06s3.056-.012 4.123-.061c1.065-.049 1.792-.217 2.429-.465.657-.255 1.215-.598 1.77-1.154.557-.555.898-1.113 1.154-1.771.246-.636.415-1.362.465-2.427.046-1.065.059-1.406.059-4.122s-.013-3.057-.061-4.123c-.05-1.065-.219-1.792-.465-2.427-.256-.658-.598-1.216-1.154-1.771-.556-.556-1.111-.898-1.771-1.153-.638-.247-1.364-.416-2.429-.464-1.065-.05-1.405-.062-4.122-.062h.003zm-.897 1.802h.897c2.67 0 2.986.009 4.041.057.975.045 1.504.208 1.856.345.467.181.799.398 1.149.748s.566.683.748 1.15c.138.352.3.881.345 1.856.048 1.054.059 1.371.059 4.04 0 2.668-.011 2.985-.059 4.039-.045.976-.207 1.504-.345 1.856-.181.467-.398.8-.748 1.149-.351.35-.683.566-1.149.748-.352.137-.882.299-1.856.344-1.054.049-1.371.059-4.041.059-2.67 0-2.987-.01-4.041-.059-.975-.045-1.504-.207-1.857-.345-.466-.181-.8-.397-1.15-.747-.35-.351-.567-.684-.749-1.15-.137-.352-.3-.881-.344-1.855-.048-1.055-.058-1.371-.058-4.042 0-2.67.01-2.985.058-4.04.044-.975.208-1.504.344-1.856.182-.467.398-.8.749-1.15.35-.35.684-.567 1.15-.749.353-.138.882-.3 1.857-.345.922-.042 1.28-.054 3.144-.056v.003zm6.235 1.66c-.663 0-1.2.537-1.2 1.2s.537 1.2 1.2 1.2 1.2-.538 1.2-1.2-.537-1.2-1.2-1.2zm-5.338 1.403c-2.836 0-5.135 2.299-5.135 5.135s2.299 5.135 5.135 5.135 5.135-2.299 5.135-5.135-2.299-5.135-5.135-5.135zm0 1.802c1.841 0 3.333 1.492 3.333 3.333s-1.492 3.334-3.333 3.334c-1.841 0-3.333-1.493-3.333-3.334s1.492-3.333 3.333-3.333z"/></svg>