<svg xmlns="http://www.w3.org/2000/svg" width="40" height="40"><circle cx="20" cy="20" r="19.5" fill="none"/><path fill="#FFF" d="M20.001 10c-2.716 0-3.057.012-4.124.061-1.064.049-1.791.217-2.427.464-.658.255-1.216.597-1.771 1.153-.557.556-.898 1.114-1.154 1.771-.248.636-.417 1.363-.465 2.427C10.013 16.943 10 17.284 10 20s.012 3.057.061 4.123c.049 1.064.217 1.791.464 2.427.256.657.598 1.216 1.153 1.771.556.558 1.114.9 1.771 1.154.636.248 1.363.416 2.428.465 1.066.048 1.407.06 4.123.06s3.057-.012 4.123-.061c1.064-.049 1.792-.217 2.43-.465.656-.256 1.215-.599 1.77-1.154.557-.555.898-1.113 1.154-1.771.246-.636.414-1.361.465-2.427.044-1.065.058-1.406.058-4.122s-.014-3.057-.061-4.123c-.051-1.065-.219-1.792-.465-2.427-.257-.658-.599-1.216-1.154-1.771-.557-.556-1.111-.898-1.771-1.153-.638-.247-1.363-.416-2.429-.464-1.065-.05-1.405-.062-4.122-.062h.003zm-.897 1.802h.897c2.67 0 2.985.009 4.041.057.976.045 1.504.208 1.856.345.467.181.799.398 1.148.748.35.35.566.683.748 1.15.139.352.301.881.346 1.856.047 1.054.059 1.371.059 4.04 0 2.668-.012 2.984-.059 4.039-.045.977-.207 1.504-.346 1.855-.182.467-.398.801-.748 1.149-.352.351-.684.565-1.148.748-.353.137-.883.299-1.856.344-1.054.05-1.371.06-4.041.06s-2.987-.01-4.041-.06c-.975-.045-1.504-.207-1.857-.345-.466-.182-.8-.396-1.15-.747s-.567-.685-.749-1.149c-.137-.353-.3-.882-.344-1.855-.048-1.055-.058-1.371-.058-4.042 0-2.67.01-2.985.058-4.04.044-.975.208-1.504.344-1.856.182-.467.398-.8.749-1.15.35-.35.684-.567 1.15-.749.353-.138.882-.3 1.857-.345.922-.042 1.28-.054 3.144-.056v.003zm6.235 1.66c-.663 0-1.2.537-1.2 1.2s.537 1.2 1.2 1.2 1.2-.538 1.2-1.2-.537-1.2-1.2-1.2zm-5.338 1.403c-2.836 0-5.135 2.299-5.135 5.135s2.299 5.135 5.135 5.135 5.136-2.299 5.136-5.135-2.3-5.135-5.136-5.135zm0 1.802c1.841 0 3.333 1.492 3.333 3.333s-1.492 3.334-3.333 3.334-3.333-1.493-3.333-3.334 1.492-3.333 3.333-3.333z"/><path fill="#FFF" d="M20.001 10c-2.716 0-3.057.012-4.124.061-1.064.049-1.791.217-2.427.464-.658.255-1.216.597-1.771 1.153-.557.556-.898 1.114-1.154 1.771-.248.636-.417 1.363-.465 2.427C10.013 16.943 10 17.284 10 20s.012 3.057.061 4.123c.049 1.064.217 1.791.464 2.427.256.657.598 1.216 1.153 1.771.556.558 1.114.9 1.771 1.154.636.248 1.363.416 2.428.465 1.066.048 1.407.06 4.123.06s3.057-.012 4.123-.061c1.064-.049 1.792-.217 2.43-.465.656-.256 1.215-.599 1.77-1.154.557-.555.898-1.113 1.154-1.771.246-.636.414-1.361.465-2.427.044-1.065.058-1.406.058-4.122s-.014-3.057-.061-4.123c-.051-1.065-.219-1.792-.465-2.427-.257-.658-.599-1.216-1.154-1.771-.557-.556-1.111-.898-1.771-1.153-.638-.247-1.363-.416-2.429-.464-1.065-.05-1.405-.062-4.122-.062h.003zm-.897 1.802h.897c2.67 0 2.985.009 4.041.057.976.045 1.504.208 1.856.345.467.181.799.398 1.148.748.35.35.566.683.748 1.15.139.352.301.881.346 1.856.047 1.054.059 1.371.059 4.04 0 2.668-.012 2.984-.059 4.039-.045.977-.207 1.504-.346 1.855-.182.467-.398.801-.748 1.149-.352.351-.684.565-1.148.748-.353.137-.883.299-1.856.344-1.054.05-1.371.06-4.041.06s-2.987-.01-4.041-.06c-.975-.045-1.504-.207-1.857-.345-.466-.182-.8-.396-1.15-.747s-.567-.685-.749-1.149c-.137-.353-.3-.882-.344-1.855-.048-1.055-.058-1.371-.058-4.042 0-2.67.01-2.985.058-4.04.044-.975.208-1.504.344-1.856.182-.467.398-.8.749-1.15.35-.35.684-.567 1.15-.749.353-.138.882-.3 1.857-.345.922-.042 1.28-.054 3.144-.056v.003zm6.235 1.66c-.663 0-1.2.537-1.2 1.2s.537 1.2 1.2 1.2 1.2-.538 1.2-1.2-.537-1.2-1.2-1.2zm-5.338 1.403c-2.836 0-5.135 2.299-5.135 5.135s2.299 5.135 5.135 5.135 5.136-2.299 5.136-5.135-2.3-5.135-5.136-5.135zm0 1.802c1.841 0 3.333 1.492 3.333 3.333s-1.492 3.334-3.333 3.334-3.333-1.493-3.333-3.334 1.492-3.333 3.333-3.333z"/></svg>