<?xml version="1.0" encoding="utf-8"?>
<!-- Generator: Adobe Illustrator 16.0.0, SVG Export Plug-In . SVG Version: 6.00 Build 0)  -->
<!DOCTYPE svg PUBLIC "-//W3C//DTD SVG 1.1//EN" "http://www.w3.org/Graphics/SVG/1.1/DTD/svg11.dtd">
<svg version="1.1" id="Layer_1" xmlns="http://www.w3.org/2000/svg" xmlns:xlink="http://www.w3.org/1999/xlink" x="0px" y="0px"
	 width="40px" height="40px" viewBox="0 0 40 40" enable-background="new 0 0 40 40" xml:space="preserve">
<circle id="circle" fill="none" stroke="#1E2225" cx="20" cy="20" r="19.5"/>
<path id="Shape" fill="#1E2225" d="M10,20c0,4.095,2.463,7.613,5.988,9.159c-0.029-0.698-0.006-1.537,0.173-2.296
	c0.193-0.813,1.287-5.449,1.287-5.449s-0.32-0.639-0.32-1.582c0-1.483,0.859-2.589,1.928-2.589c0.91,0,1.35,0.683,1.35,1.501
	c0,0.915-0.583,2.282-0.883,3.549c-0.25,1.061,0.532,1.925,1.578,1.925c1.895,0,3.171-2.432,3.171-5.316
	c0-2.191-1.477-3.832-4.161-3.832c-3.034,0-4.923,2.263-4.923,4.789c0,0.872,0.257,1.487,0.659,1.961
	c0.186,0.219,0.211,0.307,0.145,0.559c-0.047,0.182-0.158,0.627-0.204,0.802c-0.067,0.253-0.271,0.344-0.501,0.251
	c-1.397-0.572-2.047-2.102-2.047-3.821c0-2.841,2.395-6.248,7.146-6.248c3.819,0,6.332,2.763,6.332,5.729
	c0,3.923-2.182,6.853-5.396,6.853c-1.08,0-2.094-0.583-2.442-1.246c0,0-0.581,2.303-0.704,2.749
	c-0.211,0.771-0.627,1.54-1.006,2.142c0.898,0.266,1.849,0.41,2.834,0.41C25.523,30,30,25.521,30,20c0-5.523-4.477-10-9.999-10
	C14.478,10,10,14.477,10,20z"/>
</svg>
