<svg xmlns="http://www.w3.org/2000/svg" width="40" height="40" data-name="Camada 1" viewBox="0 0 42 42"><defs><mask id="a" width="42" height="42" x="0" y="0" maskUnits="userSpaceOnUse"><path fill="#fff" d="M1 21A20 20 0 0 1 21 1a20 20 0 0 1 20 20 20 20 0 0 1-20 20A20 20 0 0 1 1 21z"/></mask><clipPath id="b" transform="translate(1 1)"><path fill="none" d="M5.61 5.58h28.78v28.83H5.61z"/></clipPath><clipPath id="c" transform="translate(1 1)"><path fill="none" d="M7.24 7.15h25.41v25.53H7.24z"/></clipPath><clipPath id="d" transform="translate(1 1)"><path fill="none" d="M8.33 19.57a11.65 11.65 0 0 0 1.56 5.84l-1.66 6.05 6.19-1.62A11.68 11.68 0 0 0 20 31.26 11.68 11.68 0 1 0 8.33 19.57"/></clipPath><linearGradient id="e" x1="-824.76" x2="-824.7" y1="-212" y2="-212" gradientTransform="matrix(0 -406.19 406.19 0 86132.96 -334979.43)" gradientUnits="userSpaceOnUse"><stop offset="0" stop-color="#20b038"/><stop offset="1" stop-color="#60d66a"/></linearGradient><clipPath id="f" transform="translate(1 1)"><path fill="none" d="M7.06 6.8h25.76v25.88H7.06z"/></clipPath><clipPath id="g" transform="translate(1 1)"><path fill="none" d="M11.73 25.3l-.24-.38A10.06 10.06 0 1 1 20 29.63a10 10 0 0 1-5.12-1.4l-.36-.23-3.81 1zm-3.82-5.73a12.07 12.07 0 0 0 1.62 6l-1.72 6.32 6.41-1.68A12.09 12.09 0 0 0 20 31.68 12.1 12.1 0 1 0 7.91 19.57"/></clipPath><linearGradient id="h" x1="-824.73" x2="-824.67" y1="-212.01" y2="-212.01" gradientTransform="matrix(0 -420.76 420.76 0 89228.28 -346981.78)" gradientUnits="userSpaceOnUse"><stop offset="0" stop-color="#f9f9f9"/><stop offset="1" stop-color="#fff"/></linearGradient><clipPath id="i" transform="translate(1 1)"><path fill="none" d="M13.15 13.36H26.9v12.88H13.15z"/></clipPath></defs><path fill="none" stroke="#1e2225" stroke-width="2" d="M0 20A20 20 0 0 1 20 0a20 20 0 0 1 20 20 20 20 0 0 1-20 20A20 20 0 0 1 0 20z" data-name="path-1" transform="translate(1 1)" mask="url(#a)"/><path fill="#fff" d="M8.81 32.89l1.72-6.27A12.1 12.1 0 1 1 21 32.68a12.09 12.09 0 0 1-5.78-1.47zM15.52 29l.37.22A10 10 0 0 0 21 30.63a10.06 10.06 0 1 0-8.52-4.71l.24.38-1 3.71z"/><g clip-path="url(#d)"><path fill="url(#e)" d="M9.23 8.9h23.46v23.57H9.23z"/></g><g clip-path="url(#g)"><path fill="url(#h)" d="M8.81 8.47h24.3v24.41H8.81z"/></g><path fill="#fff" d="M18 15.51c-.23-.5-.46-.51-.68-.52h-.58a1.11 1.11 0 0 0-.81.38 3.39 3.39 0 0 0-1.06 2.52A5.88 5.88 0 0 0 16.1 21a12.41 12.41 0 0 0 5.16 4.56c2.55 1 3.07.81 3.63.76a3.05 3.05 0 0 0 2-1.44 2.53 2.53 0 0 0 .18-1.44c-.08-.13-.28-.2-.58-.35s-1.79-.88-2.07-1-.48-.15-.68.15-.78 1-1 1.18-.35.23-.66.08a8.27 8.27 0 0 1-2.34-1.5 9.11 9.11 0 0 1-1.68-2.09c-.18-.3 0-.47.13-.62s.3-.35.45-.53a2.07 2.07 0 0 0 .3-.5.56.56 0 0 0 0-.53c-.08-.15-.66-1.65-.93-2.24"/></svg>