<svg xmlns="http://www.w3.org/2000/svg" width="40" height="40"><circle cx="20" cy="20" r="19.5" fill="none" stroke="#FFCB33"/><g fill="none" fill-rule="evenodd"><path stroke="#FFCB33" d="M.5 20C.5 9.2296 9.229.5 20 .5 30.7704.5 39.5 9.229 39.5 20c0 10.7704-8.729 19.5-19.5 19.5C9.2296 39.5.5 30.771.5 20z"/><path fill="#FFCB33" d="M17.9352 22.582l-.001-5.593 5.4042 2.8062-5.4032 2.7867zm11.865-6.5618s-.1954-1.3717-.795-1.9757c-.7605-.7928-1.613-.7967-2.004-.8432C24.2026 13 20.0043 13 20.0043 13h-.0086s-4.198 0-6.997.2013c-.3908.0465-1.243.0504-2.0038.8432-.5997.604-.7948 1.9757-.7948 1.9757s-.2 1.6108-.2 3.2216v1.51c0 1.611.2 3.2217.2 3.2217s.195 1.3717.7948 1.9757c.7608.7928 1.7602.7677 2.2053.8508 1.6.1527 6.8.2 6.8.2s4.2025-.0063 7.0013-.2077c.391-.0464 1.2434-.0503 2.004-.843.5995-.604.795-1.9758.795-1.9758S30 22.3627 30 20.752v-1.5102c0-1.6108-.1997-3.2216-.1997-3.2216z"/></g></svg>