<svg xmlns="http://www.w3.org/2000/svg" width="40" height="40"><circle cx="20" cy="20" r="19.5" fill="none" stroke="#1E2225"/><path fill="#1E2225" d="M10 20c0 4.095 2.463 7.613 5.988 9.159-.029-.698-.006-1.537.173-2.296.193-.813 1.287-5.449 1.287-5.449s-.32-.639-.32-1.582c0-1.483.859-2.589 1.928-2.589.91 0 1.35.683 1.35 1.501 0 .915-.583 2.282-.883 3.549-.25 1.061.532 1.925 1.578 1.925 1.895 0 3.171-2.432 3.171-5.316 0-2.191-1.477-3.832-4.161-3.832-3.034 0-4.923 2.263-4.923 4.789 0 .872.257 1.487.659 1.961.186.219.211.307.145.559-.047.182-.158.627-.204.802-.067.253-.271.344-.501.251-1.397-.572-2.047-2.102-2.047-3.821 0-2.841 2.395-6.248 7.146-6.248 3.819 0 6.332 2.763 6.332 5.729 0 3.923-2.182 6.853-5.396 6.853-1.08 0-2.094-.583-2.442-1.246 0 0-.581 2.303-.704 2.749-.211.771-.627 1.54-1.006 2.142.898.266 1.849.41 2.834.41C25.523 30 30 25.521 30 20c0-5.523-4.477-10-9.999-10C14.478 10 10 14.477 10 20z"/></svg>