<?xml version="1.0" encoding="utf-8"?>
<!-- Generator: Adobe Illustrator 16.0.0, SVG Export Plug-In . SVG Version: 6.00 Build 0)  -->
<!DOCTYPE svg PUBLIC "-//W3C//DTD SVG 1.1//EN" "http://www.w3.org/Graphics/SVG/1.1/DTD/svg11.dtd">
<svg version="1.1" id="Layer_1" xmlns="http://www.w3.org/2000/svg" xmlns:xlink="http://www.w3.org/1999/xlink" x="0px" y="0px"
	 width="40px" height="40px" viewBox="0 0 40 40" enable-background="new 0 0 40 40" xml:space="preserve">
<circle id="circle" fill="none" stroke="#1E2225" cx="20" cy="20" r="19.5"/>
<path id="Combined-Shape" fill="#1E2225" d="M16.364,18.429V20.6h3.609c-0.146,0.932-1.091,2.732-3.609,2.732
	c-2.173,0-3.946-1.791-3.946-3.999c0-2.208,1.773-3.999,3.946-3.999c1.236,0,2.063,0.524,2.536,0.977l1.727-1.656
	C19.518,13.625,18.082,13,16.364,13C12.845,13,10,15.832,10,19.333s2.845,6.333,6.364,6.333c3.673,0,6.109-2.568,6.109-6.188
	c0-0.416-0.045-0.733-0.1-1.049H16.364z M30,18.429h-1.818v-1.81h-1.818v1.81h-1.818v1.81h1.818v1.81h1.818v-1.81H30V18.429z"/>
</svg>
