<svg xmlns="http://www.w3.org/2000/svg" width="40" height="40" xmlns:xlink="http://www.w3.org/1999/xlink"><defs><path id="a" d="M0 20C0 8.9543 8.952 0 20 0c11.0457 0 20 8.952 20 20 0 11.0457-8.952 20-20 20C8.9543 40 0 31.048 0 20z"/><mask id="b" width="40" height="40" x="0" y="0" fill="#fff"><use xlink:href="#a"/></mask><path id="c" d="M10.001 0C7.285 0 6.944.012 5.8775.0604 4.813.1092 4.0863.2777 3.4506.525c-.658.2554-1.2158.597-1.7716 1.153-.5563.556-.898 1.114-1.1542 1.7714-.248.636-.4167 1.363-.4646 2.427C.0125 6.9433 0 7.2843 0 10.0002c0 2.716.012 3.0558.0604 4.1224.049 1.0646.2175 1.7913.4646 2.427.2556.658.5973 1.2158 1.1534 1.7716.5556.5563 1.1135.8988 1.7708 1.1542.6363.2473 1.363.4158 2.4275.4646 1.0667.0485 1.4073.0604 4.123.0604 2.716 0 3.056-.012 4.1225-.0604 1.0646-.0488 1.792-.2173 2.4284-.4646.6575-.2554 1.2146-.598 1.7702-1.1542.5563-.5558.898-1.1137 1.1542-1.7712.2458-.636.4146-1.363.4646-2.4272C19.9876 13.056 20 12.716 20 10c0-2.7158-.0125-3.0566-.0604-4.1233-.05-1.0646-.2188-1.7912-.4646-2.427-.2563-.6578-.598-1.2157-1.1542-1.7716-.5562-.556-1.1125-.8978-1.7708-1.153-.6375-.2473-1.3646-.4158-2.4292-.4646C13.054.012 12.7145 0 9.9978 0h.003zm-.8972 1.802c.2663-.0003.5634 0 .897 0 2.6702 0 2.9866.0097 4.041.0576.975.0446 1.5042.2075 1.8567.3444.4667.1812.7994.398 1.1492.748.35.35.5667.6832.7483 1.15.137.352.3.8812.3444 1.8562.048 1.0542.0583 1.3708.0583 4.0396s-.0104 2.9855-.0583 4.0396c-.0446.975-.2075 1.5042-.3444 1.8563-.1812.4667-.3983.799-.7483 1.1488-.35.35-.6823.5666-1.1492.748-.352.1374-.8817.3-1.8567.3445-1.0542.048-1.3708.0583-4.041.0583-2.67 0-2.9866-.0104-4.0407-.0583-.975-.045-1.504-.208-1.8568-.3448-.4667-.1813-.8-.398-1.15-.748-.35-.35-.5667-.6824-.7484-1.1493-.137-.3522-.3-.8814-.3444-1.8564-.048-1.0542-.0575-1.3708-.0575-4.0413 0-2.6704.0095-2.9854.0574-4.0396.0446-.975.2075-1.5042.3444-1.8567.1813-.4667.3984-.8.7484-1.15.35-.35.6833-.5667 1.15-.7484.3525-.1375.882-.3 1.857-.3447.9224-.0418 1.28-.0543 3.1436-.0564v.0025zm6.235 1.6605c-.6624 0-1.2.537-1.2 1.1996s.5376 1.2 1.2 1.2c.6626 0 1.2-.5374 1.2-1.2 0-.6624-.5374-1.2-1.2-1.2v.0005zm-5.338 1.402c-2.836 0-5.1353 2.2995-5.1353 5.1356 0 2.8362 2.2994 5.1345 5.1354 5.1345S15.1355 12.8362 15.1355 10c0-2.836-2.2988-5.1354-5.135-5.1354h.0003zm0 1.8022c1.841 0 3.3335 1.4923 3.3335 3.3334 0 1.841-1.4925 3.3335-3.3334 3.3335-1.841 0-3.3334-1.4925-3.3334-3.3334 0-1.841 1.4923-3.3333 3.3333-3.3333z"/></defs><g fill="none" fill-rule="evenodd"><use stroke="#1E2225" stroke-width="2" mask="url(#b)" xlink:href="#a"/><g transform="translate(10 10)"><mask id="d" fill="#fff"><use xlink:href="#c"/></mask><use fill="#FFF" xlink:href="#c"/></g></g></svg>