<svg xmlns="http://www.w3.org/2000/svg" width="40" height="40"><circle cx="20" cy="20" r="19.5" fill="none" stroke="#FFCB33"/><path fill="#FFCB33" d="M15.859 17.278h-3.644v10.948h3.644V17.278zm.24-3.387C16.076 12.817 15.308 12 14.062 12S12 12.817 12 13.891c0 1.051.791 1.892 2.014 1.892h.023c1.271 0 2.062-.841 2.062-1.892zM29 21.948c0-3.362-1.797-4.928-4.195-4.928-1.935 0-2.801 1.063-3.284 1.808v-1.551h-3.645c.048 1.027 0 10.949 0 10.949h3.645v-6.115c0-.326.023-.653.12-.888.264-.653.863-1.33 1.869-1.33 1.319 0 1.847 1.004 1.847 2.476v5.856H29v-6.277z"/></svg>