<?xml version="1.0" encoding="UTF-8"?>
<svg width="80px" height="80px" viewBox="0 0 80 80" version="1.1" xmlns="http://www.w3.org/2000/svg" xmlns:xlink="http://www.w3.org/1999/xlink">
    <defs>
        <linearGradient x1="0%" y1="49.9979293%" x2="99.9874969%" y2="49.9979293%" id="linearGradient-1">
            <stop stop-color="#FFB247" offset="0%"></stop>
            <stop stop-color="#FFCB33" offset="100%"></stop>
        </linearGradient>
    </defs>
    <g id="Desktop" stroke="none" stroke-width="1" fill="none" fill-rule="evenodd">
        <g id="icons" transform="translate(-1010.000000, -164.000000)">
            <g id="icon-insurance-closed-copy-2" transform="translate(1010.000000, 164.000000)">
                <circle id="Oval" fill="url(#linearGradient-1)" cx="47.5" cy="32.5" r="32.5"></circle>
                <path d="M16.0421937,19.5930898 L16.0421937,10.5863503 C16.0421937,7.60608955 13.6095744,5.18125991 10.6189388,5.18125991 C7.62830312,5.18125991 5.19568391,7.60608955 5.19568391,10.5863503 C5.19568391,12.0174142 4.03288985,13.1769802 2.59784196,13.1769802 C1.16279406,13.1769802 0,12.0174142 0,10.5863503 C0,4.74914284 4.76340301,0 10.6189388,0 C16.4744746,0 21.2378776,4.74914284 21.2378776,10.5863503 L21.2378776,19.5930898 L32.0656465,19.5930898 C33.2679759,19.5930898 34.2426565,20.5677704 34.2426565,21.7700998 C34.2426565,21.9425576 34.2221641,22.1144046 34.1816104,22.2820265 L20.6205488,78.3344148 C20.3378194,79.5030294 19.1612727,80.2211813 17.992658,79.938452 C17.1996449,79.746594 16.5804789,79.1274279 16.3886209,78.3344148 L2.82755919,22.2820265 C2.54482984,21.1134119 3.26298176,19.9368652 4.43159638,19.6541358 C4.59921831,19.6135821 4.77106528,19.5930898 4.94352314,19.5930898 L16.0421937,19.5930898 Z M27.9158767,25.0356147 L9.09329288,25.0356147 L18.5045848,63.9356214 L27.9158767,25.0356147 Z" id="shape" fill="#1E2225" fill-rule="nonzero" transform="translate(17.121328, 40.000000) rotate(-180.000000) translate(-17.121328, -40.000000) "></path>
            </g>
        </g>
    </g>
</svg>