<?xml version="1.0" encoding="utf-8"?>
<!-- Generator: Adobe Illustrator 16.0.0, SVG Export Plug-In . SVG Version: 6.00 Build 0)  -->
<!DOCTYPE svg PUBLIC "-//W3C//DTD SVG 1.1//EN" "http://www.w3.org/Graphics/SVG/1.1/DTD/svg11.dtd">
<svg version="1.1" id="Layer_1" xmlns="http://www.w3.org/2000/svg" xmlns:xlink="http://www.w3.org/1999/xlink" x="0px" y="0px"
	 width="50px" height="24px" viewBox="0 0 50 24" enable-background="new 0 0 50 24" xml:space="preserve">
<title>icon-endorsements</title>
<desc>Created with Sketch.</desc>
<g id="Desktop">
	<g id="Edit-Profile-1" transform="translate(-494.000000, -194.000000)">
		<g id="icon-endorsement-selected" transform="translate(494.000000, 194.000000)">
			<defs>
				<filter id="Adobe_OpacityMaskFilter" filterUnits="userSpaceOnUse" x="-2" y="-2" width="54" height="28">
					<feColorMatrix  type="matrix" values="1 0 0 0 0  0 1 0 0 0  0 0 1 0 0  0 0 0 1 0"/>
				</filter>
			</defs>
			<mask maskUnits="userSpaceOnUse" x="-2" y="-2" width="54" height="28" id="mask-2">
				<g filter="url(#Adobe_OpacityMaskFilter)">
					<path id="path-1" fill="#FFFFFF" d="M35.561,7.927l-6.289-1.002l-2.846-5.951C26.138,0.386,25.555,0.006,24.929,0
						c-0.626-0.006-1.204,0.36-1.482,0.959l-2.775,5.911l-6.265,0.894c-0.624,0.087-1.146,0.537-1.332,1.175
						c-0.186,0.639-0.022,1.311,0.438,1.775l4.58,4.651l-1.033,6.517c-0.099,0.65,0.158,1.309,0.675,1.696
						c0.172,0.13,0.354,0.222,0.545,0.276c0.394,0.112,0.825,0.076,1.199-0.137l5.6-3.039l5.643,3.119
						c0.563,0.307,1.24,0.262,1.747-0.126s0.759-1.034,0.653-1.688l-1.131-6.512l4.516-4.587c0.447-0.458,0.607-1.144,0.406-1.773
						C36.714,8.483,36.188,8.027,35.561,7.927z"/>
				</g>
				<g>
					<path id="path-3" fill="#FFFFFF" d="M49.28,15.963l-3.145-0.5l-1.423-2.976c-0.145-0.294-0.436-0.484-0.748-0.487
						s-0.603,0.18-0.741,0.48l-1.388,2.956l-3.133,0.447c-0.312,0.043-0.572,0.268-0.666,0.588c-0.092,0.318-0.01,0.654,0.219,0.887
						l2.291,2.326l-0.517,3.258c-0.05,0.324,0.079,0.654,0.338,0.848c0.086,0.064,0.177,0.111,0.272,0.139
						c0.197,0.057,0.412,0.038,0.6-0.068l2.8-1.52l2.821,1.559c0.281,0.154,0.62,0.131,0.873-0.063
						c0.254-0.193,0.379-0.516,0.328-0.844l-0.566-3.256l2.258-2.293c0.225-0.229,0.304-0.572,0.203-0.887
						C49.857,16.242,49.594,16.014,49.28,15.963z"/>
				</g>
				<g>
					<path id="path-5" fill="#FFFFFF" d="M11.28,15.963l-3.145-0.5l-1.423-2.976C6.569,12.193,6.277,12.003,5.964,12
						c-0.313-0.003-0.602,0.18-0.741,0.48l-1.388,2.956l-3.133,0.447c-0.312,0.043-0.573,0.268-0.666,0.588
						c-0.093,0.318-0.011,0.654,0.219,0.887l2.291,2.326L2.03,22.941c-0.049,0.324,0.079,0.654,0.338,0.848
						c0.086,0.064,0.177,0.111,0.272,0.139c0.197,0.057,0.413,0.038,0.599-0.068l2.8-1.52l2.822,1.559
						c0.281,0.154,0.62,0.131,0.873-0.063s0.379-0.516,0.327-0.844l-0.566-3.256l2.258-2.293c0.224-0.229,0.303-0.572,0.203-0.887
						C11.857,16.242,11.594,16.014,11.28,15.963z"/>
				</g>
			</mask>
			<g id="icon-endorsements" mask="url(#mask-2)">
				<g id="Shape">
					<path id="path-1_1_" fill="none" stroke="#FFFFFF" stroke-width="4" d="M35.561,7.927l-6.289-1.002l-2.846-5.951
						C26.138,0.386,25.555,0.006,24.929,0c-0.626-0.006-1.204,0.36-1.482,0.959l-2.775,5.911l-6.265,0.894
						c-0.624,0.087-1.146,0.537-1.332,1.175c-0.186,0.639-0.022,1.311,0.438,1.775l4.58,4.651l-1.033,6.517
						c-0.099,0.65,0.158,1.309,0.675,1.696c0.172,0.13,0.354,0.222,0.545,0.276c0.394,0.112,0.825,0.076,1.199-0.137l5.6-3.039
						l5.643,3.119c0.563,0.307,1.24,0.262,1.747-0.126s0.759-1.034,0.653-1.688l-1.131-6.512l4.516-4.587
						c0.447-0.458,0.607-1.144,0.406-1.773C36.714,8.483,36.188,8.027,35.561,7.927z"/>
				</g>
				<g id="Shape-Copy">
					<path id="path-3_1_" fill="none" stroke="#FFFFFF" stroke-width="4" d="M49.28,15.963l-3.145-0.5l-1.423-2.976
						c-0.145-0.294-0.436-0.484-0.748-0.487s-0.603,0.18-0.741,0.48l-1.388,2.956l-3.133,0.447
						c-0.312,0.043-0.572,0.268-0.666,0.588c-0.092,0.318-0.01,0.654,0.219,0.887l2.291,2.326l-0.517,3.258
						c-0.05,0.324,0.079,0.654,0.338,0.848c0.086,0.064,0.177,0.111,0.272,0.139c0.197,0.057,0.412,0.038,0.6-0.068l2.8-1.52
						l2.821,1.559c0.281,0.154,0.62,0.131,0.873-0.063c0.254-0.193,0.379-0.516,0.328-0.844l-0.566-3.256l2.258-2.293
						c0.225-0.229,0.304-0.572,0.203-0.887C49.857,16.242,49.594,16.014,49.28,15.963z"/>
				</g>
				<g id="Shape-Copy-2">
					<path id="path-5_1_" fill="none" stroke="#FFFFFF" stroke-width="4" d="M11.28,15.963l-3.145-0.5l-1.423-2.976
						C6.569,12.193,6.277,12.003,5.964,12c-0.313-0.003-0.602,0.18-0.741,0.48l-1.388,2.956l-3.133,0.447
						c-0.312,0.043-0.573,0.268-0.666,0.588c-0.093,0.318-0.011,0.654,0.219,0.887l2.291,2.326L2.03,22.941
						c-0.049,0.324,0.079,0.654,0.338,0.848c0.086,0.064,0.177,0.111,0.272,0.139c0.197,0.057,0.413,0.038,0.599-0.068l2.8-1.52
						l2.822,1.559c0.281,0.154,0.62,0.131,0.873-0.063s0.379-0.516,0.327-0.844l-0.566-3.256l2.258-2.293
						c0.224-0.229,0.303-0.572,0.203-0.887C11.857,16.242,11.594,16.014,11.28,15.963z"/>
				</g>
			</g>
		</g>
	</g>
</g>
</svg>
