<svg xmlns="http://www.w3.org/2000/svg" xmlns:xlink="http://www.w3.org/1999/xlink" viewBox="0 0 71.65 36"><defs><style>.a{fill:#fff;}.b{mask:url(#a);}</style><mask id="a" x="6.04" y="19.61" width="4.53" height="8.54" maskUnits="userSpaceOnUse"><g transform="translate(-3.35)"><polygon class="a" points="9.39 28.15 13.92 28.15 13.92 19.61 9.39 19.61 9.39 28.15"/></g></mask></defs><title>icon-insurance-branco</title><path class="a" d="M68.43,15.78l.83-1.67,1.29-2.6a.29.29,0,0,0,0-.28.26.26,0,0,0-.22-.13l-4.76-.31-.12-1.86L65.25,6a.25.25,0,0,0-.14-.21.32.32,0,0,0-.27,0L60.56,7.91l-1-1.55L57.9,3.93a.27.27,0,0,0-.23-.13.28.28,0,0,0-.24.13l-2.64,4-1.67-.83L50.51,5.79a.35.35,0,0,0-.28,0A.26.26,0,0,0,50.1,6l-.3,4.76-1.86.12L45,11.1a.29.29,0,0,0-.23.41l2.11,4.28-1.55,1-2.42,1.61a.28.28,0,0,0,0,.48l4,2.64-.83,1.67-1.29,2.61a.28.28,0,0,0,0,.28.26.26,0,0,0,.23.13l4.76.31.12,1.86.19,2.9a.26.26,0,0,0,.14.22.33.33,0,0,0,.27,0l4.28-2.11,1,1.55,1.6,2.41a.29.29,0,0,0,.24.13.28.28,0,0,0,.24-.13l2.65-4,1.67.83,2.59,1.28a.32.32,0,0,0,.14,0,.31.31,0,0,0,.14,0,.28.28,0,0,0,.14-.23l.31-4.76,1.86-.12,2.89-.18a.29.29,0,0,0,.23-.14.28.28,0,0,0,0-.27l-2.12-4.28,1.55-1,2.41-1.61a.31.31,0,0,0,.13-.27.25.25,0,0,0-.12-.2Zm5.48.84a2.42,2.42,0,0,1,1.08,2,2.46,2.46,0,0,1-1.09,2l-2.47,1.65L72.76,25a2.45,2.45,0,0,1-2,3.54l-3,.19-.19,3A2.46,2.46,0,0,1,65.11,34a2.49,2.49,0,0,1-1.1-.26l-2.65-1.31L59.72,34.9a2.46,2.46,0,0,1-4.09,0L54,32.44l-2.66,1.31A2.49,2.49,0,0,1,49,33.68a2.43,2.43,0,0,1-1.23-2l-.19-2.95-3-.19a2.46,2.46,0,0,1-2-3.54l1.31-2.66-2.47-1.64a2.46,2.46,0,0,1,0-4.09L43.89,15l-1.31-2.66a2.46,2.46,0,0,1,2-3.54l3-.19.19-3a2.43,2.43,0,0,1,1.22-2,2.53,2.53,0,0,1,2.32-.07L54,4.89l1.64-2.47a2.45,2.45,0,0,1,4.09,0L61.37,4.9,64,3.58a2.49,2.49,0,0,1,2.32.07,2.42,2.42,0,0,1,1.23,2l.19,2.95,3,.19a2.43,2.43,0,0,1,2,1.22,2.45,2.45,0,0,1,.08,2.31L71.45,15Z" transform="translate(-3.35)"/><path class="a" d="M51.83,23.22a.32.32,0,0,1-.35-.44l.4-1.62H50.59c-.27,0-.4-.18-.35-.45l.1-.41a.41.41,0,0,1,.45-.35h1.38l.68-2.69H51.57a.33.33,0,0,1-.35-.45l.12-.41a.4.4,0,0,1,.44-.33h1.37l.4-1.52a.39.39,0,0,1,.44-.33h.44a.32.32,0,0,1,.35.44l-.36,1.42h1.71l.37-1.52a.41.41,0,0,1,.45-.33h.44c.28,0,.42.17.35.44l-.35,1.42h1.27c.28,0,.41.17.35.45l-.1.4a.41.41,0,0,1-.45.35H57.08l-.68,2.69h1.29c.28,0,.42.17.35.45l-.1.41a.41.41,0,0,1-.45.35H56.12l-.44,1.71a.42.42,0,0,1-.44.35h-.45c-.28,0-.42-.17-.35-.44l.41-1.62H53.14l-.44,1.71a.4.4,0,0,1-.44.35Zm1.61-3.27h1.71l.66-2.69H54.1Zm9.18,3.27h.58a.49.49,0,0,0,.54-.54V14.75c0-.35-.17-.54-.46-.54a1.74,1.74,0,0,0-.76.14l-2.36,1.07a.54.54,0,0,0-.31.71l.09.28a.47.47,0,0,0,.7.32l1.44-.63v6.58A.49.49,0,0,0,62.62,23.22Z" transform="translate(-3.35)"/><path class="a" d="M33.49,16.17a15.07,15.07,0,0,0-14-14.84V1.07a1.07,1.07,0,0,0-2.15,0v.26a15.07,15.07,0,0,0-14,15,1.07,1.07,0,0,0,2,.54,3.15,3.15,0,0,1,2.57-1.58,3.09,3.09,0,0,1,2.55,1.58,1.07,1.07,0,0,0,.93.53h0a1.07,1.07,0,0,0,.93-.53,3.22,3.22,0,0,1,2.6-1.58,3.11,3.11,0,0,1,2.43,1.37v15a4.39,4.39,0,0,0,8.78,0,1.07,1.07,0,0,0-2.15,0,2.24,2.24,0,0,1-4.48,0v-15a3.11,3.11,0,0,1,2.42-1.37,3.15,3.15,0,0,1,2.58,1.58,1.07,1.07,0,0,0,.93.53h0a1.07,1.07,0,0,0,.93-.53,3.15,3.15,0,0,1,2.57-1.59,3.16,3.16,0,0,1,2.58,1.59,1.09,1.09,0,0,0,.94.53,1.07,1.07,0,0,0,1.07-1.07A1,1,0,0,0,33.49,16.17Zm-4.57-3a5.13,5.13,0,0,0-3.49,1.47,4.9,4.9,0,0,0-7,0,5.13,5.13,0,0,0-3.5-1.47A5.18,5.18,0,0,0,11.4,14.6a5.09,5.09,0,0,0-3.47-1.47,4.85,4.85,0,0,0-2.15.52,12.93,12.93,0,0,1,25.29,0A4.86,4.86,0,0,0,28.92,13.13Z" transform="translate(-3.35)"/><g class="b"><path class="a" d="M12.92,25.38c0-.46-.35-.71-.86-.9l0,0v1.8c.57-.1.91-.43.91-.89Zm-1.48-3.82a.87.87,0,0,0-.82.85c0,.25.06.59.77.86l0,0Zm0,6.39v-.81a2.17,2.17,0,0,1-2-1.38.17.17,0,0,1,.14-.24l.5-.14c.12,0,.19,0,.24.15a1.37,1.37,0,0,0,1.16.75v-2l-.3-.11c-1.2-.38-1.51-1.13-1.51-1.72a1.83,1.83,0,0,1,1.81-1.75v-.88a.18.18,0,0,1,.2-.19h.19a.17.17,0,0,1,.19.19v.89A1.91,1.91,0,0,1,13.7,22a.19.19,0,0,1-.14.25l-.47.15a.18.18,0,0,1-.24-.13,1,1,0,0,0-.84-.68V23.5l.33.13a1.92,1.92,0,0,1,1.57,1.71A1.87,1.87,0,0,1,12,27.15V28a.17.17,0,0,1-.19.19h-.19a.18.18,0,0,1-.2-.19Z" transform="translate(-3.35)"/></g><path class="a" d="M6,23.91a1.18,1.18,0,0,0,1.21-1.29A1.19,1.19,0,0,0,6,21.32H4.38v2.59Zm-.29.82H4.38v2.21a.32.32,0,0,1-.35.35H3.7a.32.32,0,0,1-.35-.35V20.82a.32.32,0,0,1,.35-.35H6.22A2,2,0,0,1,8.3,22.63a2,2,0,0,1-1.6,2.06c.07.74.53,1.85,1.27,1.85a1,1,0,0,0,.5-.12c.21-.1.36-.08.47.13l0,.09a.35.35,0,0,1-.11.49,1.76,1.76,0,0,1-1,.28c-1.61,0-2.09-1.85-2.16-2.67Z" transform="translate(-3.35)"/></svg>