<?xml version="1.0" encoding="UTF-8"?>
<svg width="26px" height="20px" viewBox="0 0 26 20" version="1.1" xmlns="http://www.w3.org/2000/svg" xmlns:xlink="http://www.w3.org/1999/xlink">
    <!-- Generator: Sketch 41.2 (35397) - http://www.bohemiancoding.com/sketch -->
    <title>icon-chat-yellow</title>
    <desc>Created with Sketch.</desc>
    <defs>
        <path d="M0,2.00585866 C0,0.898053512 0.894978851,0 1.99700466,0 L24.0029953,0 C25.1059106,0 26,0.897060126 26,2.00585866 L26,11.9941413 C26,13.1019465 25.1064574,14 23.9972399,14 L13,14 L6,20 L6,14 L1.99791312,14 C0.894496173,14 0,13.1029399 0,11.9941413 L0,2.00585866 Z" id="path-1"></path>
        <mask id="mask-2" maskContentUnits="userSpaceOnUse" maskUnits="objectBoundingBox" x="0" y="0" width="26" height="20" fill="white">
            <use xlink:href="#path-1"></use>
        </mask>
    </defs>
    <g id="Desktop" stroke="none" stroke-width="1" fill="none" fill-rule="evenodd">
        <g id="Desktop-Needor-Needor-Profile-Tab-2" transform="translate(-819.000000, -751.000000)">
            <g id="worrbior-list-copy" transform="translate(175.000000, 671.000000)">
                <g id="Group-11" transform="translate(644.000000, 76.000000)">
                    <g id="icon-chat-yellow" transform="translate(0.000000, 4.000000)">
                        <g>
                            <use id="Rectangle" stroke="#FFCB33" mask="url(#mask-2)" stroke-width="2" fill="#FFFFFF" xlink:href="#path-1"></use>
                            <circle id="Oval-3" fill="#FFCB33" cx="8" cy="7" r="1"></circle>
                            <circle id="Oval-3" fill="#FFCB33" cx="13" cy="7" r="1"></circle>
                            <circle id="Oval-3" fill="#FFCB33" cx="18" cy="7" r="1"></circle>
                        </g>
                    </g>
                </g>
            </g>
        </g>
    </g>
</svg>