<?xml version="1.0" encoding="utf-8"?>
<!-- Generator: Adobe Illustrator 16.0.0, SVG Export Plug-In . SVG Version: 6.00 Build 0)  -->
<!DOCTYPE svg PUBLIC "-//W3C//DTD SVG 1.1//EN" "http://www.w3.org/Graphics/SVG/1.1/DTD/svg11.dtd">
<svg version="1.1" id="Layer_1" xmlns="http://www.w3.org/2000/svg" xmlns:xlink="http://www.w3.org/1999/xlink" x="0px" y="0px"
	 width="40px" height="40px" viewBox="0 0 40 40" enable-background="new 0 0 40 40" xml:space="preserve">
<circle id="circle" fill="none" stroke="#1E2225" cx="20" cy="20" r="19.5"/>
<path id="Shape" fill="#1E2225" d="M26.53,15.213c0.698-0.437,1.233-1.129,1.485-1.955c-0.654,0.405-1.376,0.699-2.146,0.857
	C25.254,13.429,24.375,13,23.402,13c-1.865,0-3.377,1.583-3.377,3.534c0,0.277,0.028,0.547,0.086,0.805
	c-2.807-0.148-5.297-1.553-6.964-3.693c-0.291,0.524-0.457,1.13-0.457,1.778c0,1.225,0.596,2.307,1.503,2.942
	c-0.554-0.019-1.075-0.179-1.531-0.442v0.043c0,1.713,1.164,3.142,2.712,3.465c-0.284,0.083-0.582,0.124-0.892,0.124
	c-0.217,0-0.43-0.021-0.635-0.063c0.429,1.404,1.677,2.427,3.156,2.454c-1.157,0.948-2.614,1.513-4.197,1.513
	c-0.272,0-0.542-0.016-0.806-0.049C13.496,26.414,15.271,27,17.18,27c6.217,0,9.613-5.385,9.613-10.056
	c0-0.154-0.002-0.306-0.008-0.457c0.66-0.499,1.234-1.121,1.686-1.83C27.864,14.938,27.213,15.128,26.53,15.213z"/>
</svg>
