<?xml version="1.0" encoding="utf-8"?>
<!-- Generator: Adobe Illustrator 16.0.0, SVG Export Plug-In . SVG Version: 6.00 Build 0)  -->
<!DOCTYPE svg PUBLIC "-//W3C//DTD SVG 1.1//EN" "http://www.w3.org/Graphics/SVG/1.1/DTD/svg11.dtd">
<svg version="1.1" id="Layer_1" xmlns="http://www.w3.org/2000/svg" xmlns:xlink="http://www.w3.org/1999/xlink" x="0px" y="0px"
	 width="40px" height="40px" viewBox="0 0 40 40" enable-background="new 0 0 40 40" xml:space="preserve">
<circle id="circle" fill="none" stroke="#FFCB33" cx="20" cy="20" r="19.5"/>
<g>
	<path id="path-3" fill="#FFFFFF" d="M20.001,10c-2.716,0-3.057,0.012-4.124,0.061c-1.064,0.049-1.791,0.217-2.427,0.464
		c-0.658,0.255-1.216,0.597-1.771,1.153c-0.557,0.556-0.898,1.114-1.154,1.771c-0.248,0.636-0.417,1.363-0.465,2.427
		C10.013,16.943,10,17.284,10,20s0.012,3.056,0.061,4.123c0.049,1.064,0.217,1.791,0.464,2.427c0.256,0.657,0.598,1.216,1.153,1.771
		c0.556,0.557,1.114,0.899,1.771,1.154c0.636,0.248,1.363,0.416,2.428,0.465C16.943,29.988,17.284,30,20,30
		c2.716,0,3.056-0.012,4.123-0.061c1.065-0.049,1.792-0.217,2.429-0.465c0.657-0.255,1.215-0.598,1.77-1.154
		c0.557-0.555,0.898-1.113,1.154-1.771c0.246-0.636,0.415-1.362,0.465-2.427C29.987,23.057,30,22.716,30,20
		s-0.013-3.057-0.061-4.123c-0.05-1.065-0.219-1.792-0.465-2.427c-0.256-0.658-0.598-1.216-1.154-1.771
		c-0.556-0.556-1.111-0.898-1.771-1.153c-0.638-0.247-1.364-0.416-2.429-0.464C23.055,10.012,22.715,10,19.998,10H20.001z
		 M19.104,11.802c0.266,0,0.563,0,0.897,0c2.67,0,2.986,0.009,4.041,0.057c0.975,0.045,1.504,0.208,1.856,0.345
		c0.467,0.181,0.799,0.398,1.149,0.748c0.35,0.35,0.566,0.683,0.748,1.15c0.138,0.352,0.3,0.881,0.345,1.856
		c0.048,1.054,0.059,1.371,0.059,4.04c0,2.668-0.011,2.985-0.059,4.039c-0.045,0.976-0.207,1.504-0.345,1.856
		c-0.181,0.467-0.398,0.8-0.748,1.149c-0.351,0.35-0.683,0.566-1.149,0.748c-0.352,0.137-0.882,0.299-1.856,0.344
		c-1.054,0.049-1.371,0.059-4.041,0.059c-2.67,0-2.987-0.01-4.041-0.059c-0.975-0.045-1.504-0.207-1.857-0.345
		c-0.466-0.181-0.8-0.397-1.15-0.747c-0.35-0.351-0.567-0.684-0.749-1.15c-0.137-0.352-0.3-0.881-0.344-1.855
		c-0.048-1.055-0.058-1.371-0.058-4.042c0-2.67,0.01-2.985,0.058-4.04c0.044-0.975,0.208-1.504,0.344-1.856
		c0.182-0.467,0.398-0.8,0.749-1.15c0.35-0.35,0.684-0.567,1.15-0.749c0.353-0.138,0.882-0.3,1.857-0.345
		c0.922-0.042,1.28-0.054,3.144-0.056V11.802z M25.339,13.462c-0.663,0-1.2,0.537-1.2,1.2s0.537,1.2,1.2,1.2s1.2-0.538,1.2-1.2
		S26.002,13.462,25.339,13.462L25.339,13.462z M20.001,14.865c-2.836,0-5.135,2.299-5.135,5.135s2.299,5.135,5.135,5.135
		s5.135-2.299,5.135-5.135S22.837,14.865,20.001,14.865L20.001,14.865z M20.001,16.667c1.841,0,3.333,1.492,3.333,3.333
		s-1.492,3.334-3.333,3.334c-1.841,0-3.333-1.493-3.333-3.334S18.16,16.667,20.001,16.667L20.001,16.667z"/>
</g>
<title>social-instagram-white</title>
<desc>Created with Sketch.</desc>
<path id="path-3_1_" fill="#FFCB33" d="M20.001,10c-2.716,0-3.057,0.012-4.124,0.061c-1.064,0.049-1.791,0.217-2.427,0.464
	c-0.658,0.255-1.216,0.597-1.771,1.153c-0.557,0.556-0.898,1.114-1.154,1.771c-0.248,0.636-0.417,1.363-0.465,2.427
	C10.013,16.943,10,17.284,10,20s0.012,3.056,0.061,4.123c0.049,1.064,0.217,1.791,0.464,2.427c0.256,0.657,0.598,1.216,1.153,1.771
	c0.556,0.557,1.114,0.899,1.771,1.154c0.636,0.248,1.363,0.416,2.428,0.465C16.943,29.988,17.284,30,20,30
	c2.716,0,3.056-0.012,4.123-0.061c1.065-0.049,1.792-0.217,2.429-0.465c0.657-0.255,1.215-0.598,1.77-1.154
	c0.557-0.555,0.898-1.113,1.154-1.771c0.246-0.636,0.415-1.362,0.465-2.427C29.987,23.057,30,22.716,30,20s-0.013-3.057-0.061-4.123
	c-0.05-1.065-0.219-1.792-0.465-2.427c-0.256-0.658-0.598-1.216-1.154-1.771c-0.556-0.556-1.111-0.898-1.771-1.153
	c-0.638-0.247-1.364-0.416-2.429-0.464C23.055,10.012,22.715,10,19.998,10H20.001z M19.104,11.802c0.266,0,0.563,0,0.897,0
	c2.67,0,2.986,0.009,4.041,0.057c0.975,0.045,1.504,0.208,1.856,0.345c0.467,0.181,0.799,0.398,1.149,0.748
	c0.35,0.35,0.566,0.683,0.748,1.15c0.138,0.352,0.3,0.881,0.345,1.856c0.048,1.054,0.059,1.371,0.059,4.04
	c0,2.668-0.011,2.985-0.059,4.039c-0.045,0.976-0.207,1.504-0.345,1.856c-0.181,0.467-0.398,0.8-0.748,1.149
	c-0.351,0.35-0.683,0.566-1.149,0.748c-0.352,0.137-0.882,0.299-1.856,0.344c-1.054,0.049-1.371,0.059-4.041,0.059
	c-2.67,0-2.987-0.01-4.041-0.059c-0.975-0.045-1.504-0.207-1.857-0.345c-0.466-0.181-0.8-0.397-1.15-0.747
	c-0.35-0.351-0.567-0.684-0.749-1.15c-0.137-0.352-0.3-0.881-0.344-1.855c-0.048-1.055-0.058-1.371-0.058-4.042
	c0-2.67,0.01-2.985,0.058-4.04c0.044-0.975,0.208-1.504,0.344-1.856c0.182-0.467,0.398-0.8,0.749-1.15
	c0.35-0.35,0.684-0.567,1.15-0.749c0.353-0.138,0.882-0.3,1.857-0.345c0.922-0.042,1.28-0.054,3.144-0.056V11.802z M25.339,13.462
	c-0.663,0-1.2,0.537-1.2,1.2s0.537,1.2,1.2,1.2s1.2-0.538,1.2-1.2S26.002,13.462,25.339,13.462L25.339,13.462z M20.001,14.865
	c-2.836,0-5.135,2.299-5.135,5.135s2.299,5.135,5.135,5.135s5.135-2.299,5.135-5.135S22.837,14.865,20.001,14.865L20.001,14.865z
	 M20.001,16.667c1.841,0,3.333,1.492,3.333,3.333s-1.492,3.334-3.333,3.334c-1.841,0-3.333-1.493-3.333-3.334
	S18.16,16.667,20.001,16.667L20.001,16.667z"/>
</svg>
