<?xml version="1.0" encoding="UTF-8"?>
<svg width="40px" height="40px" viewBox="0 0 40 40" version="1.1" xmlns="http://www.w3.org/2000/svg" xmlns:xlink="http://www.w3.org/1999/xlink">
    <!-- Generator: Sketch 41.2 (35397) - http://www.bohemiancoding.com/sketch -->
    <title>social-in</title>
    <desc>Created with Sketch.</desc>
    <defs>
        <path d="M0,20 C0,8.954305 8.95187636,0 20,0 L20,0 C31.045695,0 40,8.95187636 40,20 L40,20 C40,31.045695 31.0481236,40 20,40 L20,40 C8.954305,40 0,31.0481236 0,20 L0,20 Z" id="path-1"></path>
        <mask id="mask-2" maskContentUnits="userSpaceOnUse" maskUnits="objectBoundingBox" x="0" y="0" width="40" height="40" fill="white">
            <use xlink:href="#path-1"></use>
        </mask>
    </defs>
    <g id="Desktop" stroke="none" stroke-width="1" fill="none" fill-rule="evenodd">
        <g id="Desktop-Needor-Worbbior-Profile" transform="translate(-1185.000000, -1013.000000)">
            <g id="social-in" transform="translate(1185.000000, 1013.000000)">
                <use id="Rectangle-4-Copy-5" stroke="#1E2225" mask="url(#mask-2)" stroke-width="2" xlink:href="#path-1"></use>
                <path d="M15.8592207,17.2776901 L12.2154644,17.2776901 L12.2154644,28.2256654 L15.8592207,28.2256654 L15.8592207,17.2776901 Z M16.0992077,13.8910397 C16.0755583,12.8175976 15.3079346,12 14.0614286,12 C12.8149225,12 12,12.8175976 12,13.8910397 C12,14.942247 12.7908364,15.7833873 14.0141297,15.7833873 L14.0374153,15.7833873 C15.3079346,15.7833873 16.0992077,14.942247 16.0992077,13.8910397 Z M29,21.9484309 C29,18.5856865 27.2024262,17.0206104 24.8046665,17.0206104 C22.8700716,17.0206104 22.0039209,18.0832258 21.5203085,18.8286696 L21.5203085,17.2779807 L17.8761156,17.2779807 C17.9241421,18.3052821 17.8761156,28.225956 17.8761156,28.225956 L21.5203085,28.225956 L21.5203085,22.1117034 C21.5203085,21.7845045 21.5439579,21.4581049 21.640302,21.2238412 C21.9036474,20.57017 22.503251,19.8933922 23.5099156,19.8933922 C24.8289709,19.8933922 25.3562437,20.8972963 25.3562437,22.3684924 L25.3562437,28.2256654 L28.9998545,28.2256654 L29,21.9484309 Z" id="Shape" fill="#0077B5"></path>
            </g>
        </g>
    </g>
</svg>