<svg xmlns="http://www.w3.org/2000/svg" width="70" height="70"><path fill="#FFCB33" fill-rule="evenodd" d="M35 0C7.546 0 0 7.546 0 35s7.448 35 35 35 35-7.448 35-35S62.454 0 35 0zm0 65.002C10.332 65.002 4.998 59.668 4.998 35S10.332 4.998 35 4.998 65.002 10.332 65.002 35 59.668 65.002 35 65.002zM48.678 52.5c-.49 0-1.89-.966-1.848-.938 0 0-4.312-2.492-11.816-2.492-7.504 0-11.816 2.492-11.816 2.492s-1.372.938-1.848.938c-1.288 0-2.506-1.05-2.506-2.352 0-1.484 1.722-2.506 1.722-2.506S27.58 44.058 35 44.058c7.42 0 14.448 3.598 14.448 3.598s1.722.938 1.722 2.506c0 1.288-1.204 2.338-2.492 2.338zm-26.18-20.006c2.758 0 4.998-2.24 4.998-4.998s-2.24-4.998-4.998-4.998-4.998 2.24-4.998 4.998 2.24 4.998 4.998 4.998zm25.004-9.996c-2.758 0-4.998 2.24-4.998 4.998s2.24 4.998 4.998 4.998 4.998-2.24 4.998-4.998-2.24-4.998-4.998-4.998z"/></svg>