<svg xmlns="http://www.w3.org/2000/svg" width="50" height="24"><path fill="#FFF" fill-rule="evenodd" d="M48.0683 2.326c-1.0634 0-1.9255.8675-1.9255 1.9373 0 9.7614-6.0203 11.2206-9.615 11.2206-.4256-.001-.8482-.0732-1.2502-.214-1.2397-.498-2.2903-1.3788-3.0008-2.5157-1.1482-1.6946-1.7982-3.6805-1.8754-5.7298-.044-.8487.1744-1.6902.625-2.409.397-.5032 1.0214-.7687 1.6568-.7044.625 0 .7814.2265.8627.346.3173.5748.4567 1.232.4 1.887-.0348 1.6496-.3498 3.2812-.9315 4.824.744 1.3774 1.7692 2.56 2.9257 2.8743 1.1265-2.429 1.764-5.0582 1.8755-7.736.0592-1.4547-.3318-2.892-1.119-4.1135C35.7747.6986 34.2713-.047 32.6894.0053c-1.8518-.0805-3.6242.7616-4.7387 2.2517-.956 1.3852-1.4405 3.0444-1.3816 4.7297.0843 3.4207 1.3536 6.7043 3.5885 9.2834-1.688 2.2895-3.6384 3.862-5.1512 3.862-1.513 0-3.476-1.5662-5.17-3.8556-.8176-1.1103-1.5254-2.2984-2.113-3.5473-1.0292-2.0596-1.603-4.319-1.6818-6.6228-.0567-.655.0826-1.3122.4-1.887.0876-.1194.244-.3458.8628-.3458.6354-.0643 1.2597.201 1.6567.7044.4507.7187.669 1.5603.625 2.409-.038 1.391-.355 2.76-.9313 4.0252.5722 1.406 1.302 2.742 2.1755 3.9813 1.618-2.359 2.5174-5.1413 2.5882-8.0066.059-1.6853-.4257-3.3445-1.3816-4.7297-1.1133-1.4882-2.883-2.33-4.7325-2.2517-1.584-.0545-3.0902.6914-4.0135 1.9875-.7784 1.2244-1.1606 2.6614-1.094 4.1134 0 2.6793.9502 6.063 2.5006 9.1576-.402.1408-.8246.213-1.2503.2138-3.5883 0-9.6148-1.459-9.6148-11.2206-.0992-.991-.929-1.7447-1.919-1.743C.9235 2.5155.096 3.272 0 4.2632c0 9.3086 5.1575 15.095 13.4596 15.095 1.1386.0013 2.2635-.25 3.2946-.736C19.0172 21.7296 21.9242 24 25 24c3.0758 0 5.9827-2.2705 8.2458-5.3776 1.031.486 2.156.7372 3.2946.736C44.8424 19.3583 50 13.578 50 4.2633c0-.515-.2037-1.0086-.5662-1.372-.3624-.3636-.8538-.567-1.3655-.5653z"/></svg>