<svg xmlns="http://www.w3.org/2000/svg" width="50" height="24" xmlns:xlink="http://www.w3.org/1999/xlink"><defs><path id="a" d="M19.0348 0h13.9594C34.102 0 35 .897 35 2.005v19.99C35 23.1025 34.1018 24 33.0092 24H16.9908C15.8913 24 15 23.104 15 21.9958V4.0502L19.0348 0z"/><mask id="b" width="20" height="24" x="0" y="0" fill="#fff"><use xlink:href="#a"/></mask></defs><g fill="none" fill-rule="evenodd"><use stroke="#FFCB33" stroke-width="4" mask="url(#b)" xlink:href="#a"/><path fill="#FFCB33" d="M20 0v5h-5M27 5h4v4h-4zM19 11h12v2H19z"/><rect width="12" height="2" y="11" fill="#FFCB33" rx="1"/><rect width="12" height="2" x="38" y="11" fill="#FFCB33" rx="1"/><rect width="6" height="2" x="6" y="15" fill="#FFCB33" transform="rotate(-15 9 16)" rx="1"/><rect width="6" height="2" x="38" y="15" fill="#FFCB33" transform="rotate(15 41 16)" rx="1"/><rect width="6" height="2" x="6" y="7" fill="#FFCB33" transform="rotate(15 9 8)" rx="1"/><rect width="6" height="2" x="38" y="7" fill="#FFCB33" transform="rotate(-15 41 8)" rx="1"/></g></svg>