<svg xmlns="http://www.w3.org/2000/svg" width="50" height="24" xmlns:xlink="http://www.w3.org/1999/xlink"><defs><path id="a" d="M35.561 7.9268l-6.289-1.0022L26.4254.974C26.1377.386 25.5546.0062 24.929 0c-.6256-.006-1.204.3606-1.482.9595l-2.7752 5.911-6.2653.894c-.6235.0876-1.1457.5368-1.3315 1.1754-.1857.6386-.0216 1.311.438 1.775l4.5804 4.651-1.0327 6.5165c-.099.65.158 1.3092.6752 1.6967.1723.1292.354.221.545.2758.3942.113.8256.0767 1.199-.1357l5.6003-3.04 5.643 3.119c.5627.3074 1.2397.2618 1.7464-.1254.5066-.3872.7583-1.0336.6538-1.689l-1.1318-6.5107 4.5166-4.5876c.4475-.4573.6068-1.1435.4063-1.773s-.726-1.086-1.3537-1.186z"/><mask id="d" width="24" height="24" x="0" y="0" fill="#fff"><use xlink:href="#a"/></mask><path id="b" d="M49.2804 15.9634l-3.1444-.501-1.4233-2.9754c-.144-.294-.4354-.484-.7482-.487-.3128-.003-.602.1803-.741.4797l-1.3876 2.9556-3.1327.447c-.3118.0437-.573.2683-.6658.5877-.093.3193-.0108.6555.219.8876l2.2902 2.3254-.5163 3.2582c-.0496.325.079.6546.3376.8484.0862.0646.177.1106.2726.138.197.0563.4127.0383.5993-.068l2.8-1.52 2.8216 1.5595c.2814.154.62.131.8732-.0625.2534-.1936.3792-.5168.327-.8444l-.566-3.2553 2.2584-2.294c.2237-.2285.3033-.5716.203-.8864-.1002-.3147-.363-.543-.6768-.593z"/><mask id="e" width="12" height="12" x="0" y="0" fill="#fff"><use xlink:href="#b"/></mask><path id="c" d="M11.2804 15.9634l-3.1444-.501-1.4233-2.9754c-.144-.294-.4354-.484-.7482-.487-.3128-.003-.602.1803-.741.4797l-1.3876 2.9556-3.1327.447c-.3118.0437-.573.2683-.6658.5877-.093.3193-.0108.6555.219.8876l2.2902 2.3254-.5163 3.2582c-.0496.325.079.6546.3376.8484.0862.0646.177.1106.2726.138.197.0563.4127.0383.5993-.068l2.8-1.52 2.8216 1.5595c.2814.154.62.131.8732-.0625.2534-.1936.3792-.5168.327-.8444l-.566-3.2553 2.2584-2.294c.2237-.2285.3033-.5716.203-.8864-.1002-.3147-.363-.543-.6768-.593z"/><mask id="f" width="12" height="12" x="0" y="0" fill="#fff"><use xlink:href="#c"/></mask></defs><g fill="none" fill-rule="evenodd" stroke="#FFF" stroke-width="4"><use mask="url(#d)" xlink:href="#a"/><use mask="url(#e)" xlink:href="#b"/><use mask="url(#f)" xlink:href="#c"/></g></svg>